<svg width="131" height="112" viewBox="0 0 131 112" fill="none" xmlns="http://www.w3.org/2000/svg">
<g id="Group 457">
<path id="Vector" d="M0.195751 109.812L1.51069 109.05L0 110.28L2.17454 109.024L0.119153 110.403L2.39157 109.093L0.182985 110.612L2.86392 109.063L0.306393 110.927L3.63416 109.007L0.604275 111.033L4.04694 109.046L0.519166 111.139L4.30227 108.952L0.69364 111.203L4.44695 109.037L0.791515 111.207L4.57036 109.024L0.906413 111.199L4.8342 108.931L1.5192 111.144L5.23421 108.999L2.02134 111.169L5.87253 108.948L2.42987 111.22L6.34063 108.965L3.30224 111.097L7.02151 108.948L3.40862 111.182L7.35343 108.905L4.11503 111.101L8.00026 108.858L4.52355 111.071L8.42155 108.824L4.85548 111.105L8.68113 108.901L5.25549 111.059L9.03008 108.88L5.86402 111.084L9.80883 108.807L6.45127 111.067L10.2854 108.854L6.98746 110.982L10.8259 108.765L7.61301 110.965L11.3323 108.82L7.92366 111.029L11.8132 108.786L8.24282 110.999L12.1578 108.739L8.63858 110.969L12.5025 108.739L8.66411 110.986L12.5366 108.748L9.162 110.91L12.9706 108.714L9.13647 110.948L13.094 108.663L9.25562 110.931L13.1451 108.688L9.77053 110.927L13.7196 108.646L9.94075 110.901L13.7239 108.718L10.0599 110.935L14.0813 108.612L10.711 110.859L14.4813 108.684L10.9067 110.901L14.8345 108.629L11.2387 110.841L15.1282 108.599L11.5451 110.816L15.4345 108.569L11.6514 110.846L15.5494 108.595L12.1366 110.803L16.0431 108.548L12.4344 110.786L16.2388 108.586L12.677 110.859L16.7027 108.531L13.4217 110.812L17.4091 108.51L13.8047 110.756L17.7453 108.484L14.0515 110.773L17.9751 108.505L14.1366 110.731L17.9751 108.518L14.7537 110.756L18.7751 108.433L15.4175 110.705L19.4049 108.407L15.5707 110.739L19.4772 108.484L15.6729 110.748L19.6262 108.467L16.1495 110.71L20.073 108.446L16.7623 110.65L20.656 108.403L17.0984 110.697L21.1837 108.339L17.6431 110.603L21.5199 108.365L17.9921 110.624L21.9071 108.365L18.0772 110.637L22.1071 108.309L18.7368 110.535L22.5241 108.348L18.9793 110.612L22.9284 108.331L19.7283 110.514L23.7369 108.199L19.9496 110.48L23.7369 108.297L20.1496 110.471L23.9667 108.267L20.5368 110.552L24.537 108.241L21.0943 110.484L25.0604 108.195L21.3284 110.446L25.1838 108.22L21.7879 110.45L25.72 108.182L22.4858 110.433L26.6221 108.046L22.9284 110.39L26.9668 108.054L23.0986 110.331L26.9668 108.097L23.2731 110.403L27.3073 108.071L23.7838 110.348L27.7796 108.041L24.1582 110.348L28.1328 108.05L24.4221 110.331L28.5584 107.944L25.12 110.267L29.1329 107.948L25.3668 110.271L29.3329 107.978L25.9668 110.207L30.0223 107.867L26.1413 110.237L30.2308 107.875L26.3243 110.263L30.4733 107.871L26.8902 110.169L30.8861 107.863L27.269 110.127L31.1755 107.871L27.7626 110.118L31.7074 107.841L28.3031 110.071L32.3457 107.739L28.4903 110.08L32.5543 107.731L28.7541 110.076L32.8011 107.744L29.2946 110.007L33.3585 107.658L29.4052 110.088L33.4905 107.731L29.9201 110.063L34.1713 107.612L30.235 110.02L34.3203 107.663L30.6904 110.003L34.9373 107.552L31.1457 109.944L35.3416 107.522L31.4691 109.965L35.7288 107.505L32.2181 109.82L36.3331 107.446L32.5117 109.837L36.5884 107.48L32.8011 109.778L36.814 107.463L33.0351 109.82L37.1246 107.463L33.6905 109.82L38.0481 107.301L34.4394 109.744L38.7119 107.28L34.8735 109.731L39.2396 107.212L35.6437 109.667L39.9119 107.207L36.2097 109.578L40.312 107.212L36.9033 109.505L41.0311 107.122L37.6863 109.424L41.8695 107.012L38.1076 109.399L42.2524 107.007L38.3332 109.463L42.5971 106.999L38.8694 109.39L43.1631 106.914L39.6907 109.271L43.9546 106.812L40.329 109.22L44.6015 106.752L40.7545 109.22L44.9589 106.79L40.6949 109.28L45.0483 106.765L41.0439 109.203L45.4228 106.675L41.6907 109.122L45.9547 106.663L41.8099 109.131L46.0824 106.663L41.9631 109.088L46.2951 106.586L42.6014 109.063L46.8696 106.599L42.6822 109.05L47.1122 106.492L42.9291 109.024L47.3547 106.471L43.0355 109.041L47.4186 106.509L43.8057 108.944L48.2782 106.365L44.0099 108.888L48.2612 106.433L44.7844 108.807L49.0569 106.339L45.3589 108.765L49.8272 106.186L46.1334 108.697L50.4995 106.178L46.8441 108.599L51.2102 106.08L47.4994 108.569L52.0953 105.918L48.0611 108.531L52.5932 105.914L48.5037 108.437L52.9847 105.85L49.1335 108.412L53.7677 105.739L49.691 108.339L54.3379 105.654L50.274 108.246L54.9422 105.548L50.4272 108.233L55.0486 105.565L50.6527 108.195L55.2614 105.531L50.9421 108.169L55.5465 105.509L51.4059 108.165L56.2699 105.356L51.6825 108.067L56.2955 105.403L51.8698 108.037L56.4274 105.407L51.9591 108.109L56.7167 105.365L52.7719 108.012L57.6657 105.186L53.1507 107.944L57.9806 105.156L53.772 107.82L58.653 105.003L54.4273 107.803L59.4871 104.88L55.4103 107.62L60.5254 104.667L55.6699 107.595L60.7807 104.641L56.3933 107.505L61.7765 104.399L56.8912 107.399L62.1425 104.365L57.4742 107.301L62.8489 104.199L57.9253 107.246L63.4574 104.05L58.2572 107.19L63.8106 103.986L58.8828 107.097L64.5468 103.824L59.3934 106.982L65.1553 103.654L59.453 106.973L65.317 103.586L60.2786 106.854L66.3086 103.373L61.1169 106.714L67.449 103.058L61.3339 106.68L67.8405 102.922L62.1425 106.509L69.0406 102.526L62.6786 106.365L69.6618 102.331L62.7765 106.339L69.6108 102.394L63.5425 106.229L71.1044 101.858L64.3978 106.007L72.3768 101.403L65.6107 105.684L76.9685 99.1262L66.2532 105.56L77.0025 99.3518L66.9979 105.352L77.1217 99.5092L67.4575 105.25L77.1685 99.6411L67.9001 105.105L77.1004 99.7986L68.1682 105.016L77.2195 99.7901L68.9001 104.799L77.1727 100.024L69.6448 104.56L77.2068 100.194L70.6193 104.229L77.2153 100.42L71.8704 103.811L77.1132 100.782L72.3173 103.667L77.0408 100.939L73.5641 103.148L76.9259 101.207" stroke="#FF8976" stroke-width="1.41074" stroke-linecap="round" stroke-linejoin="round"/>
<path id="Vector_2" d="M59.6403 89.5684L63.5808 87.2959L59.2828 90.0535L64.6702 86.9427L59.0658 90.3429L65.5213 86.6151L59.0317 90.5301L66.0277 86.4917L58.9083 90.7216L66.483 86.3512L58.9211 90.7982L66.7298 86.2874L58.6232 91.3471L68.1214 85.8619L58.5892 91.4408L68.3852 85.7853L58.5424 91.8323L69.6917 85.3938L58.5466 92.0833L70.53 85.1682L58.4785 92.4408L61.385 90.7641L58.5892 92.7089L60.9722 91.3344L58.5977 92.8408L60.9084 91.5046L58.5934 92.9557L60.6786 91.7514L58.4955 93.1642L60.7552 91.8621L58.5721 93.2749L60.6743 92.0621L58.6275 93.2834L60.5765 92.1557L58.5594 93.4153L60.5382 92.2748L58.6275 93.6493L60.5807 92.5216L58.8019 93.9259L60.5679 92.9089L58.8658 93.9259L60.7339 92.8451L58.8275 94.0153L60.6573 92.96L58.9083 94.3515L60.7892 93.2663L59.1424 94.5685L61.168 93.3983L59.2913 94.8196L61.3424 93.6366L59.4956 95.0153L61.7297 93.7259L59.8615 95.126L62.1935 93.7813L59.7935 95.2324L62.168 93.8621L59.9083 95.3047L62.4446 93.8408L60.1807 95.3217L62.6276 93.9089L60.185 95.4068L62.6063 94.0068L60.3467 95.5132L62.9553 94.0068L60.8956 95.5388L63.2446 94.1855L61.0275 95.7473L63.7383 94.1813L61.368 95.8196L63.9127 94.3515L61.402 95.8366L64.1042 94.2791L61.8063 95.943L64.4532 94.4153L62.2276 95.9345L64.8192 94.4409L62.5935 96.0962L65.2277 94.577L62.6872 96.1388L65.2702 94.6494L63.0361 96.2835L65.683 94.7558L63.5042 96.3813L66.266 94.7856L63.6063 96.3728L66.3469 94.7941L63.9936 96.4409L66.6958 94.8792L64.1042 96.4622L66.6745 94.977L64.3553 96.5899L67.1384 94.9813L64.5298 96.509L67.0958 95.0239L64.5255 96.5431L67.1554 95.0239L64.5979 96.5558L67.2448 95.0239L65.0149 96.6494L67.6192 95.1473L65.3809 96.7303L67.9597 95.2409L65.8064 96.7984L68.4916 95.2494L65.9213 96.9643L68.6618 95.3813L66.2362 96.9601L68.8618 95.4451L66.4873 97.075L69.3129 95.4451L67.0277 97.1431L69.6831 95.6111L67.2788 97.258L70.0151 95.6792L67.5682 97.3175L70.4576 95.6494L67.9341 97.2452L70.6364 95.6877L67.9299 97.3856L70.6279 95.8281L68.3044 97.3856L70.9172 95.8792L68.615 97.4963L71.4492 95.8579L68.9512 97.5644L71.7172 95.9686L69.2235 97.5516L71.8662 96.0281L69.3597 97.6282L71.9896 96.109L69.7214 97.6537L72.3258 96.1516L69.7768 97.658L72.4832 96.092L70.2321 97.7686L72.896 96.2324L70.3427 97.9346L73.0492 96.3686L70.6066 97.9218L73.2833 96.3771L70.9981 97.9899L73.6748 96.4452L71.4066 98.0793L73.9173 96.6282L71.5087 98.0708L73.9088 96.6835L71.7002 98.2708L74.3429 96.7473L72.1471 98.2325L74.5684 96.8324L72.2279 98.3006L74.6152 96.926L72.3428 98.4282L74.7173 97.0537L72.496 98.4538L74.9088 97.058L72.7088 98.4835L75.1003 97.1048L72.9428 98.5176L75.2833 97.1686L73.1726 98.5687L75.2876 97.3473L73.4109 98.7516L75.6663 97.4495L73.8067 98.8538L75.8791 97.658L74.1301 98.9857L76.1642 97.8112L74.3684 99.1431L76.3131 98.0197L74.4705 99.1814L76.3897 98.075L74.7131 99.3857L76.5983 98.2963L74.7556 99.407L76.5812 98.3516L74.9131 99.5219L76.7259 98.475L74.9599 99.841L76.8706 98.7389L74.9812 99.8964L76.8323 98.8282" stroke="#FF8976" stroke-width="1.41074" stroke-linecap="round" stroke-linejoin="round"/>
<path id="Vector_3" d="M64.4873 89.1644L72.1684 84.7302L65.2064 88.9389L72.6024 84.6706L65.7299 88.7772L73.1344 84.5004L66.0533 88.6835L73.2961 84.5004L66.9001 88.4325L74.1472 84.2494L67.8916 88.1303L74.9217 84.0706L68.8661 87.8835L75.7344 83.9174L70.096 87.5473L76.7175 83.7259L71.0875 87.2537L77.6366 83.4749L71.3428 87.1729L77.6792 83.5174L72.4237 86.8835L78.5813 83.3302L73.3684 86.6877L79.5942 83.0919L74.5812 86.3558L80.475 82.9557L75.2663 86.1941L80.9814 82.8961L75.6493 86.1303L81.3985 82.811L76.6792 85.8962L82.3985 82.594L77.4579 85.7047L83.0411 82.4833L78.3473 85.543L83.8156 82.3855L79.258 85.3813L84.8156 82.1727L80.275 85.1728L85.7901 81.9897L80.7261 85.0409L86.1178 81.9301L81.458 84.9217L86.7263 81.8791L81.6155 84.8621L86.9093 81.8067L81.8708 84.7941L87.0667 81.794L82.0921 84.8026L87.3731 81.7514L82.1517 84.8111L87.3689 81.7982L82.7602 84.6877L87.9093 81.7131L83.5858 84.5132L88.7987 81.5046L84.2666 84.377L89.3349 81.4493L84.9858 84.2579L90.037 81.3429L85.5007 84.2281L90.5732 81.3003L86.3901 84.0451L91.2584 81.2322L86.8837 83.9557L91.7137 81.1684L87.4753 83.8834L92.369 81.0578L88.3476 83.7685L93.2797 80.9173L89.2242 83.5855L94.0457 80.8024L89.5519 83.5387L94.4202 80.7301L90.3605 83.4493L95.2627 80.6195L90.6456 83.4068L95.3776 80.679L90.6839 83.4238L95.6032 80.5854L90.9052 83.3898L95.7053 80.6152L91.7137 83.2749L96.5266 80.496L92.4499 83.1727L97.2373 80.4067L92.6329 83.1046L97.3607 80.3769L92.9478 83.0876L97.6841 80.3514L93.4414 82.9642L97.982 80.3428L93.4797 83.028L98.2458 80.279L94.1946 82.9429L98.9352 80.2067L94.3223 82.9131L99.0501 80.1854L94.3946 82.9174L99.0501 80.2322L95.1904 82.7514L99.7991 80.0875L95.1691 82.7685L99.8033 80.0918L95.6372 82.7387L100.152 80.1301L95.9734 82.6791L100.633 79.9896L96.2245 82.6025L100.744 79.9939L96.4287 82.5812L100.846 80.0364L97.1011 82.4961L101.501 79.9556L97.25 82.5344L101.897 79.8535L97.5692 82.5301L102.263 79.8237L98.0033 82.4493L102.637 79.7769L98.2628 82.4323L102.735 79.8492L98.9735 82.3472L103.514 79.7258L99.0373 82.3514L103.535 79.7513L99.0969 82.3344L103.697 79.6747L99.8927 82.1812L104.255 79.6577L100.348 82.1812L104.752 79.6364L100.335 82.2152L104.914 79.5726L100.88 82.0961L105.25 79.5726L101.357 82.0365L105.676 79.5428L101.506 82.0195L105.816 79.53L101.48 82.0918L105.914 79.53L102.318 81.9259L106.655 79.4237L102.957 81.9003L107.323 79.3769L103.655 81.8365L108.118 79.2577L104.323 81.7514L108.782 79.1768L104.489 81.7599L108.867 79.2279L104.876 81.6833L109.272 79.1471L104.982 81.6748L109.404 79.1215L104.948 81.7259L109.37 79.1726L105.157 81.6833L109.493 79.1768L105.765 81.5812L110.259 78.9854L105.991 81.5557L110.468 78.9683L106.106 81.5259L110.655 78.896L106.135 81.611L114.276 76.9087L106.757 81.5684L114.28 77.2236L106.88 81.5599L114.221 77.3215L106.999 81.5429L114.323 77.313L107.723 81.4025L114.217 77.6534L108.067 81.4067L114.28 77.8151L108.046 81.4365L114.204 77.8832L108.242 81.3982L114.174 77.9768L108.195 81.4408L114.131 78.0109L108.353 81.3556L114.11 78.0321L108.523 81.4025L114.119 78.1726L108.77 81.3131L114.063 78.2534L109.391 81.2833L113.987 78.6321L109.68 81.1854L113.851 78.7811L109.782 81.211L113.846 78.8662L110.506 81.0875L113.476 79.3769" stroke="#FF8976" stroke-width="1.41074" stroke-linecap="round" stroke-linejoin="round"/>
<path id="Vector_4" d="M60.3594 67.3167L67.2022 63.3677L60.785 67.1806L67.4831 63.3123L61.2659 67.0146L67.8405 63.2187L61.3978 66.955L67.815 63.2528L62.6021 66.6188L68.8874 62.9889L62.8361 66.555L69.1427 62.9123L63.5255 66.4103L69.8363 62.7676L64.3681 66.2103L70.5002 62.6698L65.0575 66.0103L71.0279 62.5591L65.8788 65.7975L71.8492 62.3549L66.7979 65.6231L72.6279 62.257L67.9001 65.3507L73.6577 62.0272L68.5257 65.206L74.0024 62.0442L69.5342 64.9805L75.045 61.8017L69.947 64.8996L75.3259 61.7974L70.3853 64.8315L75.7685 61.7251L70.713 64.7337L76.0621 61.6442L71.2236 64.6613L76.4153 61.6655L71.4875 64.5762L76.7302 61.5506L72.4109 64.4273L77.5515 61.457L72.9513 64.3379L78.143 61.3421L73.3003 64.2868L78.3473 61.3718L73.4833 64.2485L78.5217 61.3378L73.9854 64.1422L78.9898 61.257L74.7684 64.0145L79.6367 61.2016L75.2748 63.8826L80.1473 61.0655L75.5599 63.8443L80.3516 61.0782L75.9685 63.7677L80.7388 61.0144L76.7344 63.6953L81.5133 60.9378L76.8834 63.6443L81.624 60.908L77.0536 63.6102L81.7261 60.9123L77.2323 63.5804L81.8452 60.9165L77.2025 63.6485L81.8835 60.9463L77.8749 63.5123L82.5644 60.8059L78.2281 63.4272L82.8453 60.7633L78.76 63.3506L83.2581 60.7506L79.4962 63.257L83.9049 60.7122L79.7345 63.257L84.1049 60.7335L80.3814 63.1421L84.7985 60.5931L81.1005 63.0911L85.4794 60.5633L81.4665 63.0996L85.956 60.508L82.3729 62.9123L86.5986 60.4739L82.7814 62.8868L87.0071 60.4484L83.1049 62.874L87.4242 60.3803L83.4964 62.8868L87.7476 60.4314L83.7347 62.8017L87.8284 60.4399L84.0028 62.8059L88.1348 60.4186L84.5049 62.7549L88.7561 60.2995L84.6283 62.7166L88.6284 60.4059L84.8539 62.7251L88.9604 60.3548L85.5305 62.6272L89.5689 60.2952L85.5901 62.674L89.7774 60.2569L86.1347 62.6059L90.2413 60.2356L86.2965 62.6059L90.4072 60.2314L86.8837 62.5336L90.9094 60.2101L87.1986 62.5506L91.1647 60.2612L87.9689 62.4527L91.8243 60.2229L87.9646 62.4698L91.969 60.159L88.2625 62.5208L92.3349 60.1718L88.7476 62.4442L92.7094 60.1548L88.8838 62.4102L92.6328 60.2442L89.4327 62.4485L93.1094 60.3293L89.9689 62.3464L93.4201 60.3548L90.4413 62.3506L93.4541 60.6101L90.4881 62.3974L93.5946 60.6016L91.1477 62.308L93.7393 60.8144L91.0328 62.3974L93.6286 60.8995L91.1221 62.3591L93.7222 60.8569L91.4881 62.3506L93.6201 61.1208L92.3094 62.257L93.735 61.4357L92.3435 62.3166L93.6031 61.5889" stroke="#FF8976" stroke-width="1.41074" stroke-linecap="round" stroke-linejoin="round"/>
<path id="Vector_5" d="M55.6614 67.6443L59.7977 65.257L55.572 67.7252L59.7977 65.2868L55.3465 67.9379L60.0871 65.2017L54.921 68.5124L61.1722 64.9038L55.0273 68.5422L61.4786 64.8144L54.8103 68.9252L62.4191 64.5293L54.589 69.2444L62.917 64.4399L54.4784 69.5039L63.5936 64.2442L54.5635 69.572L64.0404 64.0995L54.5933 69.6316L64.2574 64.0527L54.4869 70.0657L65.3426 63.7974L54.4954 70.4444L57.3764 68.7805L54.4273 70.5423L57.3168 68.8741L54.4571 70.6231L57.1423 69.0699L54.5294 70.7423L56.9168 69.3635L54.4146 70.8146L56.8359 69.4188L54.6358 70.9976L56.5806 69.8742L54.5975 71.1125L56.7678 69.8571L54.7039 71.2104L56.9082 69.938L55.0912 71.3678L57.087 70.2146L55.3976 71.5125L57.5423 70.2742L55.7295 71.6998L57.7764 70.521L55.772 71.7806L58.0189 70.4827L56.0869 71.8955L58.236 70.6529L56.104 72.0061L58.4657 70.6401L56.4402 72.087L58.7679 70.7423L56.3678 72.1593L58.6402 70.8487L56.3976 72.1551L58.7594 70.7891L56.4359 72.2402L58.8743 70.8316L56.7465 72.2147L59.1083 70.8487L56.9466 72.3466L59.3934 70.9338L57.0827 72.4657L59.6232 70.9976L57.4785 72.5296L59.802 71.1891L57.7466 72.6104L60.1169 71.2402L57.9977 72.6998L60.4105 71.3083L58.0572 72.7934L60.6062 71.3253L58.1679 72.8658L60.6488 71.4359L58.6232 72.887L61.0488 71.487L58.5849 72.9168L61.1126 71.4572L58.819 73.0913L61.4573 71.5636L59.3977 73.1083L61.8744 71.6785L59.7466 73.2275L62.4063 71.6912L59.7849 73.2998L62.5169 71.721L60.1892 73.3764L62.8574 71.8359L60.6105 73.4445L63.4702 71.7976L60.9552 73.5764L63.9468 71.8487L61.3041 73.6019L64.2149 71.921L61.5339 73.619L64.351 71.9934L61.4361 73.6956L64.3979 71.9849L61.8659 73.6828L64.7681 72.0061L62.2744 73.7381L65.2192 72.0402L62.3212 73.8658L65.5766 71.9891L62.8446 73.8275L65.9341 72.0402L62.8361 73.8785L66.0107 72.0444L62.9595 73.8828L66.1809 72.0232L63.4489 73.9041L66.5554 72.1083L63.9893 73.9764L67.2277 72.1083L64.2745 74.1126L67.6065 72.1891L64.6915 74.1381L68.2022 72.1083L65.1766 74.0913L68.5937 72.1168L65.6319 74.1679L69.0491 72.1976L65.5809 74.2062L69.2108 72.1125L66.2788 74.1722L69.781 72.1508L66.4107 74.2488L70.0661 72.1381L66.8745 74.2062L70.5427 72.087L67.3341 74.2615L71.0449 72.121L67.3256 74.2786L71.147 72.0742L67.6873 74.2871L71.3683 72.1636L68.1937 74.1892L71.8662 72.07L68.5427 74.2956L72.2534 72.1508L69.2874 74.2232L72.896 72.1381L69.8661 74.1977L73.4407 72.1296L69.981 74.2828L73.7003 72.1338L70.1214 74.2105L73.7641 72.104L70.2066 74.2488L73.879 72.1296L70.3002 74.2658L73.9939 72.1338L70.4406 74.2488L74.1216 72.121L70.9513 74.2658L74.7684 72.0615L71.3002 74.236L75.0918 72.0487L71.8407 74.1977L75.5599 72.053L72.5471 74.1764L76.1046 72.1253L72.4875 74.27L76.2153 72.1168L72.8918 74.2488L76.5812 72.1168L73.0279 74.2317L76.7429 72.087L73.6577 74.2317L77.4025 72.07L74.4833 74.1254L78.0451 72.0657L74.7514 74.2062L78.5473 72.0189L75.445 74.1637L79.1983 71.9976L75.7344 74.1892L79.5345 71.9934L76.0833 74.1296L79.6111 72.0955L76.6366 74.1552L80.292 72.0444L77.1515 74.1594L80.7303 72.0955L77.5174 74.1764L81.1346 72.087L78.0621 74.1552L81.7559 72.0232L78.309 74.1466L81.9814 72.0274L78.4026 74.1296L81.9601 72.0785L78.6919 74.1083L82.3389 72.0061L79.1473 74.1594L82.8623 72.0147L79.8409 74.1168L83.3006 72.1168L80.1984 74.1637L83.7559 72.1125L80.3005 74.1594L83.8751 72.0955L80.5643 74.1977L84.2283 72.0827L81.0367 74.1637L84.7262 72.0359L81.4282 74.0956L84.8709 72.1083L81.8835 74.1764L85.59 72.0359L81.9857 74.1509L85.59 72.07L82.2921 74.1892L85.9901 72.0572L82.5219 74.1935L86.0539 72.1508L83.2325 74.1339L86.7603 72.0998L83.3304 74.1296L86.8454 72.0998L83.3602 74.1935L86.8965 72.1551L83.3389 74.2275L86.9475 72.1423L83.8581 74.2105L87.5944 72.053L84.3006 74.1977L87.8071 72.1721L85.0113 74.1424L88.5646 72.0913L85.4709 74.1722L88.8965 72.1934L86.1092 74.1466L89.654 72.0998L86.0113 74.2488L89.7391 72.0955L86.7305 74.1509L90.1519 72.1721L87.122 74.202L90.5859 72.2019L87.1816 74.1722L90.7519 72.1125L87.0667 74.2488L90.6072 72.2019L87.5092 74.202L91.0838 72.1381L87.8539 74.236L91.4328 72.1721L88.1135 74.2403L91.7434 72.1466L88.1901 74.2317L91.7732 72.1636L88.488 74.236L92.0626 72.1721L88.9518 74.2913L92.5392 72.2189L89.4497 74.2998L93.0626 72.2104L89.654 74.202L93.0286 72.253L89.7263 74.1849L93.0796 72.2487L90.0498 74.1977L93.5265 72.1934L90.22 74.2147L93.6626 72.2274L90.3732 74.2998L93.9478 72.2317L90.6923 74.236L94.1903 72.2147L91.1732 74.2445L94.701 72.2062L91.5775 74.2786L95.0755 72.2615L92.1562 74.2403L95.6329 72.2317L92.2924 74.2573L95.7436 72.2657L92.4498 74.2488L95.7946 72.3168L92.6243 74.2956L96.101 72.287L93.1009 74.3254L96.6032 72.2998L93.6967 74.3552L97.3734 72.2317L94.2456 74.3126L97.6543 72.3423L94.4882 74.3254L98.0883 72.2445L94.6201 74.3722L98.3053 72.2445L94.8329 74.3679L98.4117 72.304L95.0584 74.4105L98.7054 72.3083L95.2967 74.4062L98.9692 72.287L95.5053 74.3594L99.016 72.3338L96.0925 74.3977L99.7777 72.27L96.5861 74.4488L100.242 72.3423L97.2968 74.3722L100.85 72.3211L97.7692 74.3849L101.378 72.2998L98.1734 74.453L101.791 72.3679L98.8288 74.4105L102.237 72.4445L99.433 74.419L102.846 72.4487L99.6118 74.5041L103.182 72.4402L100.195 74.4658L103.608 72.4955L100.782 74.5126L104.254 72.5083L101.037 74.5381L104.62 72.47L101.433 74.5211L104.752 72.6104L101.82 74.5296L105.203 72.5764L102.378 74.4828L105.603 72.6232L102.595 74.5807L105.906 72.67L102.795 74.5594L106.148 72.6232L102.965 74.4998L106.042 72.7253L102.999 74.5381L106.101 72.7466L103.046 74.5637L106.365 72.6487L103.178 74.6105L106.51 72.687L103.723 74.5339L106.744 72.7891L103.88 74.6062L106.948 72.8402L104.208 74.5935L107.34 72.7849L104.535 74.6828L107.54 72.9509L105.025 74.6445L107.863 73.0062L105.178 74.636L108.093 72.9551L105.284 74.6701L108.191 72.9934L105.825 74.7169L108.565 73.1338L106.093 74.7679L108.91 73.1424L106.225 74.7594L108.957 73.1807L106.586 74.8275L109.399 73.2019L106.978 74.8956L109.68 73.3338L107.097 74.853L109.604 73.4062L107.199 74.9254L109.901 73.3679L107.467 74.9467L110.008 73.4785L107.812 75.1211L110.536 73.5509L108.033 75.0531L110.574 73.5849L107.944 75.1297L110.497 73.6573L108.208 75.1169L110.706 73.6743L108.318 75.202L110.791 73.7722L108.748 75.202L111.199 73.7892L108.667 75.3297L111.225 73.853L108.94 75.2658L111.344 73.8785L109.174 75.4275L111.667 73.9849L109.676 75.5169L111.91 74.2275L109.812 75.6531L112.199 74.27L110.008 75.6275L112.285 74.3169L110.242 75.6488L112.433 74.3849L110.54 75.8318L112.621 74.6275L110.587 75.8616L112.68 74.653L110.838 75.9807L112.982 74.7467L111.11 75.985L113.097 74.836L111.084 76.1382L113.085 74.985L111.323 76.1425L113.285 75.0105L111.399 76.3425L113.302 75.2446L111.676 76.5084L113.527 75.4446L111.944 76.7254L113.812 75.6446L112.097 76.7425L113.829 75.7424L112.136 76.968L113.829 75.9893L112.093 77.2446L113.927 76.1893L112.165 77.4872L114.174 76.3297L111.961 77.8276L114.148 76.5637L112.067 77.7851L114.208 76.5467L112.11 77.7765L114.208 76.5637" stroke="#FF8976" stroke-width="1.41074" stroke-linecap="round" stroke-linejoin="round"/>
<path id="Vector_6" d="M128.97 29.0643C128.013 19.8384 122.306 11.8935 114.123 7.31462C108.957 3.30172 102.472 0.910156 95.4245 0.910156C81.0708 0.910156 69.0406 10.8169 65.7767 24.1662C64.5894 27.1961 63.9383 30.4643 63.9383 33.8729C63.9383 49.7075 77.8962 62.5462 95.1138 62.5462C95.6372 62.5462 96.1564 62.5335 96.6756 62.5079C97.1947 62.5335 97.7139 62.5462 98.2373 62.5462C115.455 62.5462 129.413 49.7075 129.413 33.8729C129.413 32.2346 129.255 30.6303 128.97 29.0643Z" fill="#FBDED8"/>
<path id="Vector_7" d="M80.3983 7.62964L81.6196 6.92749L80.1898 7.82539L81.6452 6.98281L80.1983 7.91476L81.7856 6.99983L80.1132 8.18711L81.9601 7.12324L79.9345 8.48499L82.1899 7.17856L80.0281 8.56584L82.2494 7.28069L79.8834 8.8084L82.1984 7.47219L79.8366 8.91053L82.3048 7.48921L79.6962 9.08501L82.2494 7.60836L79.7174 9.22969L82.292 7.74028L79.6281 9.60843L82.3856 8.01689L79.4749 10.0765L82.3388 8.42116L79.4196 10.3404L82.1899 8.74032L79.3855 10.4808L81.9898 8.97862L79.2578 10.5957L81.9516 9.04245L79.2195 10.6468L81.9218 9.08926L79.3047 10.7872L81.8494 9.32331L79.3004 10.9149L81.7686 9.49353L79.1983 11.3106L81.7941 9.81269L79.011 11.651L81.5345 10.1957L79.0153 12.0128L81.3856 10.6468L78.9983 12.1532L81.5005 10.7063L78.8578 12.4766L81.292 11.0723L78.8366 12.6553L81.2451 11.2638L78.9132 12.8936L81.1303 11.6127L78.8238 13.2298L81.1515 11.8851L78.7259 13.4171L81.1941 11.9872L78.7344 13.7022L81.0111 12.3872L78.794 13.7362L81.126 12.3915L78.7217 13.8681L81.0834 12.5064L78.811 14.1958L81.0366 12.9107L78.6451 14.6597L80.96 13.3234L78.7131 14.6469L80.8536 13.4128L78.7983 14.6299L80.9515 13.3915L78.7685 14.898L80.9217 13.6511L78.6919 15.2299L80.7856 14.0213L78.6025 15.5065L80.7983 14.2384L78.6238 15.6895L80.7387 14.4682L78.7429 15.8937L80.7728 14.7192L78.6791 16.0257L80.6749 14.8724L78.6706 16.081L80.7302 14.8937L78.6153 16.2725L80.7345 15.0512L78.6536 16.5704L80.8026 15.332L78.76 16.847L80.8409 15.6427L78.8068 17.2044L80.7345 16.0937L78.7983 17.4342L80.7685 16.298L78.7727 17.63L80.777 16.4767L78.7812 17.8895L80.8366 16.7065L78.8195 18.1449L80.7004 17.0555L78.7812 18.1832L80.6962 17.0768L78.8068 18.3236L80.8324 17.1534L78.8578 18.3832L80.7004 17.3193L78.7514 18.4598L80.726 17.3193L78.777 18.4555L80.76 17.3108L78.8834 18.4385L80.8026 17.3278L78.8791 18.5279L80.7132 17.4683L78.7727 18.813L80.7473 17.6725L78.7812 18.8981L80.7387 17.7704L78.7727 19.0938L80.8707 17.8853L78.9344 19.1832L80.8451 18.081L78.9429 19.447L80.8153 18.3662L78.8919 19.7194L80.8324 18.6002L79.011 19.9705L80.9005 18.8811L78.8876 20.0726L80.8451 18.9406L79.0153 20.3322L80.926 19.23L79.0366 20.596L81.0154 19.4513L79.0834 20.6896L81.0239 19.5662L79.1259 20.8216L80.9771 19.7534L79.1472 20.9365L81.0026 19.8641L79.1727 21.0428L80.943 20.0215L79.0791 21.1152L81.1047 19.9449L79.1089 21.1663L81.1388 19.996L79.1089 21.4429L81.0579 20.3152L79.2238 21.762L81.1303 20.6599L79.2153 21.8131L81.2111 20.6599L79.3047 21.9407L81.0877 20.9109L79.2578 21.979L81.1771 20.8726L79.3217 22.3195L81.3473 21.1492L79.394 22.4174L81.3771 21.2726L79.3855 22.6855L81.2877 21.5875L79.4664 22.7578L81.4366 21.6173L79.4493 23.0429L81.4877 21.8641L79.577 23.145L81.3898 22.0982L79.6791 23.4685L81.4834 22.4301L79.7345 23.5876L81.4579 22.5961L79.594 23.7323L81.5047 22.6259L79.6493 23.7365L81.5601 22.6344L79.6876 23.7876L81.4877 22.7493L79.6834 23.9153L81.492 22.8727L79.6706 24.1834L81.5771 23.0812L79.8111 24.4089L81.7984 23.2599L79.7728 24.6557L81.6579 23.5663L79.8494 24.8345L81.7005 23.7663L79.8749 25.0643L81.9388 23.8685L80.0706 24.9749L81.8622 23.9408L80.1515 25.294L81.943 24.26L80.1515 25.5749L82.0707 24.4685L80.1643 25.9068L82.1686 24.7536L80.2919 26.0473L82.126 24.9919L80.343 26.0515L82.2282 24.9621L80.2962 26.392L82.1175 25.3409L80.4111 26.6473L82.2835 25.5664L80.4153 26.9622L82.4111 25.8132L80.5515 27.209L82.4494 26.1154L80.7302 27.4686L82.5729 26.4047L80.6962 27.6728L82.5686 26.592L80.8451 27.7792L82.6367 26.7452L80.7302 28.0643L82.6537 26.9537L80.8324 28.1239L82.6239 27.0898L80.8919 28.158L82.7686 27.0728L80.8707 28.2644L82.7941 27.1494L80.8579 28.4048L82.8112 27.2771L80.9005 28.5367L82.7899 27.4431L80.9473 28.6601L82.892 27.5367L81.1473 28.7367L82.9856 27.6771L81.143 28.8516L82.858 27.8558L81.0877 29.0346L83.0622 27.8941L81.2324 29.0474L82.909 28.0771L81.2834 29.1793L83.0112 28.1835L81.2239 29.324L82.9984 28.2984L81.2834 29.4729L83.1218 28.4133L81.2622 29.5155L83.1558 28.4218L81.4026 29.707L83.2878 28.6176L81.3473 29.8346L83.1941 28.7665L81.3813 29.9112L83.292 28.8091L81.4239 30.2261L83.4069 29.0771L81.5558 30.1836L83.4069 29.1154L81.5303 30.3836L83.4963 29.2474L81.7515 30.5666L83.4835 29.5665L81.743 30.9155L83.5048 29.8984L81.8281 30.8815L83.6027 29.8516L81.8579 31.2219L83.7771 30.1112L81.8962 31.4985L83.7474 30.4346L81.9303 31.5028L83.7176 30.4729L82.0324 31.5581L83.7771 30.5495L82.1218 31.6347L83.8282 30.6474L82.1303 31.9666L84.0665 30.8474L82.2792 32.1241L84.024 31.1155L82.3303 32.1241L84.1431 31.073L82.3558 32.3751L84.1899 31.3113L82.3005 32.4347L84.092 31.4006L82.4622 32.6517L84.241 31.6262L82.5175 32.7794L84.3261 31.7368L82.4537 32.89L84.3984 31.7666L82.5558 32.9156L84.2708 31.9283L82.6665 33.09L84.3304 32.1283L82.6707 33.2262L84.4495 32.1964L82.6622 33.2815L84.5048 32.2177L82.7558 33.2603L84.3899 32.3155L82.8537 33.5071L84.5006 32.5581L82.858 33.7879L84.6708 32.7411L82.9941 33.9624L84.824 32.9071L82.9644 34.2475L84.8665 33.1496L83.2027 34.4816L84.8878 33.5113L83.3856 34.7624L85.1602 33.7369L83.2878 34.9454L85.1091 33.8943L83.4197 35.1625L85.2197 34.1241L83.6452 35.405L85.3091 34.4475L83.692 35.4348L85.3304 34.4901L83.7346 35.7029L85.5176 34.6731L83.7857 35.8178L85.4963 34.8305L83.8623 35.971L85.6198 34.9539L84.0452 36.154L85.8198 35.1284L84.1559 36.4348L85.8623 35.4518L84.1091 36.6689L85.9815 35.588L84.3091 36.9285L86.1432 35.8689L84.475 37.0221L86.2113 36.0221L84.5814 37.32L86.3219 36.3114L84.5559 37.6051L86.5049 36.4816L84.641 37.8264L86.424 36.7965L84.8623 37.8179L86.6326 36.7965L84.7516 37.903L86.624 36.8221L84.7814 37.954L86.6411 36.8817L84.8282 38.103L86.6836 37.0306L84.807 38.1328L86.6623 37.0604L85.0623 38.3498L86.8709 37.3029L85.0282 38.3923L86.9177 37.2987L85.1304 38.4732L86.8751 37.4689L85.1729 38.5285L86.9432 37.5072L85.1729 38.6562L86.9772 37.6136L85.1261 38.703L86.9602 37.6434L85.2538 38.7285L87.0836 37.6689L85.2921 38.8945L87.0921 37.8604L85.4112 39.1243L87.2283 38.0774L85.6793 39.2179L87.4539 38.1923L85.6325 39.3754L87.4241 38.3413L85.7985 39.5966L87.6794 38.5115L85.8836 39.703L87.722 38.6392L86.0751 39.8775L87.7177 38.9285L85.9602 40.1371L87.9347 38.9966L86.1389 40.1456L87.922 39.1158L86.0666 40.2477L88.0198 39.1158L86.1942 40.4733L88.0837 39.3839L86.5347 40.6435L88.2156 39.6732L86.5006 40.6775L88.3135 39.6307L86.4964 40.9286L88.4198 39.8179L86.6794 41.1924L88.539 40.1201L86.7517 41.3541L88.6539 40.2562L86.8496 41.435L88.8156 40.2988L86.8411 41.4903L88.8113 40.3541L87.0326 41.6393L88.8539 40.5882L87.2113 41.7031L88.9986 40.669L87.3049 42.035L89.1901 40.9499L87.5517 42.1286L89.3646 41.0818L87.5219 42.1542L89.2624 41.1541L87.5475 42.4052L89.4922 41.2818L87.7049 42.3669L89.4199 41.3754L87.756 42.5457L89.6369 41.4605L87.8581 42.618L89.5944 41.618L87.9092 42.635L89.6667 41.6222L87.8411 42.8819L89.7986 41.7542L88.0709 42.8989L89.8837 41.852L88.1603 43.0436L89.8965 42.0393L88.0752 43.1116L89.9944 42.0052L88.122 43.1159L89.8624 42.1116L88.2496 43.1287L89.9901 42.1201L88.1347 43.2478L90.0625 42.1329L88.3688 43.367L90.2454 42.2818L88.5475 43.5031L90.3008 42.4904L88.5518 43.8053L90.3561 42.7627L88.7986 43.8181L90.5944 42.7797L88.9007 44.1457L90.7944 43.0521L89.1177 44.201L90.8965 43.1755L88.9901 44.35L90.8199 43.2946L89.105 44.4734L91.0284 43.3585L89.3731 44.6777L91.2285 43.6095L89.4241 44.8692L91.2455 43.8181L89.6284 44.9457L91.5391 43.8436L89.6965 45.1287L91.5561 44.0521L89.8752 45.2649L91.7731 44.167L90.0327 45.4181L91.7902 44.4053L90.1646 45.6139L92.0242 44.5415L90.2582 45.6053L92.0668 44.5628L90.3391 45.9458L92.3689 44.7755L90.5689 45.933L92.3306 44.9202L90.4795 45.9968L92.2881 44.95L90.654 46.1458L92.5604 45.0436L90.7603 46.0947L92.5179 45.0777L90.8795 46.2266L92.5987 45.2351L90.7901 46.3415L92.6753 45.2521L91.0667 46.3926L92.8668 45.3543L91.2285 46.6096L93.0753 45.5458L91.1306 46.7543L93.0923 45.6224L91.271 46.8735L93.186 45.7671L91.488 46.8352L93.254 45.8181L91.6412 46.9799L93.403 45.9628L91.671 47.2139L93.7264 46.0266L91.9263 47.3926L93.8456 46.282L92.071 47.3373L93.9519 46.2522L92.3136 47.5246L94.186 46.4437L92.2285 47.665L94.2328 46.5075L92.3604 47.7884L94.3775 46.6224L92.5519 47.8948L94.4754 46.7841L92.9519 48.0522L94.9307 46.9075L93.0413 48.1671L94.8754 47.1118L93.1902 48.3373L95.2073 47.1714L93.237 48.3246L95.1179 47.2394L93.3902 48.4778L95.4796 47.2692L93.5307 48.5501L95.5477 47.3841L93.7307 48.6523L95.6158 47.5629L93.8583 48.7501L95.752 47.6565L93.9349 48.7629L95.7903 47.6948L94.0413 49.065L96.1222 47.8607L94.3222 49.1289L96.2286 48.0267L94.403 49.2736L96.1435 48.2693L94.4881 49.2565L96.1222 48.3161L94.8115 49.3501L96.2371 48.5246L94.7732 49.465L96.1775 48.6565" stroke="#FF8976" stroke-width="1.41074" stroke-linecap="round" stroke-linejoin="round"/>
<path id="Vector_8" d="M87.7008 3.79538L89.0327 3.02515L87.7603 3.889L88.9987 3.17409L87.7263 4.12731L89.2029 3.27196L87.5305 4.44647L89.3476 3.39537L87.4029 4.82946L89.5519 3.59112L87.4029 5.2082L89.7434 3.85922L87.3646 5.43374L89.82 4.01667L87.2284 5.8763L89.654 4.47626L87.3688 5.80396L89.6838 4.46775L87.1093 6.22951L89.7306 4.71456L87.0624 6.56143L89.5476 5.12734L87.1816 6.61675L89.5944 5.22522L87.0412 7.07634L89.3561 5.74438L87.0114 7.16571L89.3944 5.79119L87.0624 7.24656L89.3817 5.91035L86.9944 7.42103L89.2795 6.10184L86.9603 7.51891L89.3391 6.14865L86.8624 7.89765L89.3817 6.44654L86.9135 8.11467L89.2966 6.74016L86.8284 8.18276L89.2881 6.76569L86.8071 8.51043L89.1561 7.1572L86.9178 8.45937L89.0753 7.21252L86.7348 8.78278L89.0838 7.42955L86.8071 8.85087L89.2072 7.46359L86.7518 9.25088L89.0497 7.92318L86.8667 9.19982L89.0029 7.96999L86.7092 9.43387L89.0497 8.08063L86.7688 9.68494L89.054 8.36575L86.6752 9.95303L88.8966 8.66788L86.688 10.0722L88.8795 8.80831L86.5943 10.4296L88.837 9.13598L86.6667 10.6637L88.888 9.3828L86.5901 11.0552L88.8327 9.75728L86.6071 11.285L88.8157 10.0126L86.5007 11.4637L88.8029 10.136L86.5433 11.7659L88.7178 10.5105L86.5688 11.9659L88.8412 10.6552L86.6454 12.0978L88.6455 10.9403L86.6326 12.4935L88.5987 11.3573L86.5603 12.6467L88.7093 11.4041L86.4922 12.9659L88.7689 11.651L86.5348 13.1361L88.7263 11.868L86.4582 13.2936L88.6923 12.0042L86.5305 13.4297L88.7093 12.1744L86.5858 13.7191L88.7391 12.4723L86.539 13.9106L88.5391 12.7574L86.6199 14.0638L88.6582 12.8893L86.5816 14.3106L88.6285 13.1276L86.505 14.4894L88.6199 13.2638L86.4369 14.8128L88.6327 13.5446L86.505 15L88.688 13.7361L86.6156 15.1489L88.6242 13.9872L86.6454 15.4043L88.5731 14.2893L86.5518 15.8341L88.7136 14.5872L86.6709 16.1362L88.5646 15.0426L86.6667 16.1915L88.5646 15.0936L86.5177 16.383L88.5731 15.1958L86.6412 16.3532L88.7221 15.1532L86.5603 16.7618L88.6157 15.5745L86.7305 17.0384L88.7348 15.8809L86.6539 17.1235L88.6157 15.9915L86.6667 17.2554L88.6029 16.1362L86.6071 17.5192L88.6795 16.3235L86.6114 17.715L88.6327 16.549L86.7348 17.8852L88.7306 16.7362L86.6539 18.0341L88.8327 16.7745L86.7858 18.0767L88.7306 16.9533L86.7518 18.2299L88.6838 17.115L86.8497 18.1831L88.7604 17.0809L86.7603 18.2937L88.6965 17.1788L86.6667 18.4384L88.7221 17.2511L86.739 18.4129L88.8668 17.1873L86.7263 18.515L88.7902 17.3235L86.8752 18.4427L88.688 17.3958L86.8284 18.7576L88.7519 17.6469L86.7646 19.1321L88.7689 17.9746L86.8667 19.2725L88.8114 18.149L86.9901 19.5448L88.9774 18.3959L86.8709 19.6895L88.8497 18.5448L86.888 19.9321L88.8668 18.7874L87.0497 19.9831L88.9434 18.8852L87.0454 20.1576L88.9731 19.0469L86.9858 20.481L89.0029 19.315L87.1348 20.4002L88.8966 19.3831L87.1433 20.7576L88.9859 19.698L87.0114 21.0385L89.0412 19.8683L87.2369 21.2853L89.0583 20.2342L87.2539 21.4257L89.1732 20.3151L87.1901 21.7024L89.2583 20.5066L87.3646 21.8683L89.1093 20.8598L87.2795 22.2811L89.3008 21.1151L87.3688 22.6003L89.2838 21.4938L87.5178 22.7875L89.42 21.6896L87.4965 23.1194L89.5391 21.9407L87.4752 23.1705L89.3519 22.0896L87.5901 23.4513L89.5476 22.3237L87.6837 23.5322L89.5221 22.4726L87.6923 23.8769L89.5859 22.7875L87.7433 23.928L89.6668 22.8173L87.6284 24.0386L89.6796 22.8556L87.6625 24.1152L89.6327 22.9747L87.7944 24.3024L89.6157 23.2513L87.7689 24.4429L89.7987 23.2726L87.9646 24.6514L89.8498 23.562L88.0157 24.7705L89.8327 23.7194L88.0412 25.0982L89.9817 23.9748L88.0369 25.1365L89.8115 24.1109L87.9518 25.311L90.0115 24.1237L88.1178 25.3961L90.0583 24.2769L88.1178 25.4557L89.9604 24.3918L88.1774 25.5748L90.1094 24.4599L88.2753 25.8982L90.0625 24.8684L88.2582 25.9621L90.1221 24.8897L88.2965 26.1876L90.2625 25.0557L88.3604 26.4131L90.2157 25.345L88.3561 26.4557L90.2668 25.3493L88.4667 26.6259L90.2328 25.6089L88.4497 26.8259L90.3179 25.7493L88.6838 27.0642L90.5349 25.9961L88.5561 27.3281L90.5817 26.1578L88.6157 27.3323L90.4072 26.294L88.8029 27.5579L90.6881 26.4685L88.8199 27.843L90.6285 26.8004L88.8327 28.0515L90.7732 26.9323L88.9987 28.0855L90.7136 27.094L88.9178 28.1621L90.6838 27.1408L89.0114 28.1323L90.7094 27.1493L89.0966 28.3409L90.9009 27.2983L89.0966 28.6132L90.9732 27.5281L89.2157 28.6345L90.9519 27.6302L89.1391 28.8558L90.9221 27.826L89.1561 29.009L91.0328 27.9281L89.3391 29.0345L91.1222 28.0047L89.1817 29.1664L91.02 28.1026L89.3561 29.3749L91.1136 28.3579L89.5008 29.6728L91.2541 28.66L89.4838 29.8984L91.2924 28.8558L89.654 30.0218L91.4924 28.9622L89.6285 30.0899L91.4413 29.043L89.7561 30.3197L91.6115 29.2473L89.7987 30.3835L91.6626 29.3069L89.7179 30.5282L91.5988 29.443L89.9604 30.609L91.803 29.5452L90.0072 30.8729L91.7477 29.8686L90.0625 30.8729L91.7137 29.9196L90.1987 31.158L91.952 30.1494L90.1094 31.5112L91.9307 30.4558L90.3519 31.6431L92.0966 30.6346L90.4328 31.9325L92.3222 30.8431L90.3945 32.0218L92.2371 30.958L90.4328 32.2176L92.3435 31.1154L90.5477 32.4048L92.4669 31.2984L90.6966 32.4857L92.4669 31.4601L90.6923 32.7282L92.5265 31.6686L90.8243 32.8985L92.6073 31.8686L90.8924 33.1878L92.7775 32.0984L91.0626 33.1112L92.7733 32.124L91.0668 33.4432L92.8711 32.4006L91.2839 33.5453L93.0243 32.541L91.3392 33.6389L93.1733 32.5836L91.3094 34.0134L93.1435 32.958L91.5605 34.2049L93.3946 33.1453L91.5732 34.3453L93.3775 33.3027L91.8073 34.5198L93.4627 33.5623L91.769 34.7411L93.7095 33.6219L91.986 34.9794L93.6627 34.0091L91.9179 35.1964L93.7478 34.1368L92.1094 35.3156L93.9605 34.2432L92.2413 35.5454L94.101 34.473L92.3009 35.7369L94.2542 34.6092L92.3605 35.9071L94.2882 34.7964L92.552 35.9624L94.301 34.9496L92.4499 36.1709L94.2925 35.107L92.7733 36.2688L94.5265 35.256L92.8541 36.422L94.6201 35.4007L92.9094 36.6986L94.6584 35.69L93.0073 36.7284L94.735 35.7326L93.0797 37.0688L95.0329 35.9411L93.2414 37.0773L94.9904 36.0688L93.2797 37.4263L95.1521 36.3454L93.518 37.6731L95.301 36.6433L93.569 37.7752L95.4244 36.7028L93.5733 38.0646L95.4074 37.005L93.8201 38.2433L95.5819 37.2263L94.0627 38.4518L95.8032 37.4475L94.0967 38.8008L96.0117 37.6944L94.335 38.9029L96.1223 37.8688L94.3265 38.954L96.1691 37.8901L94.352 38.954L96.1691 37.9071L94.3435 39.137L96.1181 38.1114L94.4244 39.154L96.3181 38.0603L94.3733 39.2263L96.3266 38.0986L94.5691 39.4391L96.3947 38.388L94.5776 39.5838L96.433 38.5114L94.6712 39.588L96.5989 38.4731L94.8116 39.8732L96.6755 38.7965L94.7818 39.9327L96.7479 38.8008L94.9861 39.8817L96.8032 38.8348L95.0627 40.0221L96.9436 38.937L95.1734 40.1242L96.8755 39.1412L95.1904 40.3796L97.1266 39.2646L95.1904 40.5328L97.1862 39.3795L95.3734 40.7285L97.2245 39.6604L95.6074 40.8391L97.2968 39.8646L95.7053 41.0477L97.4415 40.0476L95.8755 41.1668L97.6926 40.1157L95.8585 41.3115L97.6458 40.2817L96.0244 41.503L97.8968 40.4221L96.0457 41.5711L97.8713 40.52L96.1989 41.6094L98.0075 40.5668L96.1308 41.737L98.0202 40.6477L96.2415 41.7498L98.0373 40.7115L96.2925 41.8519L98.0245 40.8519L96.3308 41.9115L98.1947 40.8349L96.5011 42.1626L98.3607 41.0902L96.5351 42.3924L98.4373 41.2945L96.7989 42.4052L98.5522 41.3966L96.7777 42.7201L98.6458 41.6434L96.9309 42.886L98.8203 41.7924L97.084 43.1413L98.9352 42.069L97.2075 43.2733L99.0628 42.2009L97.3777 43.3967L99.165 42.3626L97.5819 43.4988L99.4501 42.4179L97.6287 43.8392L99.4756 42.7711L97.8628 44.0478L99.782 42.9413L98.0117 44.1073L99.782 43.086L98.2203 44.2733L99.9735 43.2605L98.3862 44.4988L100.144 43.4818L98.3947 44.6903L100.356 43.5541L98.399 44.801L100.382 43.652L98.6671 44.784L100.48 43.7371L98.7607 45.1116L100.68 44.0052L98.9011 45.1967L100.739 44.1371L98.9267 45.3414L100.778 44.2733L98.9862 45.3925L100.842 44.3201L98.9522 45.4436L100.846 44.3499L99.1735 45.6606L101.003 44.6052L99.2416 45.6989L101.037 44.6648L99.3522 45.8521L101.28 44.7414L99.6331 46.018L101.522 44.9286L99.5522 46.167L101.522 45.0308L99.8033 46.2266L101.659 45.1542L99.799 46.4564L101.629 45.401L100.144 46.6223L101.927 45.5882L100.259 46.6947L101.957 45.7159L100.203 46.9159L102.059 45.8436L100.437 47.0479L102.237 46.0095L100.463 47.2053L102.433 46.0691L100.557 47.3543L102.488 46.2393L100.582 47.3543L102.501 46.2478L100.752 47.4394L102.676 46.3287L101.037 47.6181L102.923 46.5287L101.152 47.8904L103.11 46.7585L101.169 48.0436L103.157 46.8947L101.522 48.2096L103.289 47.1883L101.68 48.3245L103.425 47.316L101.531 48.4436L103.561 47.2691L101.786 48.4309L103.557 47.4096L101.871 48.7713L103.735 47.6947L101.999 48.9245L103.944 47.8011L102.042 48.9841L103.952 47.8819L102.276 48.933L104.025 47.9245L102.374 49.2522L104.293 48.1458L102.616 49.3075L104.348 48.3075L102.629 49.6182L104.616 48.4692L102.757 49.5671L104.54 48.5373L103.059 49.7799L104.774 48.7883L103.144 49.9543L104.978 48.8947L103.301 50.2224L105.127 49.1671L103.454 50.3629L105.442 49.2139L103.625 50.6267L105.535 49.5288L103.642 50.6863L105.663 49.5245L103.723 50.7161L105.676 49.5884L103.752 50.7331L105.663 49.6309L103.791 50.7586L105.672 49.6735L104.114 50.9586L106.042 49.8437L104.246 51.1118L106.076 50.0565L104.323 51.2012L106.272 50.0735L104.352 51.2352L106.306 50.1075L104.403 51.3331L106.242 50.2735L104.459 51.4054L106.425 50.2692L104.655 51.5203L106.616 50.3884L104.855 51.665L106.65 50.631L104.872 51.6906L106.799 50.5756L104.982 51.831L106.765 50.8054L105.093 52.0182L107.072 50.8735L105.246 52.2438L107.191 51.1203L105.382 52.2523L107.259 51.1671L105.48 52.214L107.314 51.1501L105.586 52.4608L107.527 51.3459L105.842 52.5629L107.71 51.4863L105.974 52.7246L107.748 51.7033L106.114 52.9672L108.033 51.8608L106.212 53.0438L108.208 51.8906L106.306 53.197L108.391 51.9884L106.68 53.3289L108.535 52.2565L106.604 53.4693L108.548 52.3459L106.931 53.5459L108.701 52.5204L106.995 53.58L108.88 52.4906L107.042 53.6225L108.85 52.58L107.135 53.8736L109.123 52.7246L107.289 53.8311L109.042 52.8183L107.472 53.9885L109.378 52.8863L107.467 54.1672L109.348 53.0778L107.659 54.2098L109.612 53.0821L107.65 54.4098L109.787 53.1757L107.927 54.4183L109.727 53.38L107.906 54.563L109.812 53.4608L108.212 54.6524L110.038 53.597L108.204 54.8141L110.182 53.6736L108.455 54.9077L110.331 53.8225L108.535 54.8992L110.357 53.8481L108.599 54.98L110.536 53.8651L108.582 55.1162L110.642 53.9289L108.787 55.2822L110.914 54.0523L108.953 55.4226L110.974 54.2566L109.097 55.3545L111.127 54.1843L109.097 55.4992L111.076 54.3587L109.395 55.7077L111.45 54.5204L109.425 55.746L111.544 54.5247L109.816 55.8864L111.68 54.8098L109.778 56.0013L111.919 54.7673L109.859 56.0226L111.982 54.797L110.119 56.0737L112.068 54.9502L110.042 56.1333L112.17 54.9034L110.17 56.2737L112.323 55.0311L110.327 56.3971L112.506 55.1375L110.714 56.5035L112.757 55.3205L110.778 56.729L112.914 55.4949L111.085 56.7971L112.982 55.7035L111.25 56.9418L113.212 55.8098L111.263 57.0099L113.272 55.8481L111.574 57.0397L113.242 56.0737L111.778 57.1673L113.17 56.3631L111.697 57.312L113.127 56.4865L111.957 57.2269L113.259 56.4737L111.906 57.3205L113.263 56.5375" stroke="#FF8976" stroke-width="1.41074" stroke-linecap="round" stroke-linejoin="round"/>
<path id="Vector_9" d="M93.5306 8.05519L94.8966 7.26367L93.6285 8.32754L95.186 7.42963L93.5647 8.54031L95.2499 7.56581L93.4711 8.91905L95.4456 7.78284L93.42 9.13607L95.6626 7.84241L93.5732 9.05096L95.569 7.90199L93.3817 9.30204L95.5137 8.06795L93.5136 9.38289L95.6626 8.14455L93.4583 9.53609L95.5392 8.33605L93.4583 9.7446L95.7222 8.43818L93.5306 9.97014L95.6499 8.74457L93.3775 10.2425L95.6328 8.94032L93.3775 10.3914L95.6754 9.06373L93.3817 10.6468L95.6584 9.33182L93.3902 10.8723L95.6243 9.5829L93.3604 10.8978L95.6328 9.5829L93.437 11.051L95.4499 9.88929L93.4838 11.2723L95.6243 10.0382L93.4455 11.6L95.5818 10.3659L93.4455 11.7319L95.4754 10.5574L93.3689 11.8511L95.4924 10.6255L93.403 11.8468L95.586 10.5872L93.3519 12.1106L95.5222 10.8553L93.2796 12.2255L95.4371 10.9787L93.3434 12.5617L95.4626 11.3404L93.3689 12.583L95.4499 11.3787L93.3221 12.6638L95.5648 11.3702L93.3221 12.6979L95.5435 11.417L93.3987 12.9532L95.4413 11.7787L93.3987 13.1192L95.5009 11.9064L93.3732 13.4596L95.569 12.1957L93.5179 13.749L95.5265 12.5873L93.4966 13.9447L95.386 12.8553L93.4243 14.3533L95.5222 13.1447L93.4796 14.3873L95.5605 13.1873L93.3945 14.7277L95.5818 13.4681L93.5434 14.6639L95.4541 13.566L93.5264 14.7448L95.4371 13.6383L93.4753 14.7916L95.5307 13.6043L93.4455 15.1192L95.6158 13.8681L93.5775 15.3916L95.4626 14.3022L93.603 15.6554L95.4626 14.5831L93.5562 16.0512L95.5094 14.9235L93.5179 16.3448L95.5562 15.1661L93.5221 16.5533L95.6924 15.3022L93.7221 16.6044L95.6158 15.5108L93.603 17.0002L95.7477 15.7618L93.6413 17.1917L95.7477 15.9746L93.7264 17.281L95.7605 16.1065L93.8158 17.447L95.6924 16.3661L93.637 17.6172L95.7648 16.3916L93.803 17.647L95.7052 16.5491L93.8711 17.7364L95.7648 16.6427L93.7136 18.1364L95.6711 17.0044L93.9009 18.413L95.8201 17.3023L93.82 18.4853L95.9094 17.2768L93.9051 18.7577L95.7605 17.6853L93.9604 18.8598L95.8031 17.7959L93.9094 19.0726L95.9052 17.9193L94.0711 19.2726L95.9137 18.2087L94.037 19.4002L95.8541 18.3534L94.0668 19.7024L95.9435 18.6172L94.0328 20.0556L96.0584 18.8853L94.2668 20.2343L96.0626 19.2002L94.1264 20.4173L96.0584 19.3024L94.1605 20.6045L96.1137 19.4811L94.2243 20.6216L96.1733 19.4939L94.3307 20.7322L96.2031 19.6513L94.3264 21.0428L96.3095 19.8981L94.3179 21.1875L96.2286 20.0811L94.3775 21.2939L96.1946 20.2428L94.4115 21.4429L96.2924 20.362L94.4711 21.6854L96.4456 20.545L94.5392 21.7024L96.2967 20.6854L94.4073 21.8386L96.369 20.7067L94.4668 21.9833L96.535 20.7875L94.6073 22.2301L96.5222 21.1194L94.769 22.4642L96.6627 21.3705L94.7094 22.5578L96.5733 21.4812L94.7605 22.5408L96.6797 21.4343L94.7945 22.6386L96.5776 21.6088L94.7179 22.7876L96.7307 21.6258L94.9137 22.9621L96.7563 21.8982L94.986 23.2557L96.7988 22.2088L94.8626 23.4685L96.7393 22.3833L94.8966 23.6174L96.8499 22.4897L95.0924 23.6429L96.8116 22.6472L95.0839 23.7791L96.8712 22.7493L95.0839 23.8557L96.9478 22.7791L95.0796 24.1578L96.9988 23.0514L95.2328 24.1153L97.0925 23.0429L95.3094 24.4004L97.1265 23.3536L95.135 24.5323L97.0925 23.4004L95.369 24.7749L97.0754 23.7919L95.2754 25.0302L97.2031 23.9195L95.5009 25.2643L97.3691 24.1834L95.4796 25.3409L97.3563 24.2557L95.5009 25.5834L97.4882 24.4387L95.552 25.8302L97.3989 24.7664L95.7052 26.043L97.6074 24.9408L95.8201 26.2388L97.5435 25.243L95.969 26.5026L97.6542 25.5281L95.8328 26.6047L97.6882 25.5324L95.8712 26.626L97.6627 25.5919L95.8584 26.792L97.7733 25.6856L96.0669 26.8388L97.8457 25.8132L96.0754 27.1367L98.0031 26.0217L96.118 27.1282L98.0329 26.026L96.1605 27.2473L97.8882 26.2515L96.3009 27.5537L98.1563 26.4813L96.3988 27.8856L98.2797 26.7962L96.4967 28.1324L98.267 27.1111L96.5435 28.4048L98.4414 27.3111L96.5733 28.4899L98.3563 27.4643L96.7648 28.5112L98.4627 27.5282L96.8627 28.8176L98.5266 27.8516L96.8967 29.1027L98.6797 28.0729L96.8967 29.1112L98.7521 28.0388L96.9776 29.1112L98.6755 28.1282L97.0031 29.175L98.6797 28.2048L96.9691 29.375L98.9053 28.2558L96.935 29.4091L98.8627 28.2984L97.0754 29.5197L98.9861 28.4133L97.0627 29.6219L98.8415 28.592L97.0712 29.7453L99.0415 28.6048L97.1095 29.7963L99.0074 28.6984L97.1265 29.9623L99.0968 28.8261L97.3138 30.0602L99.1904 28.975L97.352 30.3878L99.3564 29.2303L97.4882 30.4432L99.3862 29.3452L97.4159 30.5453L99.2968 29.4559L97.6159 30.741L99.4713 29.6687L97.7095 30.9836L99.5606 29.9155L97.7138 31.2049L99.6245 30.1027L97.884 31.2176L99.5904 30.2304L97.8797 31.3411L99.8074 30.2261L97.9946 31.3538L99.7904 30.3155L98.0712 31.4091L99.884 30.3623L97.901 31.5581L99.7947 30.4644L98.1095 31.8049L99.9138 30.7666L98.1606 31.9198L99.9096 30.907L98.2542 32.0177L100.118 30.941L98.2712 32.0943L100.203 30.9793L98.3989 32.3624L100.182 31.3325L98.5521 32.5836L100.331 31.5581L98.4925 32.639L100.318 31.5836L98.5734 32.8177L100.361 31.7836L98.7606 32.9794L100.573 31.9326L98.8032 33.0603L100.51 32.073L98.8244 33.0688L100.522 32.09L98.7989 33.1113L100.688 32.0219L98.8117 33.2986L100.663 32.2262L99.05 33.4262L100.722 32.4602L99.1564 33.656L101.025 32.5751L99.3606 33.8433L101.11 32.8347L99.2372 33.9326L101.135 32.839L99.2287 34.0645L101.242 32.8986L99.4245 34.0262L101.135 33.0432L99.3734 34.3241L101.327 33.2007L99.4925 34.4518L101.45 33.3241L99.8074 34.5837L101.616 33.5411L99.7649 34.8178L101.539 33.7965L99.8755 34.9539L101.752 33.8688L100.131 35.1369L101.918 34.1071L100.178 35.2008L101.795 34.2688L100.161 35.4603L101.905 34.4518L100.203 35.6135L102.063 34.5369L100.331 35.6476L102.093 34.6305L100.556 35.8816L102.284 34.8858L100.429 36.0263L102.361 34.9114L100.629 36.0561L102.442 35.0093L100.786 36.3199L102.582 35.2816L100.761 36.3795L102.68 35.2731L100.701 36.4306L102.667 35.2944L100.901 36.6944L102.748 35.6306L101.042 36.6561L102.739 35.6731L101.267 36.9029L103.105 35.8433L101.169 36.9966L103.046 35.9114L101.437 37.2136L103.284 36.1497L101.603 37.3498L103.386 36.3199L101.693 37.4817L103.429 36.4774L101.599 37.737L103.463 36.6604L101.714 37.8093L103.493 36.7838L101.939 37.9923L103.731 36.9625L102.025 38.137L103.935 37.0349L102.122 38.2604L104.008 37.1753L102.11 38.3285L103.991 37.2391L102.237 38.4817L104.174 37.3668L102.293 38.6051L104.105 37.5583L102.425 38.6307L104.195 37.6093L102.544 38.7753L104.314 37.754L102.625 38.9328L104.518 37.8391L102.846 39.0945L104.68 38.0391L102.867 39.1668L104.714 38.0987L102.965 39.3839L104.714 38.3753L103.122 39.4605L104.927 38.4179L103.191 39.5456L104.957 38.5285L103.318 39.7924L105.114 38.7541L103.408 39.8945L105.297 38.8009L103.684 40.1073L105.365 39.1371L103.671 40.1413L105.51 39.0775L103.705 40.4179L105.663 39.286L103.935 40.4775L105.671 39.4775L104.169 40.6818L106.003 39.6222L104.02 40.7924L106.025 39.6349L104.254 40.8052L106.02 39.7881L104.45 41.0009L106.267 39.9541L104.697 41.2222L106.463 40.2052L104.68 41.4307L106.578 40.3371L104.871 41.6307L106.735 40.5584L105.148 41.801L106.944 40.7626L105.237 41.835L107.114 40.7499L105.276 41.9031L107.076 40.8605L105.412 42.1669L107.327 41.0605L105.48 42.2946L107.327 41.2265L105.625 42.3925L107.552 41.2818L105.608 42.4478L107.463 41.3754L105.795 42.6265L107.689 41.5371L105.931 42.7244L107.867 41.6052L106.025 42.8393L108.012 41.6946L106.254 43.0989L108.238 41.9542L106.331 43.0861L108.225 41.9925L106.561 43.2308L108.442 42.1457L106.774 43.4734L108.765 42.3201L106.854 43.5202L108.68 42.4648L106.957 43.5627L108.706 42.5542L107.101 43.6776L108.91 42.6308L107.067 43.7968L108.999 42.6776L107.118 43.9159L109.169 42.7329L107.199 43.9925L109.242 42.8138L107.416 43.9627L109.374 42.835L107.399 43.9883L109.352 42.8606L107.578 44.0989L109.501 42.9925L107.744 44.2266L109.701 43.0946L107.748 44.3585L109.701 43.2308L108.093 44.5457L110.127 43.3712L108.212 44.7415L110.323 43.5202L108.348 44.8096L110.535 43.5457L108.523 44.9075L110.697 43.6521L108.727 45.0394L110.714 43.8904L108.859 45.0309L110.735 43.9457L109.076 45.1372L110.846 44.1159L109.165 45.2394L110.752 44.3245L109.289 45.333L110.821 44.4479L109.459 45.3245L110.714 44.5968" stroke="#FF8976" stroke-width="1.41074" stroke-linecap="round" stroke-linejoin="round"/>
<path id="Vector_10" d="M98.2627 6.4976L99.5138 5.77417L98.1436 6.95293L100.093 5.82524L98.2244 7.004L100.199 5.86353L98.2968 7.01676L100.178 5.92737L98.2925 7.06357L100.263 5.92737L98.4372 7.29762L100.812 5.92737L98.5436 7.48912L101.11 6.00822L98.6968 7.54019L101.212 6.08907L98.6797 7.58699L101.331 6.05503L98.7861 7.6721L101.403 6.16142L99.0372 7.74019L101.808 6.14014L99.2202 7.82105L102.076 6.17418L99.4244 7.87637L102.152 6.30185L99.8159 7.85509L102.488 6.31036L100.093 7.93594L102.633 6.46781L100.31 7.96573L102.914 6.4593L100.603 7.98275L103.156 6.50611L100.914 8.03807L103.484 6.55292L101.288 8.20404L103.812 6.74867L101.407 8.26787L104.016 6.76144L101.888 8.32319L104.259 6.95719L102.076 8.38277L104.582 6.93591L102.08 8.39553L104.425 7.03804L102.169 8.36574L104.48 7.03379L102.603 8.44234L104.901 7.11889L102.633 8.6083L104.999 7.23805L102.667 8.62107L105.118 7.20826L102.973 8.59554L105.165 7.33167L103.28 8.67214L105.45 7.41678L103.259 8.76576L105.561 7.4338L103.344 8.72746L105.544 7.45508L103.467 8.76576L105.578 7.54444L103.356 8.86363L105.676 7.52316L103.637 8.93598L105.833 7.66785L103.944 9.08066L106.212 7.76998L104.352 9.06789L106.403 7.88488L104.671 9.23386L106.701 8.06361L104.654 9.37429L106.927 8.06361L105.174 9.4594L107.31 8.22957L105.31 9.61259L107.45 8.37425L105.246 9.68494L107.361 8.46362L105.659 9.82537L107.791 8.59554L105.68 9.87643L107.774 8.66788L106.063 9.91047L108.08 8.74448L106.097 9.95303L108.008 8.85087L106.042 10.0041L108.148 8.78703L106.135 10.1445L108.357 8.86363L106.467 10.2764L108.446 9.13598L106.671 10.2764L108.638 9.14024L106.748 10.3956L108.855 9.17854L106.786 10.536L108.893 9.32322L107.28 10.6382L109.118 9.57855L107.386 10.902L109.416 9.73175L107.765 10.9616L109.544 9.93175L107.791 10.9914L109.735 9.87218L107.842 11.0552L109.825 9.91047L107.816 11.1318L109.859 9.95303L108.055 11.2722L109.974 10.1658L108.191 11.3956L110.174 10.2509L108.557 11.5616L110.459 10.4637L108.574 11.7871L110.527 10.6594L108.825 11.8808L110.731 10.7786L108.782 11.9403L110.769 10.7956L109.174 12.0467L110.906 11.0467L109.203 12.1446L111.033 11.0892L109.276 12.1403L111.114 11.0807L109.267 12.1914L111.123 11.119L109.365 12.3318L111.314 11.2084L109.586 12.4297L111.476 11.3403L109.604 12.434L111.472 11.3531L109.684 12.7404L111.608 11.6297L109.842 12.8212L111.85 11.6595L110.174 12.9404L111.876 11.9573L110.284 13.234L112.216 12.1191L110.446 13.3744L112.212 12.3531L110.493 13.4L112.233 12.3957L110.535 13.5659L112.421 12.4765L110.804 13.6723L112.642 12.6084L110.897 13.9276L112.744 12.8595L111.089 14.051L112.855 13.034L111.204 14.0638L112.889 13.0893L111.284 14.3872L113.267 13.2425L111.548 14.6213L113.306 13.6042L111.667 14.7149L113.37 13.7319L111.812 14.8383L113.633 13.7872L111.918 15.034L113.629 14.0468L111.982 15.3617L113.77 14.3319L112.208 15.4128L113.957 14.4L112.306 15.4809L113.931 14.5447L112.523 15.6851L113.884 14.8979" stroke="#FF8976" stroke-width="1.41074" stroke-linecap="round" stroke-linejoin="round"/>
<path id="Vector_11" d="M97.7947 13.6595L99.3948 12.736L97.7947 13.9701L99.8501 12.7828L97.8288 14.0424L100.161 12.6935L97.782 14.2254L100.446 12.6892L97.8628 14.4084L100.731 12.753L97.8799 14.451L100.799 12.7658L98.0501 14.4127L100.769 12.8382L98.182 14.6382L101.28 12.8467L98.2756 14.7361L101.548 12.8467L98.365 14.902L101.842 12.8977L98.6544 14.9574L101.978 13.0382L98.8884 14.9659L102.186 13.0594L99.4501 14.902L102.514 13.136L99.7437 14.8595L102.637 13.1914L100.305 14.8425L103.016 13.2765L100.765 14.8723L103.369 13.3658L101.186 14.9914L103.689 13.5488L101.684 14.9786L104.008 13.6382L101.854 15.034L104.157 13.7063L101.923 15.1744L104.255 13.8297L102.323 15.1829L104.552 13.8978L102.289 15.3063L104.565 13.9914L102.48 15.234L104.68 13.9658L102.625 15.3148L104.85 14.0297L102.731 15.4212L105.021 14.102L102.816 15.3957L104.982 14.1446L103.033 15.6255L105.331 14.2978L103.263 15.5914L105.408 14.3531L103.416 15.6127L105.54 14.3829L103.591 15.7829L105.667 14.5871L103.693 15.8893L105.948 14.5871L104.02 16.0595L106.135 14.8382L104.178 16.1361L106.306 14.9106L104.472 16.2978L106.574 15.085L104.957 16.3829L106.923 15.2467L105.284 16.5787L107.34 15.3914L105.233 16.7234L107.306 15.5276L105.51 16.834L107.561 15.651L105.752 16.8425L107.735 15.6936L105.638 16.9362L107.812 15.6765L105.884 17.0128L108.004 15.7914L106.05 17.0298L108.042 15.8808L106.233 17.1149L108.106 16.034L106.421 17.2553L108.374 16.1234L106.323 17.3234L108.421 16.1106L106.344 17.3957L108.433 16.1915L106.472 17.4851L108.591 16.2638L106.842 17.6511L108.787 16.5276L107.174 17.7745L109.046 16.6936L107.216 17.8894L109.046 16.834L107.374 17.8936L108.991 16.9617L107.378 17.966L109.038 17.0085L107.476 18.0383L109.016 17.1489L107.663 18.0511L109.042 17.2553L107.714 18.1192L108.901 17.434" stroke="#FF8976" stroke-width="1.41074" stroke-linecap="round" stroke-linejoin="round"/>
<path id="Vector_12" d="M101.91 20.3492L103.259 19.5704L101.905 20.5407L103.51 19.6172L102.029 20.7024L104.059 19.5321L102.033 21.0598L105.003 19.3449L102.063 21.2854L106.216 18.8853L102.161 21.3407L107.135 18.4682L102.28 21.3237L107.842 18.1108L102.322 21.5024L119.072 11.834L102.476 21.4598L118.931 11.9574L102.68 21.6045L118.872 12.2595L103.191 21.6386L118.148 13L103.744 21.6811L117.217 13.9021L103.757 21.6769L117.323 13.8426L104.314 21.596L116.578 14.5149L104.905 21.5109L115.816 15.2128L105.276 21.4215L115.306 15.6299L106.152 21.1705L114.029 16.6214L106.263 21.1364L113.872 16.7448" stroke="#FF8976" stroke-width="1.41074" stroke-linecap="round" stroke-linejoin="round"/>
<path id="Vector_13" d="M116.714 11.4723L118.353 10.5276L116.472 11.7191L118.289 10.668L115.953 12.2255L118.463 10.7787L115.183 12.9532L118.659 10.9446L113.897 14.0554L118.902 11.1659L112.799 14.932L119.025 11.3361" stroke="#FF8976" stroke-width="1.41074" stroke-linecap="round" stroke-linejoin="round"/>
<path id="Vector_14" d="M122.647 17.0427L124.366 16.0469L122.502 17.149L124.332 16.0894L121.132 18.3193L124.574 16.332L120.898 18.5023L124.762 16.2682L120.91 18.5108L124.613 16.3745L120.791 18.5874L124.685 16.3405" stroke="#FF8976" stroke-width="1.41074" stroke-linecap="round" stroke-linejoin="round"/>
<path id="Vector_15" d="M100.603 27.3794L101.893 26.6347L100.667 27.6688L102.459 26.6347L100.765 27.9667L103.084 26.6305L100.795 28.3029L103.723 26.6134L100.986 28.3284L103.974 26.6007L101.059 28.5156L104.391 26.5964L101.067 28.5497L104.574 26.5241L101.369 28.6944L105.276 26.439L101.54 28.6901L105.527 26.3879L101.659 28.639L105.676 26.3198L101.825 28.6603L105.876 26.3198L101.94 28.7114L106.382 26.1453L102.182 28.7327L106.91 26.0007L102.297 28.8178L107.604 25.7496L102.731 28.8305L108.846 25.3028L103.008 28.771L109.425 25.0645L103.361 28.7624L110.906 24.4049L103.94 28.6944L124.936 16.5706L104.254 28.6858L124.957 16.7365L104.493 28.6518L125.128 16.7408L105.225 28.588L125.076 17.1238L106.199 28.4135L124.966 17.5748L107.48 28.0135L124.323 18.2898L107.884 27.8901L124.2 18.4685L109.042 27.4603L123.344 19.2047L111.242 26.5368L121.685 20.5069" stroke="#FF8976" stroke-width="1.41074" stroke-linecap="round" stroke-linejoin="round"/>
<path id="Vector_16" d="M125.974 24.2345L127.664 23.26L125.153 24.9962L127.928 23.3919L124.936 25.2303L128.021 23.4515L124.672 25.426L128.242 23.3621L124.685 25.4345L128.119 23.4515L123.476 26.4005L128.225 23.6558" stroke="#FF8976" stroke-width="1.41074" stroke-linecap="round" stroke-linejoin="round"/>
<path id="Vector_17" d="M106.259 33.6431L107.727 32.7963L106.199 33.8815L108.067 32.8006L106.191 33.9708L108.387 32.7027L106.233 34.2985L109.225 32.5708L106.352 34.3623L109.565 32.5112L106.284 34.4985L109.804 32.4686L106.608 34.6942L110.629 32.3708L106.591 34.8602L111.204 32.1963L106.94 34.9028L111.961 32.0048L107.012 34.9496L112.11 32.0091L107.484 34.9496L113.008 31.7622L107.646 34.907L113.187 31.7112L107.97 34.924L114.042 31.4175L108.953 34.7113L115.587 30.8814L108.914 34.7538L115.812 30.7707L109.046 34.7155L115.914 30.7494L109.77 34.6474L119.238 29.1792L109.914 34.5708L119.655 28.9451L110.004 34.6176L128.434 23.979L110.753 34.4559L128.506 24.2045L111.885 34.1708L128.498 24.5748L112.191 34.1495L128.472 24.745L112.357 34.1155L128.366 24.8726L113.204 33.8687L127.706 25.4982L113.455 33.7921L127.498 25.6854L114.153 33.6048L126.987 26.1961L115.766 33.0304L125.859 27.2046L116.102 32.9282L125.54 27.477L116.834 32.6176L124.936 27.9408L116.944 32.6006L124.723 28.1111" stroke="#FF8976" stroke-width="1.41074" stroke-linecap="round" stroke-linejoin="round"/>
<path id="Vector_18" d="M111.118 41.7711L112.514 40.9626L111.135 41.8052L112.599 40.9626L110.944 42.2179L113.574 40.6987L111.038 42.3073L114.204 40.4774L111.063 42.5371L116.68 39.2944L111.387 42.6903L129.651 32.1453L111.463 42.8477L129.251 32.5793L111.433 42.8775L129.183 32.6304L111.518 42.8435L129.23 32.6176L111.561 42.8563L129.123 32.7155L111.667 43.1243L128.438 33.4432L111.884 43.035L128.366 33.5198L112.127 43.0775L127.932 33.9496L112.821 43.0435L126.868 34.9326L113.787 42.7967L125.744 35.8943L115.408 42.2052L123.987 37.2518" stroke="#FF8976" stroke-width="1.41074" stroke-linecap="round" stroke-linejoin="round"/>
<path id="Vector_19" d="M127.557 31.2984L129.289 30.2983L126.766 32.1027L129.489 30.5324L126.136 32.741L129.638 30.7196L125.915 32.9367L129.685 30.7579L124.706 33.9963L129.906 30.992L124.298 34.3751L129.868 31.1622L123.651 34.89L130 31.2218L122.94 35.4262L129.923 31.3962" stroke="#FF8976" stroke-width="1.41074" stroke-linecap="round" stroke-linejoin="round"/>
<path id="Vector_20" d="M117.276 40.0604L118.617 39.2859L117.336 40.154L118.761 39.3327L117.336 40.2987L118.91 39.388L117.344 40.6221L119.11 39.6008L117.217 40.737L119.187 39.6008L117.387 41.0136L119.332 39.8902L117.446 40.9838L119.229 39.954L117.353 41.3923L119.238 40.3072L117.434 41.4987L119.297 40.4221L117.536 41.6987L119.442 40.5966L117.472 42.0945L119.425 40.9668L117.395 42.2988L119.553 41.0519L117.404 42.2988L119.4 41.1498L117.527 42.3881L119.51 41.2434L117.489 42.5115L119.408 41.4009L117.429 42.7839L119.442 41.6221L117.451 43.0605L119.583 41.8307L117.502 43.3243L119.672 42.0732L117.519 43.6648L119.634 42.4434L117.459 43.8052L119.583 42.5796L117.374 44.2435L119.583 42.9669L117.378 44.2861L119.519 43.052L117.365 44.5158L119.642 43.2009L117.302 44.9031L119.663 43.5413L117.438 45.1159L119.676 43.8265L117.229 45.601L119.642 44.2052L117.229 45.9116L119.54 44.5754L117.208 46.0861L119.595 44.7073L117.029 46.5244L119.383 45.1627L116.94 46.8478L119.442 45.4052L116.731 47.2564L119.408 45.7116L116.676 47.4862L119.395 45.9201L116.651 47.5713L119.268 46.0606L116.676 47.6308L119.361 46.0861L116.574 47.9372L119.263 46.384L116.468 48.0479L119.136 46.5074L116.506 48.0692L119.11 46.567L116.378 48.4692L119.11 46.8946L116.097 48.8266L119.11 47.0904L115.944 49.1032L118.897 47.401L115.919 49.1543L118.966 47.3968L115.778 49.5203L118.885 47.7245L115.651 49.6522L118.812 47.8266L115.736 49.6266L118.817 47.8521L115.655 49.8862L118.791 48.0777L115.616 50.2905L118.634 48.5458L115.816 50.5033L118.31 49.0607L116.085 50.7075L118.217 49.4777L116.221 50.9458L117.953 49.9458L116.259 50.9331L117.923 49.9756L116.595 50.9033L117.791 50.2139" stroke="#FF8976" stroke-width="1.41074" stroke-linecap="round" stroke-linejoin="round"/>
<path id="Vector_21" d="M73.2662 25.0216L74.4364 24.3493L73.313 25.0557L74.5769 24.3237L73.2109 25.2089L74.6109 24.4003L73.2109 25.328L74.8875 24.362L73.296 25.4982L74.9556 24.5408L73.3088 25.6216L75.1173 24.5791L73.3343 25.8089L75.1897 24.7365L73.2917 25.9663L75.3046 24.8046L73.3853 25.9961L75.1811 24.9578L73.2109 26.4174L75.4067 25.1493L73.2917 26.643L75.3471 25.4557L73.3853 26.6302L75.4024 25.4684L73.3088 26.8557L75.3726 25.6642L73.4066 26.9749L75.4024 25.8217L73.4236 27.3238L75.4535 26.1493L73.4279 27.5494L75.4833 26.3664L73.3896 27.66L75.4152 26.494L73.4151 28.0302L75.479 26.843L73.3641 28.077L75.3684 26.9238L73.4705 28.1409L75.5471 26.9408L73.4407 28.46L75.4067 27.3238L73.4534 28.6515L75.5769 27.426L73.6151 28.5834L75.479 27.5068L73.53 28.9196L75.5939 27.7281L73.5343 29.0856L75.445 27.9792L73.5896 29.3409L75.6748 28.1366L73.5811 29.5409L75.6705 28.3324L73.7385 29.826L75.5982 28.7537L73.713 30.1282L75.7599 28.9452L73.6875 30.3963L75.8024 29.175L73.7173 30.4984L75.6578 29.375L73.713 30.5154L75.628 29.409L73.8364 30.7963L75.845 29.6388L73.896 30.8686L75.8663 29.7324L73.9641 31.1325L75.9259 30.0005L73.9088 31.1708L75.7684 30.0984L74.0237 31.2814L75.8663 30.2175L74.0109 31.5282L76.0025 30.3792L74.0832 31.7112L75.9003 30.6644L74.079 31.9027L76.0833 30.7452L74.0747 32.2431L76.045 31.1027L74.2364 32.507L76.2025 31.3708L74.262 32.5027L76.1812 31.392L74.1854 32.6432L76.1259 31.524L74.3726 32.6942L76.211 31.6346L74.3939 32.7623L76.1812 31.7325L74.313 33.0432L76.1897 31.958L74.3854 33.3623L76.3344 32.2346L74.5088 33.5623L76.4578 32.4389L74.6365 33.8815L76.4578 32.8304L74.6747 33.9751L76.462 32.941L74.6322 34.1751L76.5684 33.0559L74.7045 34.2389L76.5982 33.1453L74.7131 34.473L76.5812 33.3964L74.8067 34.5666L76.6237 33.5198L74.9131 34.8773L76.6408 33.8815L74.9854 35.0815L76.7301 34.073L75.045 35.273L76.7642 34.2815L75.1003 35.3496L76.9089 34.307L74.9599 35.4901L76.9684 34.3326L74.9599 35.5666L76.8365 34.4815L75.1216 35.7241L77.0238 34.6219L75.1216 35.822L77.0621 34.6985L75.296 35.9709L77.1046 34.9241L75.2194 36.2348L77.1174 35.1411L75.3386 36.2092L77.1344 35.1709L75.3769 36.3624L77.2068 35.3071L75.3471 36.5114L77.1982 35.439L75.445 36.6092L77.228 35.5794L75.5386 36.8263L77.3557 35.7752L75.4918 36.9156L77.3685 35.8305L75.5854 36.9539L77.3089 35.9624L75.7173 37.0646L77.3897 36.0986L75.6961 37.422L77.5855 36.3326L75.7812 37.6093L77.6791 36.5156L75.8535 37.6008L77.6323 36.5752L75.8535 37.6731L77.7131 36.5965L75.9642 37.9072L77.6961 36.9114L76.0535 38.0135L77.8238 36.9922L76.0237 38.3114L77.9727 37.188L76.1727 38.6093L78.0493 37.5284L76.245 38.771L78.0451 37.7327L76.4152 38.9668L78.143 37.9667L76.3982 38.988L78.2323 37.9327L76.3174 39.12L78.1557 38.0603L76.5301 39.12L78.3217 38.0859L76.5727 39.3625L78.3259 38.3497L76.6493 39.3838L78.4025 38.3753L76.594 39.6093L78.5557 38.4774L76.7386 39.5668L78.5472 38.5199L76.6833 39.737L78.5472 38.6604L76.7982 39.954L78.5387 38.9455L76.9557 40.0136L78.7047 39.0051L76.9301 40.337L78.7217 39.3029L77.0365 40.5072L78.8196 39.4732L77.1004 40.4902L78.9345 39.4349L77.2153 40.6477L78.8791 39.6859L77.2578 40.7583L78.9855 39.7625L77.2961 41.12L79.2536 39.9923L77.4536 41.3498L79.2494 40.3157L77.6153 41.5881L79.5132 40.4902L77.6578 41.7115L79.577 40.6051L77.7727 41.8052L79.5983 40.7541L77.7387 41.9966L79.7217 40.8519L77.8578 42.2137L79.6494 41.1796L78.0493 42.3669L79.8409 41.3285L78.1302 42.4733L79.9515 41.4179L78.1557 42.5413L79.9813 41.486L78.2578 42.6775L79.9345 41.7073L78.2621 42.8137L80.1302 41.7328L78.3174 42.9116L80.1175 41.8732L78.4579 43.2052L80.3005 42.1413L78.5855 43.3967L80.3388 42.3796L78.6834 43.7159L80.6409 42.5839L78.8366 43.9499L80.7941 42.8179L79.1217 44.1542L80.943 43.1031L79.1557 44.4733L81.1218 43.3414L79.3217 44.5286L81.0282 43.5414L79.3047 44.5669L81.1899 43.4775L79.4792 44.767L81.2282 43.7627L79.4877 45.0691L81.3984 43.9669L79.743 45.0989L81.4452 44.1159L79.9005 45.3329L81.6282 44.3371L79.9558 45.3755L81.7601 44.3329L79.8579 45.5797L81.8112 44.452L80.0111 45.784L81.9048 44.6904L80.2579 45.9415L81.9729 44.9499L80.3005 46.0521L82.2027 44.9542L80.3813 46.0351L82.0495 45.0691L80.4324 46.0776L82.1388 45.0946L80.3941 46.2776L82.2963 45.1797L80.6154 46.4521L82.3899 45.4265L80.726 46.7287L82.5771 45.6606L80.8537 46.8351L82.6282 45.8095L80.8579 46.9713L82.6878 45.9117L80.9515 46.9457L82.8623 45.8436L80.9601 47.116L82.8835 46.0053L81.2622 47.2138L82.9133 46.2606L81.275 47.4564L83.1559 46.3713L81.4026 47.7585L83.241 46.6989L81.7346 47.8564L83.4367 46.8734L81.7601 47.8607L83.5474 46.8308L81.7686 47.9628L83.5261 46.9457L81.9346 48.1883L83.658 47.1926L81.9218 48.3798L83.9006 47.2394L82.0154 48.4394L83.841 47.3883L82.0963 48.4862L83.9985 47.3926L82.241 48.7415L84.0623 47.6862L82.3346 48.7373L84.1942 47.6607L82.4537 48.8905L84.2836 47.8309L82.4878 49.0565L84.4283 47.933L82.7346 49.082L84.5602 48.0309L82.692 49.2394L84.5474 48.1671L82.841 49.2735L84.6623 48.2224L82.9091 49.3118L84.7857 48.2309L82.9516 49.5628L84.9644 48.4011L83.1644 49.7416L85.1474 48.5969L83.1984 49.7841L85.1134 48.6777L83.2538 49.7756L85.173 48.665L83.3942 50.0224L85.2496 48.9501L83.4197 50.1203L85.3474 49.0096L83.5559 50.1458L85.4325 49.0607L83.5601 50.2522L85.573 49.0862L83.6538 50.2607L85.6283 49.1203L83.6708 50.3118L85.6283 49.1799L83.9176 50.4139L85.8198 49.316L84.1602 50.6054L85.9602 49.5671L84.224 50.7246L85.99 49.7075L84.2155 50.9246L86.1347 49.8182L84.5559 51.0565L86.4241 49.9799L84.7474 51.3331L86.7092 50.2012L84.7304 51.5076L86.773 50.3246L85.1304 51.5927L87.0411 50.4863L85.3602 51.8353L87.2326 50.7544L85.5347 52.0693L87.5135 50.9246L85.7262 52.2608L87.6582 51.1459L85.7389 52.3161L87.6326 51.2225L86.0198 52.4778L87.9262 51.3757L86.0028 52.5204L87.9262 51.4097L85.9177 52.614L87.9262 51.4523L86.0028 52.7247L88.1092 51.5119L86.2539 52.814L88.1177 51.7374L86.339 53.031L88.4667 51.8055L86.7688 53.163L88.6497 52.0778L86.7049 53.2353L88.6965 52.0821L86.8837 53.4311L88.9263 52.2523L87.0879 53.4013L88.8454 52.3842L86.9475 53.5587L89.0667 52.3374L87.1645 53.763L89.2114 52.58L87.4284 53.8268L89.4412 52.6651L87.5262 53.9885L89.488 52.8566L87.5816 53.9885L89.6667 52.7842L87.7262 54.1332L89.8242 52.9247L87.9348 54.2736L89.9433 53.1162L87.9645 54.3332L89.9604 53.18L88.1433 54.5077L90.237 53.2991L88.4199 54.6992L90.437 53.5332L88.688 54.7886L90.7008 53.6226L88.739 54.9971L90.7561 53.8311L89.1305 55.1077L91.0583 53.9928L89.3901 55.2992L91.2838 54.2056L89.5603 55.3886L91.3647 54.346L89.5008 55.5801L91.6242 54.3502L89.6114 55.6354L91.5945 54.4907L89.8157 55.6184L91.7945 54.4779L89.7093 55.7588L91.8115 54.5417L90.0838 55.8099L91.9902 54.712L90.237 55.8865L92.1477 54.7843L90.2838 56.0992L92.2668 54.9545L90.4199 56.2014L92.5392 54.9758L90.7944 56.2865L92.7775 55.1418L90.9178 56.5078L93.0328 55.2907L91.1987 56.6524L93.1902 55.5035L91.2455 56.6865L93.2839 55.512L91.4157 56.7205L93.2924 55.6354L91.3817 56.929L93.4498 55.7333L91.437 56.9163L93.5179 55.7162L91.5476 57.0312L93.7264 55.7716L91.7562 56.9248L93.7349 55.7801L91.8115 57.0099L93.7818 55.8737L91.8115 57.1588L94.0328 55.8779L91.9647 57.278L94.1137 56.0397L92.0413 57.3333L94.2286 56.0694L92.3689 57.4482L94.4328 56.2567L92.5689 57.4865L94.5265 56.3546L92.4924 57.5418L94.5946 56.3248L92.5349 57.6355L94.6924 56.3886L92.8158 57.8057L95.0031 56.5418L93.1605 57.9929L95.2882 56.7631L93.2966 57.9546L95.3861 56.7461L93.4243 57.9589L95.3776 56.8269L93.386 58.0397L95.501 56.8184L93.7264 58.0993L95.8371 56.8822L93.6881 58.2823L95.8499 57.0354L93.7349 58.3291L96.0201 57.0099L93.8967 58.2951L95.8925 57.1418L94.0456 58.278L95.9648 57.1716L94.1988 58.4823L96.3606 57.2312L94.2158 58.5248L96.3223 57.3078L94.552 58.5717L96.501 57.444L94.6711 58.8185L96.9265 57.5206L95.0073 58.8185L97.0627 57.6269L94.9903 58.8653L97.0031 57.7035L95.1137 59.0355L97.301 57.7716L95.5435 59.1334L97.6287 57.9291L95.7308 59.3759L97.8798 58.1333L96.0669 59.5164L98.267 58.2482L96.1861 59.5376L98.3308 58.2993L96.3138 59.61L98.3734 58.4185L96.3691 59.7377L98.5436 58.4823L96.5052 59.7079L98.6798 58.4525L96.6925 59.7334L98.7309 58.5589L96.9351 59.9121L99.0032 58.7163L97.1946 59.9972L99.1053 58.8951L97.3393 60.2738L99.4288 59.0695L97.7266 60.41L99.7224 59.261L97.8244 60.4398L99.9607 59.2057L97.9181 60.5207L100.076 59.2781L98.0202 60.4866L100.131 59.2695L98.1053 60.7249L100.22 59.5036L98.5734 60.793L100.352 59.7632L98.7947 60.9377L100.501 59.9504L98.9521 61.2185L100.514 60.3164L99.0202 61.2483L100.373 60.4653L99.1053 61.2058L100.522 60.3887L99.2883 61.1803L100.522 60.4653" stroke="#FF8976" stroke-width="1.41074" stroke-linecap="round" stroke-linejoin="round"/>
<path id="Vector_22" d="M65.4447 30.6389L66.8278 29.8389L65.5256 30.7963L66.9427 29.975L65.3596 31.0559L67.0788 30.0644L65.5171 31.2942L67.4576 30.175L65.6235 31.5496L67.6831 30.3623L65.683 31.5325L67.632 30.4091L65.7298 31.7283L67.8788 30.49L65.9554 31.7198L67.9512 30.5666L66.1554 31.9453L68.2321 30.7453L66.3767 32.0049L68.3938 30.8389L66.3597 32.0389L68.3257 30.9027L66.4022 32.0943L68.5682 30.8432L66.6873 32.2772L68.9044 31.0006L66.9171 32.4773L69.1895 31.1666L67.1724 32.5411L69.364 31.2772L67.3384 32.6645L69.4321 31.4602L67.5001 32.7453L69.5427 31.5623L67.8491 32.8688L69.913 31.6772L67.9427 33.0602L70.2577 31.724L68.1214 33.0645L70.2108 31.856L68.2661 33.2347L70.496 31.9453L68.5768 33.4092L70.913 32.0645L69.0193 33.439L71.1768 32.1921L69.1257 33.7156L71.4024 32.4007L69.2704 33.6603L71.5343 32.3496L69.381 33.656L71.513 32.4219L69.33 33.7284L71.5641 32.439L69.6449 33.8305L71.8535 32.5581L69.8917 34.0305L72.2662 32.6602L69.9981 34.0007L72.2109 32.7241L70.2279 34.1794L72.5641 32.8305L70.6577 34.2348L72.9641 32.9028L70.8449 34.4135L73.3641 32.9581L70.9598 34.3922L73.3514 33.0134L71.1939 34.5199L73.6024 33.1283L71.5045 34.6177L74.1344 33.0985L71.8237 34.7326L74.5472 33.1581L72.2067 34.8688L74.9727 33.273L72.4152 34.8816L75.2451 33.2475L72.5173 34.9071L75.2748 33.3156L72.7939 34.9837L75.7472 33.2773L73.1258 35.1752L76.1217 33.4475L73.3939 35.2178L76.3174 33.5326L73.8663 35.2944L76.5345 33.7539L73.9556 35.3284L76.4919 33.8645L74.6535 35.3156L76.543 34.2262L74.6408 35.3369L76.5642 34.2305L75.0153 35.3752L76.5302 34.4986L75.1429 35.4305L76.577 34.605L75.2961 35.3922L76.4493 34.7241" stroke="#FF8976" stroke-width="1.41074" stroke-linecap="round" stroke-linejoin="round"/>
<path id="Vector_23" d="M64.2489 36.9626L65.5298 36.2222L64.2574 37.235L65.7894 36.3498L64.351 37.4477L66.0787 36.452L64.2957 37.8392L66.3511 36.652L64.4915 38.0137L66.5852 36.8052L64.5383 38.0393L66.7 36.7881L64.7936 38.269L67.0405 36.9711L65.1128 38.3584L67.2916 37.0988L65.283 38.3967L67.4192 37.1626L65.3638 38.5584L67.7639 37.1754L65.7426 38.6988L68.0235 37.3839L66.0022 38.9159L68.432 37.5116L66.2745 38.9074L68.5682 37.5839L66.4745 38.9329L68.6916 37.652L66.3171 39.0435L68.7342 37.6477L66.4873 39.0393L68.9257 37.635L66.6703 39.1372L69.0916 37.7371L67.0916 39.2223L69.6193 37.7626L67.3596 39.3244L69.8363 37.8946L67.5171 39.3584L70.0619 37.8861L67.7256 39.5499L70.3129 38.0563L68.0065 39.6265L70.73 38.052L68.1597 39.5882L70.6619 38.1414L68.5597 39.7372L71.1768 38.2265L68.5639 39.8053L71.347 38.1967L68.798 39.8648L71.4491 38.3329L69.0023 39.784L71.5896 38.2903L69.3767 39.9074L72.1045 38.3329L69.4533 40.018L72.2279 38.418L69.9299 40.0351L72.7045 38.435L69.9725 40.0606L72.7726 38.4435L70.1044 40.0478L72.8449 38.4648L70.0108 40.1159L72.896 38.452L70.1768 40.201L73.1598 38.4776L70.4704 40.15L73.3896 38.4648L70.4959 40.2223L73.5981 38.4308L70.7002 40.3287L74.0067 38.4222L71.2491 40.3798L74.7216 38.3712L71.5087 40.3585L74.7812 38.4733L71.7683 40.4989L75.4791 38.3542L72.4449 40.4734L76.0663 38.3797L72.5343 40.5457L76.4323 38.2946L73.1386 40.4691L76.9302 38.2818L73.6024 40.5798L77.2153 38.4946L74.1854 40.567L77.4195 38.6988L74.8237 40.5202L77.4536 39.0052L74.9727 40.5542L77.5983 39.0393L75.5812 40.5244L77.594 39.3627L76.1982 40.4181L77.5344 39.6478" stroke="#FF8976" stroke-width="1.41074" stroke-linecap="round" stroke-linejoin="round"/>
<path id="Vector_24" d="M69.3596 44.3627L70.6661 43.6094L69.3341 44.5669L70.8873 43.669L69.2575 44.8308L71.181 43.7201L69.283 44.8776L71.3257 43.7031L69.3894 44.8818L71.3682 43.7371L69.3213 45.1159L71.598 43.8052L69.5299 45.2648L72.1597 43.7456L69.7001 45.3967L72.364 43.8563L69.7767 45.418L72.6661 43.7499L70.0533 45.6138L73.181 43.8052L70.2746 45.6946L73.5768 43.7882L70.4788 45.6478L73.7513 43.7584L70.5214 45.6946L73.7896 43.8052L70.5682 45.7755L74.0789 43.7499L70.7724 45.8095L74.3172 43.7584L71.1469 45.7329L74.4917 43.8009L71.0874 45.8478L74.8024 43.7031L71.6193 45.8095L75.2407 43.7158L71.7257 45.8053L75.3471 43.7116L72.0831 45.8776L75.9939 43.6222L72.4193 45.9031L76.5897 43.4946L72.9427 45.8478L77.279 43.3456L73.2959 45.8904L78.177 43.0733L73.5853 45.9372L78.7557 42.9499L74.1598 45.8308L79.2408 42.8945L73.9768 45.9414L79.0834 42.9924L74.7343 45.8053L79.4621 43.0733L74.9385 45.8393L79.5344 43.1839L75.4152 45.7797L79.6493 43.3371L75.3896 45.8053L79.6621 43.3414L76.2194 45.7031L79.8196 43.6222L77.0663 45.5244L80.0153 43.8222L77.245 45.4648L79.8664 43.9499L77.7854 45.3627L79.8536 44.1669L78.1344 45.2435L79.8579 44.2478" stroke="#FF8976" stroke-width="1.41074" stroke-linecap="round" stroke-linejoin="round"/>
<path id="Vector_25" d="M69.8789 50.0056L71.0747 49.312L69.8278 50.3333L71.5641 49.329L69.6661 50.5886L71.7854 49.363L69.764 50.7971L72.2832 49.3418L69.93 50.9461L72.5258 49.4481L69.964 50.9461L72.679 49.3758L69.8661 51.0695L72.7003 49.4311L69.981 51.0397L72.7811 49.4269L70.1215 51.3205L73.3812 49.4354L70.3428 51.4014L73.8493 49.3758L70.4279 51.3886L73.7769 49.4567L70.4874 51.4397L73.9216 49.4567L70.7811 51.4695L74.4578 49.3503L71.1385 51.4354L74.7301 49.363L71.1002 51.4865L74.8323 49.329L71.5215 51.4142L75.0535 49.3715L71.8066 51.4525L75.5131 49.312L72.279 51.5163L76.1089 49.3077L72.8407 51.4482L76.594 49.2822L72.7769 51.5078L76.7132 49.2354L73.3769 51.4865L77.2408 49.2524L73.7599 51.5418L77.9217 49.1375L74.4152 51.5291L78.7643 49.0183L74.6833 51.4227L79.0707 48.8907L75.2961 51.444L80.0963 48.6736L75.9046 51.3886L81.1729 48.346L76.3174 51.4312L82.7304 47.7289L76.9813 51.3078L83.2113 47.7119L77.5047 51.2993L83.407 47.8906L78.0579 51.2099L83.7432 47.9289L78.4324 51.1716L83.7389 48.1077L78.8664 51.0567L83.7857 48.2183L79.892 50.8354L83.9645 48.4822L81.041 50.5503L83.9645 48.8651L81.607 50.3971L84.0453 48.9886" stroke="#FF8976" stroke-width="1.41074" stroke-linecap="round" stroke-linejoin="round"/>
<path id="Vector_26" d="M76.2238 50.1841L77.5302 49.4309L76.2664 50.3714L77.743 49.516L76.2919 50.3926L77.8324 49.5033L76.3345 50.5629L78.0664 49.5628L76.2919 50.665L77.9983 49.6777L76.3345 50.8267L78.2579 49.716L76.4579 51.1161L78.343 50.0309L76.6409 51.0522L78.2792 50.1075L76.7132 51.1842L78.4664 50.1714L76.8877 51.4565L78.7303 50.3926L76.9558 51.5629L78.6877 50.5629L77.109 51.6735L78.926 50.6267L77.2877 51.8863L79.1388 50.8182L77.3685 52.1246L79.1388 51.1033L77.4026 52.1459L79.1643 51.1331L77.509 52.1246L79.1856 51.1544L77.543 52.2055L79.3431 51.1671L77.6154 52.3544L79.3984 51.3246L77.7005 52.3119L79.5005 51.2735L77.7941 52.4778L79.5133 51.4863L77.9388 52.6097L79.7941 51.5374L78.0409 52.7076L79.7303 51.7331L78.0579 52.7629L79.9559 51.6693L78.0792 52.848L79.9601 51.7672L78.1813 53.0012L80.0027 51.9459L78.2281 53.18L80.2835 51.9927L78.3728 53.2991L80.3814 52.1374L78.4281 53.4098L80.3559 52.2948L78.6367 53.3885L80.5729 52.2693L78.6707 53.6353L80.7346 52.4438L78.6665 53.6438L80.7091 52.4608L78.926 53.6013L80.8069 52.5119L79.0409 53.7204L80.7686 52.7204L79.109 53.8183L80.9516 52.7544L79.0792 54.0183L81.041 52.8821L79.258 54.1077L81.1219 53.031L79.6197 54.2736L81.4453 53.2225L79.5261 54.3545L81.5687 53.1757L79.7175 54.4013L81.6751 53.2736L79.5984 54.5204L81.5602 53.3885L79.875 54.7077L81.9176 53.5247L80.2112 54.8609L82.1644 53.7332L80.4495 55.0736L82.5262 53.8779L80.6197 55.163L82.5942 54.0225L80.7644 55.3971L82.9262 54.1502L81.0325 55.4779L83.0453 54.3119L81.1516 55.6269L83.3262 54.3715L81.424 55.8396L83.4879 54.6481L81.6963 55.9588L83.7007 54.797L81.8963 56.0907L83.9007 54.9332L82.0325 56.0481L84.0751 54.8694L82.0453 56.2482L84.2624 54.963L82.2112 56.2354L84.1688 55.1034L82.3517 56.2269L84.3432 55.0779L82.2751 56.3035L84.3049 55.1332L82.6836 56.4311L84.7092 55.2609L82.8113 56.7077L84.9858 55.4524L82.9134 56.678L85.0284 55.4566L83.2155 56.7843L85.2113 55.6354L83.3134 56.8482L85.3731 55.6609L83.4751 56.946L85.6156 55.712L83.6496 57.0695L85.8156 55.8183L83.739 57.112L85.905 55.8609L84.0751 57.2397L86.122 56.0567L84.3517 57.4141L86.3986 56.2311L84.3134 57.5759L86.5859 56.2609L84.6113 57.5376L86.6199 56.3801L84.773 57.6567L86.7901 56.4907L85.105 57.8142L86.8837 56.7843L85.1816 57.8865L86.8625 56.9163L85.4752 58.0269L86.7688 57.278L85.6326 58.0567L86.905 57.3248" stroke="#FF8976" stroke-width="1.41074" stroke-linecap="round" stroke-linejoin="round"/>
</g>
</svg>
