<svg width="72" height="67" viewBox="0 0 72 67" fill="none" xmlns="http://www.w3.org/2000/svg">
<g clip-path="url(#clip0_177_8231)">
<path d="M17.311 16.3753C21.8813 11.5909 27.2673 10.227 31.9919 10.038C32.5589 10.016 36.7071 10.016 40.2537 11.2885C43.1137 12.3121 46.1123 14.8729 47.4698 16.6619C49.5045 19.3455 50.9188 21.8307 51.3912 26.7317C63.7414 60.582 33.2739 67.0201 21.4907 64.3806C18.0543 63.612 14.1864 61.7222 10.8414 59.1362C9.03031 57.7378 6.16404 55.281 4.07261 51.1611C2.68672 48.4334 1.74495 44.6947 1.7922 38.9873C1.85834 30.5145 6.31523 19.1943 17.3866 16.41L17.3141 16.3785L17.311 16.3753Z" fill="#FF9E00"/>
<path d="M38.2977 9.43144C39.8348 6.91795 41.3058 4.3635 42.7074 1.77441C42.7074 1.77441 46.4997 3.92569 46.4902 4.10837C46.4871 4.16822 46.4587 4.22806 46.4304 4.28161C45.4571 6.24075 43.2113 10.8331 43.2113 10.8331" fill="#725F24"/>
<path d="M39.8411 10.3319C41.3782 7.81845 42.8491 5.26401 44.2508 2.67492C43.435 2.8891 42.6224 3.10328 41.8066 3.31432C42.4082 3.65449 43.0066 4.00096 43.6019 4.35373C44.0271 4.60571 44.4555 4.86084 44.8713 5.12542C45.0256 5.22306 45.1799 5.32385 45.3311 5.42779C45.58 5.59788 45.287 5.41835 45.1453 5.27976C45.161 5.29236 45.1768 5.30495 45.1925 5.3207C45.0855 5.21046 44.8083 4.80729 44.7705 4.58681V3.63874C44.865 3.22297 44.9059 3.35841 44.8303 3.5096C44.7925 3.58519 44.7547 3.66394 44.7169 3.73953C44.6445 3.88442 44.5752 4.02931 44.5027 4.1742C44.3358 4.51437 44.1657 4.85454 43.9988 5.19471C43.6429 5.91601 43.2901 6.63415 42.9373 7.35544C42.5153 8.21532 42.0932 9.07835 41.6711 9.93823C41.2491 10.7981 41.416 11.9068 42.3105 12.3824C43.1137 12.8076 44.3169 12.6376 44.7547 11.743C45.5296 10.1619 46.3044 8.57754 47.0824 6.99952C47.3281 6.50186 47.5706 6.00735 47.8163 5.51284C48.0021 5.13802 48.188 4.7758 48.2446 4.35688C48.3265 3.74583 48.1155 3.22297 47.6997 2.78831C47.4257 2.50168 47.0099 2.26545 46.6729 2.05127C46.2887 1.80874 45.8949 1.57251 45.5044 1.33943C44.8776 0.967757 44.2445 0.602386 43.6082 0.240166C42.7893 -0.222847 41.6302 0.0228334 41.164 0.879564C39.7624 3.4718 38.2915 6.0231 36.7544 8.53659C36.2662 9.33348 36.5528 10.5367 37.3938 10.9808C38.2348 11.4249 39.3151 11.1918 39.838 10.3414L39.8411 10.3319Z" fill="#231815"/>
<path d="M70.1889 7.18481C68.8723 10.5172 66.1352 12.9898 62.8563 14.4355C59.8892 15.7427 55.4764 16.2466 52.2543 15.8781C49.0321 15.5096 46.5595 13.8434 43.4539 12.9173C44.1941 10.7913 45.9548 9.19434 47.7533 7.83995C50.1691 6.02255 52.8905 4.42563 55.8985 4.1264C58.7648 3.83978 61.609 4.75635 64.2863 5.81467C65.5367 6.30918 66.7777 6.84148 68.0786 7.18481C68.7747 7.36749 69.5369 7.49348 70.1889 7.18481Z" fill="#98CC41"/>
<path d="M55.1205 9.14184C51.3534 9.07254 47.684 9.86943 44.4335 11.8097C44.0681 12.027 43.8728 12.4585 44.0712 12.8617C44.2161 13.1578 44.5909 13.3562 44.9217 13.2932C45.0225 13.8381 45.6745 14.2728 46.1879 13.7846C47.306 12.7199 48.8431 12.2034 50.2636 11.6679C51.6117 11.1577 52.985 10.8364 54.4244 10.7104C54.4244 10.7104 54.4276 10.7104 54.4307 10.7104C54.6229 10.7104 54.9977 10.5813 55.1709 10.4962C55.6969 10.2411 56.1348 9.16073 55.1205 9.14184Z" fill="#87BF00"/>
<path d="M68.466 6.70929C68.3085 7.09986 68.6392 6.34077 68.4629 6.72189C68.4125 6.82898 68.3652 6.93922 68.3148 7.04316C68.214 7.25419 68.1038 7.46523 67.9904 7.66996C67.7636 8.07943 67.5116 8.47314 67.2408 8.85426C67.1935 8.91726 67.1022 9.09994 67.0329 9.13459L67.1683 8.9582C67.1211 9.01805 67.0707 9.08104 67.0234 9.14089C66.9006 9.29208 66.7746 9.43697 66.6455 9.58185C66.321 9.94407 65.9746 10.2874 65.6123 10.6087C65.4517 10.7504 65.2879 10.8921 65.1241 11.0276L65.0328 11.1C64.8816 11.2197 64.9099 11.1977 65.1178 11.037C65.0643 11.1158 64.9099 11.1914 64.8344 11.2481C64.4532 11.5252 64.0564 11.7835 63.65 12.0229C63.2752 12.2434 62.891 12.4513 62.5004 12.6403C62.3429 12.7158 61.9681 12.804 61.8578 12.9363L62.0783 12.8418C62.009 12.8702 61.9366 12.8985 61.8673 12.9269C61.7224 12.9836 61.5775 13.0371 61.4326 13.0875C60.5444 13.4025 59.6278 13.6356 58.7018 13.8151C58.4498 13.8655 58.1978 13.9096 57.9459 13.9506C57.8199 13.9726 57.6907 13.9883 57.5647 14.0104C57.2403 14.0608 57.6088 14.0104 57.6561 13.9978C57.1269 14.1175 56.5348 14.1238 55.993 14.1584C55.0512 14.2183 54.1063 14.2277 53.1645 14.171C52.9346 14.1584 52.7078 14.1395 52.4811 14.1175C52.3645 14.1049 52.2385 14.1017 52.122 14.0765C52.544 14.1647 52.2322 14.0891 52.122 14.0702C51.5739 13.9789 51.0322 13.8466 50.4999 13.6891C49.9676 13.5316 49.4227 13.3363 48.8966 13.1285C48.6132 13.0182 48.3297 12.9017 48.0494 12.7851C47.9675 12.7505 47.8887 12.719 47.8068 12.6844C47.6241 12.6088 47.6462 12.6182 47.8698 12.7127C47.7879 12.6781 47.7092 12.6434 47.6273 12.6119C46.4115 12.0985 45.1957 11.5819 43.9295 11.1977L45.1768 13.393C45.2114 13.2923 45.3028 12.8985 45.1768 13.3552C45.202 13.2608 45.2618 13.1631 45.3059 13.0749C45.4036 12.8702 45.5138 12.6718 45.6304 12.4765C45.7375 12.3001 45.8508 12.1268 45.9674 11.9599C45.9957 11.919 46.065 11.7961 46.1123 11.7583C45.9579 11.9536 45.9422 11.9757 46.0619 11.8245C46.1154 11.7583 46.1658 11.6953 46.2194 11.6323C46.7895 10.9583 47.4415 10.3598 48.1218 9.79919C48.2824 9.6669 48.4431 9.52516 48.6132 9.40547C48.2226 9.6732 48.5785 9.43382 48.651 9.38027C48.7423 9.31098 48.8305 9.24483 48.9218 9.17869C49.3219 8.88261 49.7313 8.59283 50.1471 8.31881C50.9597 7.7802 51.8007 7.28569 52.6826 6.86677C52.7834 6.81953 52.8874 6.77228 52.9882 6.72504C53.089 6.67779 53.363 6.52975 52.9945 6.71874C53.1897 6.61794 53.4134 6.5518 53.6213 6.47621C54.0843 6.31242 54.5567 6.17068 55.0386 6.06359C55.278 6.01004 55.5237 5.97225 55.7631 5.925C56.0403 5.87146 55.3127 5.96595 55.7568 5.925C55.8985 5.9124 56.0403 5.89665 56.182 5.8872C56.7143 5.84941 57.2498 5.84941 57.7789 5.8872C58.0152 5.90295 58.2703 5.9061 58.5034 5.9565C58.1033 5.87146 58.4278 5.94705 58.5317 5.9628C58.6514 5.9817 58.7711 6.00374 58.8908 6.02264C59.4199 6.12029 59.9428 6.24313 60.4625 6.38486C61.4799 6.66519 62.4783 7.01796 63.4611 7.40223C64.5729 7.83375 65.669 8.30936 66.8061 8.67473C67.4077 8.86686 68.0061 9.0149 68.6329 9.09994C69.5086 9.21648 70.2677 9.0716 71.0803 8.72827C71.4614 8.56764 71.7953 8.03848 71.9024 7.66051C72.0189 7.23214 71.9654 6.66519 71.7228 6.28407C71.4803 5.90295 71.1118 5.56593 70.6551 5.46199C70.1543 5.3486 69.748 5.44309 69.2786 5.64152L69.455 5.55648C69.2566 5.60058 69.2849 5.60688 69.5401 5.56908C69.4267 5.61318 69.2566 5.57223 69.1401 5.57853C69.0613 5.58168 68.7621 5.58483 69.2093 5.60058C69.0771 5.59428 68.9353 5.55018 68.8062 5.52183C68.2833 5.40214 67.7668 5.23521 67.2597 5.05882C66.2265 4.69975 65.2218 4.26509 64.2044 3.87452C62.0909 3.06503 59.905 2.42878 57.634 2.29965C53.1866 2.05082 49.2431 4.36273 45.8823 7.03056C44.0618 8.47629 42.5184 10.2213 41.7215 12.4355C41.3908 13.3615 42.1026 14.3695 42.9688 14.6309C43.4917 14.7884 44.0082 14.9679 44.5185 15.1632C44.7673 15.2577 45.0162 15.3585 45.265 15.4593C45.3878 15.5097 45.5107 15.5601 45.6335 15.6105C45.7186 15.6451 46.2729 15.875 45.8162 15.6861C46.9249 16.1459 48.021 16.6373 49.1644 17.0058C51.2369 17.6767 53.4354 17.8499 55.6025 17.7428C57.7695 17.6358 60.0562 17.305 62.1508 16.5995C64.2454 15.8939 66.069 14.8482 67.7321 13.4718C69.6125 11.9158 71.0016 9.90628 71.9055 7.65106C72.2551 6.78173 71.5276 5.65097 70.6582 5.45569C69.6251 5.21946 68.8345 5.77066 68.4629 6.70299L68.466 6.70929Z" fill="#231815"/>
<path d="M18.574 17.6395C18.9331 17.2678 19.2985 16.9056 19.6828 16.5591C19.8843 16.3764 20.0891 16.1969 20.3001 16.0237C20.3694 15.967 20.4387 15.9103 20.508 15.8536C20.5773 15.7969 21.0277 15.4063 20.6686 15.7213C21.3584 15.1197 22.2088 14.6346 23.0057 14.1905C23.3963 13.9732 23.7932 13.7716 24.1963 13.5826C24.3034 13.5322 24.4137 13.4818 24.5208 13.4346C24.5617 13.4157 24.8893 13.233 24.6341 13.3842C24.379 13.5354 24.7003 13.3558 24.7475 13.3369C24.8924 13.2771 25.0373 13.2204 25.1822 13.1668C25.9665 12.8708 26.7665 12.6251 27.5823 12.4267C27.976 12.329 28.376 12.244 28.7729 12.1684C28.9524 12.1337 29.132 12.1022 29.3115 12.0739C29.4186 12.055 29.5257 12.0392 29.6328 12.0235C29.7052 12.014 29.7745 12.0014 29.847 11.992C29.5509 12.0298 29.4974 12.0392 29.6926 12.014C30.458 11.9227 31.2266 11.8502 31.9951 11.825C33.1322 11.7873 34.2818 11.8786 35.4094 12.0077C35.5291 12.0203 35.6457 12.0361 35.7622 12.0518C36.0866 12.0928 35.6835 12.0329 35.652 12.0361C35.8661 12.0046 36.1874 12.1148 36.4016 12.1526C36.8804 12.2345 37.356 12.329 37.8253 12.4393C38.2946 12.5495 38.7922 12.6849 39.2647 12.8361C39.5135 12.9149 39.7624 12.9999 40.008 13.0944C40.0805 13.1227 40.1592 13.1637 40.2348 13.1857C39.7592 13.0535 40.26 13.2015 40.3734 13.255C41.2238 13.6582 42.0333 14.1496 42.8019 14.6945C43.0098 14.8425 43.2271 14.9905 43.4255 15.1543C43.0507 14.8457 43.5704 15.2772 43.6586 15.3496C44.0334 15.6583 44.3956 15.9796 44.7453 16.3166C45.0382 16.5969 45.3217 16.8867 45.5925 17.1859C45.7028 17.3088 45.813 17.4347 45.9201 17.5639C45.98 17.6363 46.0367 17.7151 46.0997 17.7844C45.7343 17.3717 45.9705 17.6174 46.0493 17.7245C46.4934 18.3135 46.9186 18.9183 47.3092 19.5419C47.6997 20.1656 48.021 20.7609 48.3171 21.4034C48.358 21.4916 48.3927 21.5893 48.4368 21.6743C48.21 21.2428 48.3423 21.4444 48.3927 21.5735C48.462 21.7499 48.5313 21.9231 48.5942 22.0995C48.7423 22.5058 48.8714 22.9184 48.988 23.3342C49.2179 24.1689 49.4825 25.0949 49.5234 25.9643C49.4982 25.4792 49.5203 25.9328 49.5297 26.0272C49.5392 26.1217 49.5518 26.2131 49.5612 26.3044C49.6053 26.6887 49.6211 27.073 49.7534 27.4383C49.9108 27.8793 50.0652 28.3203 50.2132 28.7644C50.7487 30.3644 51.2148 31.9866 51.5897 33.6276C51.766 34.4056 51.9235 35.1899 52.059 35.9804C52.1188 36.3427 52.1755 36.7049 52.2259 37.0671C52.2417 37.1836 52.2637 37.4104 52.2007 36.8844C52.2133 36.9821 52.2259 37.0765 52.2385 37.1742C52.2637 37.3663 52.2857 37.5585 52.3046 37.7474C52.4495 39.1018 52.5188 40.4688 52.4905 41.8295C52.4779 42.4752 52.4401 43.1209 52.3802 43.7635C52.355 44.0343 52.3267 44.3052 52.292 44.5729C52.2763 44.7115 52.2196 45.036 52.3141 44.4155C52.3015 44.4942 52.292 44.5729 52.2794 44.6517C52.2574 44.8092 52.2322 44.9635 52.2039 45.121C52.0149 46.2423 51.7471 47.3479 51.3912 48.4282C51.2243 48.9322 51.0259 49.4173 50.84 49.9118C51.0794 49.2724 50.8904 49.7889 50.8243 49.9401C50.777 50.0472 50.7266 50.1543 50.6794 50.2582C50.5628 50.5102 50.44 50.759 50.3109 51.0079C49.8447 51.9118 49.3061 52.7812 48.7076 53.6033C48.6415 53.6946 48.5753 53.7828 48.5092 53.871C48.4683 53.9245 48.4273 53.9749 48.3895 54.0285C48.7549 53.5308 48.5911 53.767 48.5061 53.8773C48.3549 54.0663 48.2037 54.2553 48.0462 54.4411C47.7218 54.8254 47.3816 55.197 47.0288 55.5561C46.3453 56.2522 45.6114 56.8947 44.8492 57.4995C44.6791 57.6349 45.2744 57.1751 44.9027 57.4554C44.8177 57.5215 44.7295 57.5845 44.6445 57.6475C44.4366 57.8019 44.2256 57.9499 44.0114 58.0948C43.6145 58.3688 43.205 58.6302 42.7924 58.8791C41.9766 59.3736 41.1357 59.8209 40.2726 60.2272C40.0616 60.328 39.8474 60.4256 39.6332 60.5201C39.5167 60.5705 39.4002 60.6209 39.2805 60.6713C39.1608 60.7217 38.9749 60.7878 39.5293 60.5673C39.4505 60.5988 39.3718 60.6335 39.2931 60.665C38.8615 60.8414 38.4269 61.0083 37.9859 61.1658C37.0977 61.4839 36.1937 61.7642 35.2803 62.0036C34.3669 62.243 33.4818 62.4414 32.5715 62.6052C32.1274 62.6871 31.6801 62.7596 31.2329 62.8226C31.1825 62.8289 31.1352 62.8352 31.0848 62.8446C30.8045 62.8856 31.6045 62.7753 31.3242 62.8131C31.2266 62.8257 31.1289 62.8383 31.0313 62.8509C30.7982 62.8793 30.5651 62.9076 30.332 62.9296C28.6879 63.0997 27.0311 63.1596 25.3775 63.0777C25.009 63.0588 24.6436 63.0367 24.2751 63.0021C24.0987 62.9863 23.9223 62.9674 23.7459 62.9486C23.5349 62.9265 22.7947 62.8163 23.6136 62.9391C22.7789 62.8163 21.96 62.6651 21.1442 62.4446C20.2466 62.2021 19.3615 61.8997 18.4984 61.5532L18.3756 61.5028C18.1929 61.4272 18.2118 61.4367 18.4355 61.5312C18.404 61.5375 18.237 61.4461 18.1898 61.4272C17.9441 61.3201 17.6984 61.2099 17.4559 61.0934C16.9803 60.8697 16.5141 60.6335 16.0511 60.3847C15.1251 59.887 14.2242 59.3389 13.3518 58.7499C12.9203 58.457 12.495 58.1546 12.0793 57.8428C12.0068 57.7893 11.9186 57.7326 11.8525 57.6696C12.1958 57.9877 12.0194 57.7987 11.9281 57.7263C11.8084 57.6318 11.6856 57.5341 11.5659 57.4396C10.4162 56.5136 9.33899 55.5026 8.36887 54.3907C8.21453 54.2143 8.06335 54.0348 7.91531 53.8521C7.83656 53.7544 7.39875 53.2725 7.74207 53.6411C7.40505 53.2757 7.12787 52.8064 6.85699 52.3938C6.34044 51.6126 5.87112 50.7968 5.46481 49.9527C5.39236 49.8015 5.31992 49.6472 5.25062 49.4928C5.22858 49.4393 5.20338 49.3889 5.18133 49.3354C5.04274 49.0235 5.35457 49.7606 5.22543 49.4424C5.08999 49.1054 4.96085 48.7684 4.84431 48.4251C4.60808 47.7384 4.41279 47.0392 4.24901 46.3336C4.16081 45.9462 4.07892 45.5557 4.00963 45.1651C3.97498 44.9793 3.94348 44.7934 3.91513 44.6044C3.89623 44.491 3.88049 44.3745 3.86159 44.258C3.84899 44.1792 3.83954 44.1036 3.82694 44.0249C3.86159 44.2832 3.86789 44.343 3.85214 44.2013C3.73875 43.2374 3.6537 42.2736 3.60961 41.3035C3.54031 39.6908 3.54661 38.0719 3.71355 36.4655C3.7293 36.3175 3.74505 36.1694 3.76395 36.0214C3.77339 35.9332 3.78599 35.8419 3.79859 35.7537C3.7293 36.3521 3.76395 36.0025 3.78284 35.8702C3.83009 35.5395 3.88364 35.2088 3.94348 34.878C4.06947 34.1756 4.22381 33.4764 4.40334 32.7834C4.58288 32.0905 4.77816 31.4417 5.00494 30.7802C5.11834 30.4463 5.23803 30.1156 5.36717 29.788C5.42386 29.6369 5.48371 29.4888 5.54355 29.3408C5.58135 29.2526 5.61914 29.1612 5.65379 29.0731C5.43646 29.6211 5.61284 29.1738 5.66639 29.0542C6.25854 27.7155 6.96409 26.4241 7.78617 25.2146C7.972 24.9437 8.16099 24.676 8.35627 24.4146C8.42872 24.3201 8.6618 24.0492 8.31533 24.4618C8.37832 24.3862 8.43817 24.3075 8.49801 24.2287C8.62085 24.0744 8.74684 23.9232 8.87598 23.772C9.35789 23.2051 9.86815 22.6633 10.4099 22.1531C10.665 21.9137 10.9265 21.6806 11.1942 21.4538C11.3485 21.3247 11.506 21.1987 11.6604 21.0727C11.8871 20.89 11.5596 21.1546 11.5375 21.1672C11.6509 21.0947 11.7548 21.0034 11.8619 20.9247C12.4698 20.4805 13.1061 20.0742 13.7612 19.712C14.0983 19.5262 14.4384 19.3498 14.7849 19.186C14.977 19.0947 15.1723 19.0096 15.3645 18.9214C15.4873 18.8679 15.6227 18.8742 15.2322 18.975C15.333 18.9498 15.4337 18.8931 15.5314 18.8553C16.2873 18.5592 17.059 18.3135 17.8465 18.1151C18.5331 17.9387 19.0339 17.3119 19.1252 16.6316C19.2103 15.9922 18.9142 15.1386 18.2717 14.852L18.1992 14.8205C17.3488 14.4425 16.2401 14.5433 15.755 15.4599C15.3456 16.2378 15.4841 17.4977 16.3944 17.9041L16.4669 17.9356L16.8921 14.6724C13.4998 15.5354 10.3784 17.2584 7.83656 19.6648C5.56875 21.8097 3.77654 24.4839 2.52925 27.3375C1.2662 30.229 0.475613 33.237 0.13859 36.3742C-0.0440951 38.0561 -0.0472449 39.7507 0.0314987 41.4389C0.122841 43.3981 0.349623 45.3667 0.790587 47.2786C2.4316 54.397 7.78302 59.9374 14.0542 63.3643C16.7251 64.8226 19.6229 65.9597 22.6467 66.3786C24.3444 66.6149 26.0484 66.7156 27.7618 66.6652C31.6045 66.555 35.485 65.8589 39.0978 64.5423C43.0633 63.0966 46.8083 60.9359 49.7376 57.8649C52.9283 54.523 55.0008 50.2393 55.6938 45.6722C56.6481 39.3885 55.4607 33.0039 53.385 27.0541C53.3189 26.8619 53.2622 26.6572 53.1803 26.4745C53.007 26.0965 53.196 26.884 53.1299 26.4304C53.111 26.2918 53.0984 26.1501 53.0826 26.0115C53.007 25.3721 52.9188 24.7358 52.8055 24.1028C52.648 23.2334 52.4401 22.3704 52.1598 21.5326C51.6432 19.986 50.9188 18.5151 50.0116 17.1607C49.1045 15.8063 48.0021 14.4236 46.7296 13.2865C45.0854 11.8219 43.2617 10.5872 41.2239 9.74622C39.186 8.90524 37.1355 8.59341 35.0472 8.37923C33.8944 8.25954 32.7258 8.19024 31.5667 8.25324C27.8626 8.45482 24.2058 9.35565 20.971 11.2108C19.1536 12.2534 17.4874 13.5889 16.0353 15.0976C15.3865 15.7717 15.3141 16.9623 16.0353 17.6237C16.7566 18.2852 17.8685 18.3419 18.5614 17.6237L18.574 17.6395Z" fill="#231815"/>
<path d="M13.7234 51.7033C13.2415 51.212 12.7911 50.6986 12.3596 50.1631C12.3533 50.1568 12.3533 50.1568 12.3501 50.1505C12.3312 50.1253 12.3123 50.1033 12.2966 50.0781C12.2493 50.0182 12.2052 49.9552 12.158 49.8922C12.0541 49.7537 11.9564 49.6119 11.8556 49.4702C11.569 49.0765 11.2351 48.7741 10.7217 48.7363C10.3028 48.7048 9.97838 48.9347 9.70435 49.2214C9.56576 49.3662 9.43662 49.5395 9.38937 49.7411C9.36733 49.8324 9.36103 49.9269 9.36103 50.0182C9.34528 50.1253 9.34213 50.2356 9.36103 50.349C9.58781 51.527 10.2335 52.6388 11.1154 53.4452C11.5564 53.8452 12.0541 54.1917 12.599 54.4342C12.9832 54.6043 13.3644 54.7334 13.7927 54.6452C14.3156 54.5381 14.64 54.0877 14.6809 53.5743C14.7439 52.831 14.2085 52.1916 13.7203 51.6971L13.7234 51.7033Z" fill="#FF8300"/>
<path d="M9.43349 46.8559C9.43979 46.8402 9.44294 46.8245 9.44609 46.8056C9.45239 46.7646 9.45554 46.7174 9.46184 46.6764C9.47443 46.6418 9.48703 46.6071 9.49648 46.5662C9.53428 46.4055 9.54058 46.2291 9.49018 46.0685C9.43034 45.8827 9.37364 45.8071 9.24765 45.6559C9.18466 45.5803 9.09332 45.5236 9.01457 45.4638C8.89488 45.3724 8.76889 45.3189 8.62715 45.2622C8.60825 45.2559 8.59251 45.2496 8.57361 45.2433C8.56416 45.2433 8.55471 45.2401 8.54211 45.237C8.47282 45.2244 8.39092 45.2118 8.32163 45.2086C8.26808 45.2055 8.22084 45.2149 8.16729 45.2212C8.10745 45.2275 8.05705 45.2307 8.0035 45.2527C7.94366 45.2748 7.86177 45.3063 7.80507 45.3378C7.79877 45.3409 7.79247 45.3441 7.78302 45.3504C7.74837 45.3724 7.71058 45.4039 7.68538 45.426C7.65388 45.4512 7.61924 45.4764 7.58774 45.5016C7.57514 45.511 7.56569 45.5236 7.55624 45.5362C7.50269 45.6024 7.44915 45.6685 7.39875 45.7378C7.27591 45.9079 7.20032 46.1441 7.20662 46.3551C7.20662 46.3646 7.20662 46.374 7.20662 46.3835C7.21292 46.4591 7.22237 46.541 7.23812 46.6134C7.24127 46.6323 7.24757 46.6481 7.25387 46.667C7.31686 46.8276 7.35466 46.9063 7.44285 47.0166C7.44915 47.0292 7.4523 47.0418 7.4586 47.0544C7.52789 47.1741 7.62238 47.2654 7.74208 47.3379C7.75152 47.3442 7.76412 47.3536 7.77357 47.3599C7.76412 47.3536 7.75782 47.3473 7.74837 47.341C7.77987 47.3631 7.80822 47.3883 7.83972 47.4103C7.91531 47.4639 8.0161 47.5016 8.098 47.53C8.18934 47.5646 8.30273 47.5772 8.41297 47.5741C8.41927 47.5741 8.42242 47.5741 8.42872 47.5741C8.44762 47.5741 8.46652 47.5741 8.48542 47.5741C8.55471 47.5678 8.6366 47.5583 8.7059 47.5457C8.71535 47.5457 8.7248 47.5426 8.73424 47.5394C8.74054 47.5394 8.74999 47.5363 8.75629 47.5331C8.81929 47.5111 8.90118 47.4796 8.96103 47.4481C9.03347 47.4103 9.09332 47.3536 9.15316 47.3032C9.16576 47.2938 9.17836 47.2812 9.18781 47.2686C9.22875 47.2182 9.2823 47.1552 9.31695 47.1016C9.32325 47.0953 9.3264 47.0859 9.3327 47.0796C9.35159 47.0449 9.36734 47.004 9.37994 46.9693C9.39569 46.9347 9.41459 46.8937 9.42719 46.8559H9.43349ZM7.83342 45.4417C7.83342 45.4417 7.81452 45.4512 7.80822 45.4543C7.82397 45.4449 7.83027 45.4417 7.83342 45.4417ZM7.74837 47.3379L7.61924 47.2402C7.66333 47.2749 7.70428 47.3064 7.74837 47.3379Z" fill="#FF8300"/>
<path d="M34.4866 28.9937C34.896 29.0693 35.7055 29.2425 36.1213 29.2929C36.4709 29.3338 37.2205 29.4378 37.5733 29.4693C38.5434 29.5575 38.6946 29.5575 39.6332 29.5575C40.1813 29.5575 40.7136 29.5008 41.2428 29.3118C41.3782 29.2645 41.5073 29.2047 41.5735 29.0787C41.7058 28.8236 41.7814 28.5464 41.7688 28.2787C41.7215 27.2235 40.9813 26.6062 39.9829 26.4928C39.8002 26.4739 39.6112 26.4613 39.4317 26.4266C39.9041 26.518 39.3939 26.4203 39.2899 26.4046C38.9497 26.3542 38.6096 26.2975 38.2726 26.2376C37.6426 26.1242 37.019 25.9888 36.3985 25.8376C35.1449 25.5289 33.907 25.1478 32.6975 24.6943C32.3794 24.5746 32.0644 24.4517 31.7494 24.3226C31.7274 24.3131 31.6927 24.3005 31.6549 24.2848C31.4943 24.2218 31.3368 24.1462 31.1793 24.0769C30.6029 23.8186 30.0297 23.5478 29.4659 23.2611C28.3225 22.6784 27.2138 22.0359 26.1366 21.3461C25.4909 20.9335 24.6373 20.9492 24.042 21.428C23.6892 21.7115 23.5443 22.0296 23.4593 22.354C23.5569 22.6469 23.7239 22.9115 23.9034 23.1603C24.4294 23.8816 25.094 24.4895 25.7681 25.0722C26.0484 25.3148 27.1319 26.0581 27.387 26.1904C29.6548 27.3684 32.0298 28.3102 34.4834 28.9905C34.4834 28.9905 34.4834 28.9905 34.4866 28.9905V28.9937Z" fill="#FF8300"/>
</g>
<defs>
<clipPath id="clip0_177_8231">
<rect width="72" height="66.6927" fill="white"/>
</clipPath>
</defs>
</svg>
