<svg xmlns="http://www.w3.org/2000/svg" width="109" height="155" viewBox="0 0 109 155" fill="none">
  <g clip-path="url(#clip0_227_5080)">
    <path d="M-17.848 37.9817C-7.2475 26.8844 5.24517 23.721 16.2037 23.2827C17.5187 23.2315 27.1402 23.2315 35.3664 26.183C41.9999 28.5574 48.9549 34.4969 52.1037 38.6465C56.8231 44.8709 60.1033 50.6351 61.1992 62.0027C89.8447 140.517 19.1771 155.449 -8.1534 149.327C-16.1239 147.545 -25.0952 143.161 -32.8538 137.163C-37.0546 133.92 -43.7027 128.221 -48.5537 118.665C-51.7682 112.339 -53.9526 103.667 -53.843 90.429C-53.6896 70.7768 -43.3521 44.5202 -17.6727 38.062L-17.8407 37.989L-17.848 37.9817Z" fill="#FF9E00"/>
    <path d="M30.8295 21.8763C34.3946 16.0464 37.8064 10.1215 41.0574 4.11621C41.0574 4.11621 49.8534 9.10597 49.8315 9.5297C49.8242 9.66851 49.7584 9.80732 49.6927 9.93151C47.4352 14.4756 42.2263 25.1273 42.2263 25.1273" fill="#725F24"/>
    <path d="M34.4092 23.9642C37.9744 18.1343 41.3861 12.2094 44.6371 6.20413C42.745 6.70092 40.8601 7.1977 38.9679 7.68718C40.3633 8.47619 41.7514 9.27981 43.1322 10.098C44.1184 10.6825 45.112 11.2743 46.0764 11.8879C46.4343 12.1144 46.7923 12.3482 47.143 12.5893C47.7201 12.9838 47.0407 12.5674 46.7119 12.2459C46.7485 12.2751 46.785 12.3044 46.8215 12.3409C46.5731 12.0852 45.9302 11.1501 45.8426 10.6387V8.43966C46.0617 7.47532 46.1567 7.78946 45.9814 8.14013C45.8937 8.31547 45.806 8.49811 45.7184 8.67345C45.5503 9.00951 45.3896 9.34557 45.2216 9.68163C44.8344 10.4706 44.4399 11.2596 44.0527 12.0487C43.2271 13.7217 42.4089 15.3873 41.5907 17.0603C40.6117 19.0548 39.6328 21.0565 38.6538 23.051C37.6749 25.0454 38.062 27.617 40.1369 28.7202C41.9998 29.7064 44.7906 29.3119 45.806 27.2371C47.6032 23.5697 49.4004 19.8949 51.2049 16.2348C51.7748 15.0805 52.3373 13.9335 52.9071 12.7865C53.3382 11.9172 53.7692 11.077 53.9007 10.1054C54.0907 8.68806 53.6012 7.47532 52.6368 6.46714C52.0012 5.80232 51.0369 5.2544 50.2552 4.75761C49.3639 4.19508 48.4507 3.64715 47.5448 3.10654C46.091 2.24447 44.6225 1.39701 43.1468 0.556861C41.2473 -0.51707 38.5588 0.0527709 37.4776 2.03991C34.2266 8.05246 30.8148 13.97 27.2497 19.8C26.1173 21.6483 26.7821 24.4391 28.7327 25.4692C30.6833 26.4992 33.1892 25.9586 34.4019 23.9861L34.4092 23.9642Z" fill="#231815"/>
    <path d="M104.799 16.6644C101.745 24.3938 95.3968 30.1287 87.7917 33.482C80.9097 36.5138 70.6745 37.6827 63.2008 36.828C55.7271 35.9732 49.9922 32.1085 42.7888 29.9607C44.5056 25.0293 48.5895 21.3254 52.761 18.1839C58.3645 13.9686 64.6766 10.2646 71.6535 9.57057C78.3016 8.90576 84.8986 11.0317 91.1084 13.4864C94.0088 14.6334 96.8872 15.868 99.9044 16.6644C101.519 17.0881 103.287 17.3803 104.799 16.6644Z" fill="#98CC41"/>
    <path d="M69.8489 21.2039C61.1114 21.0432 52.6003 22.8915 45.0608 27.3918C44.2134 27.8959 43.7604 28.8968 44.2207 29.8319C44.5567 30.5187 45.4261 30.9789 46.1932 30.8328C46.427 32.0967 47.9393 33.1049 49.1301 31.9725C51.7236 29.5032 55.2887 28.305 58.5836 27.0631C61.7104 25.8796 64.8957 25.1344 68.2344 24.8422C68.2344 24.8422 68.2417 24.8422 68.249 24.8422C68.6946 24.8422 69.564 24.5426 69.9658 24.3454C71.1859 23.7536 72.2013 21.2478 69.8489 21.2039Z" fill="#87BF00"/>
    <path d="M100.803 15.5626C100.438 16.4685 101.205 14.7078 100.796 15.5918C100.679 15.8402 100.569 16.0959 100.452 16.337C100.218 16.8265 99.9627 17.3159 99.6997 17.7908C99.1737 18.7405 98.5893 19.6537 97.961 20.5377C97.8514 20.6838 97.6395 21.1076 97.4788 21.1879L97.7929 20.7788C97.6834 20.9176 97.5665 21.0637 97.4569 21.2025C97.172 21.5532 96.8797 21.8893 96.5802 22.2253C95.8277 23.0655 95.0241 23.8618 94.184 24.607C93.8114 24.9357 93.4315 25.2645 93.0516 25.5786L92.8397 25.7467C92.489 26.0243 92.5548 25.9731 93.037 25.6006C92.9128 25.7832 92.5548 25.9585 92.3795 26.09C91.4955 26.7329 90.575 27.332 89.6325 27.8872C88.7632 28.3986 87.8719 28.8808 86.966 29.3191C86.6007 29.4945 85.7313 29.699 85.4756 30.0059L85.987 29.7867C85.8263 29.8524 85.6583 29.9182 85.4975 29.9839C85.1615 30.1154 84.8254 30.2396 84.4893 30.3565C82.4291 31.0871 80.3032 31.6277 78.1553 32.0441C77.5709 32.161 76.9864 32.2633 76.402 32.3583C76.1098 32.4094 75.8102 32.446 75.518 32.4971C74.7655 32.614 75.6203 32.4971 75.7299 32.4679C74.5025 32.7455 73.1291 32.7601 71.8725 32.8405C69.6881 32.9793 67.4964 33.0012 65.312 32.8697C64.7787 32.8405 64.2527 32.7966 63.7267 32.7455C63.4564 32.7163 63.1641 32.709 62.8938 32.6505C63.8728 32.8551 63.1495 32.6797 62.8938 32.6359C61.6226 32.424 60.3661 32.1172 59.1314 31.7519C57.8968 31.3866 56.6329 30.9337 55.4128 30.4515C54.7553 30.1958 54.0978 29.9255 53.4476 29.6552C53.2577 29.5748 53.075 29.5018 52.8851 29.4214C52.4613 29.2461 52.5125 29.268 53.0312 29.4872C52.8412 29.4068 52.6586 29.3264 52.4687 29.2534C49.6487 28.0626 46.8287 26.8644 43.8918 25.9731L46.7848 31.0652C46.8652 30.8314 47.0771 29.9182 46.7848 30.9775C46.8433 30.7583 46.9821 30.5319 47.0844 30.3273C47.3109 29.8524 47.5666 29.3922 47.8369 28.9392C48.0853 28.5301 48.3483 28.1283 48.6186 27.7411C48.6843 27.6461 48.845 27.3612 48.9546 27.2735C48.5966 27.7265 48.5601 27.7776 48.8377 27.427C48.9619 27.2735 49.0788 27.1274 49.203 26.9813C50.5254 25.4179 52.0376 24.0298 53.6156 22.7294C53.9882 22.4226 54.3608 22.0938 54.7553 21.8162C53.8494 22.4372 54.675 21.882 54.843 21.7578C55.0549 21.5971 55.2594 21.4436 55.4713 21.2902C56.3991 20.6035 57.3488 19.9314 58.3132 19.2958C60.198 18.0465 62.1486 16.8995 64.1942 15.9279C64.428 15.8183 64.6691 15.7087 64.9029 15.5991C65.1367 15.4895 65.7723 15.1462 64.9175 15.5845C65.3704 15.3507 65.8891 15.1973 66.3713 15.022C67.4453 14.6421 68.5411 14.3133 69.6589 14.0649C70.2141 13.9407 70.7839 13.8531 71.3392 13.7435C71.9821 13.6193 70.2945 13.8384 71.3246 13.7435C71.6533 13.7142 71.9821 13.6777 72.3108 13.6558C73.5455 13.5681 74.7874 13.5681 76.0148 13.6558C76.5627 13.6923 77.1545 13.6996 77.6951 13.8165C76.7673 13.6193 77.5197 13.7946 77.7608 13.8311C78.0385 13.875 78.3161 13.9261 78.5937 13.9699C79.821 14.1964 81.0338 14.4813 82.2392 14.8101C84.5989 15.4603 86.9148 16.2785 89.1942 17.1698C91.7731 18.1707 94.3155 19.2739 96.9528 20.1213C98.3482 20.567 99.7363 20.9103 101.19 21.1076C103.221 21.3779 104.982 21.0418 106.867 20.2455C107.751 19.8729 108.525 18.6456 108.773 17.7689C109.044 16.7753 108.919 15.4603 108.357 14.5763C107.794 13.6923 106.94 12.9106 105.88 12.6695C104.719 12.4065 103.776 12.6257 102.688 13.086L103.097 12.8887C102.637 12.991 102.702 13.0056 103.294 12.9179C103.031 13.0202 102.637 12.9252 102.366 12.9398C102.184 12.9472 101.49 12.9545 102.527 12.991C102.22 12.9764 101.891 12.8741 101.592 12.8083C100.379 12.5307 99.181 12.1435 98.0048 11.7344C95.6086 10.9016 93.2781 9.89339 90.9183 8.98749C86.0162 7.10993 80.9461 5.63419 75.6787 5.33466C65.3631 4.75751 56.2165 10.1199 48.4213 16.3078C44.1986 19.6611 40.6189 23.7084 38.7705 28.8443C38.0035 30.9921 39.6545 33.3299 41.6636 33.9363C42.8763 34.3016 44.0744 34.718 45.258 35.171C45.8351 35.3901 46.4123 35.6239 46.9894 35.8577C47.2743 35.9746 47.5593 36.0915 47.8442 36.2084C48.0414 36.2887 49.3272 36.822 48.2679 36.3837C50.8395 37.4503 53.3819 38.59 56.0338 39.4448C60.8409 41.0009 65.9403 41.4027 70.9666 41.1543C75.9929 40.9059 81.2968 40.1388 86.155 38.5023C91.0133 36.8659 95.2433 34.4404 99.1007 31.2478C103.462 27.6388 106.684 22.9778 108.781 17.747C109.592 15.7306 107.904 13.1079 105.888 12.6549C103.491 12.107 101.658 13.3855 100.796 15.548L100.803 15.5626Z" fill="#231815"/>
    <path d="M-14.9185 40.9138C-14.0857 40.0518 -13.2382 39.2116 -12.347 38.408C-11.8794 37.9843 -11.4045 37.5678 -10.915 37.166C-10.7543 37.0345 -10.5936 36.903 -10.4329 36.7715C-10.2721 36.64 -9.22744 35.7341 -10.0603 36.4647C-8.46034 35.0693 -6.48782 33.9442 -4.63948 32.9141C-3.73358 32.41 -2.81307 31.9425 -1.87794 31.5041C-1.62955 31.3873 -1.37386 31.2704 -1.12547 31.1608C-1.03049 31.1169 -0.270702 30.6932 -0.862461 31.0439C-1.45422 31.3946 -0.709042 30.9781 -0.599457 30.9343C-0.263397 30.7955 0.0726624 30.664 0.408722 30.5398C2.22783 29.8531 4.08347 29.2832 5.97563 28.823C6.88884 28.5965 7.81666 28.3992 8.73717 28.2239C9.15359 28.1435 9.57001 28.0705 9.98644 28.0047C10.2348 27.9609 10.4832 27.9244 10.7316 27.8878C10.8997 27.8659 11.0604 27.8367 11.2284 27.8148C10.5417 27.9025 10.4175 27.9244 10.8704 27.8659C12.6457 27.6541 14.4283 27.486 16.2109 27.4276C18.8482 27.3399 21.5148 27.5518 24.1302 27.8513C24.4078 27.8805 24.6781 27.9171 24.9484 27.9536C25.7009 28.0486 24.7658 27.9098 24.6927 27.9171C25.1895 27.844 25.9347 28.0997 26.4315 28.1874C27.5419 28.3773 28.6451 28.5965 29.7336 28.8522C30.8222 29.1079 31.9765 29.422 33.0723 29.7727C33.6495 29.9553 34.2266 30.1526 34.7964 30.3718C34.9645 30.4375 35.1471 30.5325 35.3225 30.5836C34.2193 30.2768 35.3809 30.6202 35.6439 30.7444C37.6164 31.6795 39.494 32.8192 41.2766 34.083C41.7587 34.4264 42.2628 34.7698 42.7231 35.1497C41.8537 34.4337 43.0591 35.4346 43.2637 35.6026C44.1331 36.3186 44.9732 37.0637 45.7841 37.8455C46.4636 38.4957 47.1211 39.1678 47.7494 39.8618C48.0051 40.1467 48.2608 40.439 48.5092 40.7385C48.648 40.9065 48.7795 41.0892 48.9256 41.2499C48.0781 40.2928 48.6261 40.8627 48.8087 41.1111C49.8388 42.4772 50.8251 43.8799 51.731 45.3264C52.6369 46.773 53.382 48.1537 54.0688 49.6441C54.1637 49.8486 54.2441 50.0751 54.3464 50.2724C53.8204 49.2715 54.1272 49.7391 54.2441 50.0386C54.4048 50.4477 54.5656 50.8495 54.7117 51.2586C55.055 52.2011 55.3546 53.1581 55.6249 54.1225C56.1582 56.0585 56.7719 58.2063 56.8668 60.2227C56.8084 59.0976 56.8595 60.1496 56.8814 60.3688C56.9034 60.588 56.9326 60.7998 56.9545 61.0117C57.0568 61.903 57.0933 62.7943 57.4002 63.6417C57.7654 64.6645 58.1234 65.6873 58.4668 66.7174C59.7087 70.4287 60.79 74.1911 61.6593 77.9973C62.0685 79.8018 62.4337 81.621 62.7479 83.4547C62.8867 84.2948 63.0182 85.135 63.1351 85.9751C63.1716 86.2454 63.2228 86.7714 63.0766 85.5514C63.1059 85.7779 63.1351 85.997 63.1643 86.2235C63.2228 86.6692 63.2739 87.1148 63.3177 87.5531C63.6538 90.6946 63.8145 93.8652 63.7488 97.0213C63.7195 98.5189 63.6319 100.017 63.4931 101.507C63.4346 102.135 63.3689 102.764 63.2885 103.385C63.252 103.706 63.1205 104.458 63.3396 103.019C63.3104 103.202 63.2885 103.385 63.2593 103.567C63.2081 103.932 63.1497 104.29 63.084 104.656C62.6456 107.257 62.0246 109.821 61.1991 112.327C60.8119 113.496 60.3516 114.621 59.9206 115.768C60.4758 114.285 60.0375 115.483 59.8841 115.833C59.7745 116.082 59.6576 116.33 59.548 116.571C59.2777 117.156 58.9928 117.733 58.6932 118.31C57.612 120.407 56.3627 122.423 54.9747 124.33C54.8213 124.542 54.6678 124.746 54.5144 124.951C54.4194 125.075 54.3245 125.192 54.2368 125.316C55.0843 124.162 54.7044 124.71 54.5071 124.965C54.1564 125.404 53.8058 125.842 53.4405 126.273C52.688 127.164 51.899 128.026 51.0807 128.859C49.4954 130.474 47.7932 131.964 46.0252 133.367C45.6307 133.681 47.0115 132.614 46.1494 133.265C45.9522 133.418 45.7476 133.564 45.5504 133.71C45.0682 134.068 44.5787 134.412 44.0819 134.748C43.1614 135.383 42.2117 135.99 41.2546 136.567C39.3625 137.714 37.4119 138.751 35.4101 139.694C34.9206 139.927 34.4239 140.154 33.9271 140.373C33.6568 140.49 33.3865 140.607 33.1088 140.724C32.8312 140.841 32.4002 140.994 33.686 140.483C33.5033 140.556 33.3207 140.636 33.1381 140.709C32.1372 141.118 31.129 141.505 30.1062 141.871C28.046 142.609 25.9493 143.259 23.8307 143.814C21.712 144.369 19.6591 144.829 17.5478 145.209C16.5177 145.399 15.4803 145.567 14.4429 145.713C14.326 145.728 14.2164 145.743 14.0995 145.765C13.4493 145.86 15.305 145.604 14.6548 145.692C14.4283 145.721 14.2018 145.75 13.9753 145.779C13.4347 145.845 12.8941 145.911 12.3535 145.962C8.53992 146.356 4.69714 146.495 0.861675 146.305C0.00691223 146.261 -0.840542 146.21 -1.6953 146.13C-2.10442 146.093 -2.51354 146.05 -2.92266 146.006C-3.41214 145.955 -5.12896 145.699 -3.22949 145.984C-5.16549 145.699 -7.06496 145.348 -8.95713 144.837C-11.0392 144.274 -13.0921 143.573 -15.0939 142.769L-15.3788 142.652C-15.8025 142.477 -15.7587 142.499 -15.24 142.718C-15.313 142.733 -15.7002 142.521 -15.8098 142.477C-16.3797 142.229 -16.9495 141.973 -17.5121 141.703C-18.6152 141.184 -19.6964 140.636 -20.7704 140.059C-22.9182 138.905 -25.0077 137.633 -27.0313 136.267C-28.0322 135.588 -29.0185 134.886 -29.9828 134.163C-30.1508 134.039 -30.3554 133.908 -30.5088 133.761C-29.7125 134.499 -30.1216 134.061 -30.3335 133.893C-30.6111 133.674 -30.896 133.447 -31.1736 133.228C-33.8402 131.08 -36.3387 128.735 -38.5889 126.156C-38.9468 125.747 -39.2975 125.331 -39.6409 124.907C-39.8235 124.68 -40.839 123.563 -40.0427 124.417C-40.8244 123.57 -41.4673 122.481 -42.0956 121.524C-43.2937 119.713 -44.3823 117.82 -45.3247 115.863C-45.4927 115.512 -45.6607 115.154 -45.8215 114.796C-45.8726 114.672 -45.9311 114.555 -45.9822 114.431C-46.3036 113.707 -45.5804 115.417 -45.8799 114.679C-46.1941 113.897 -46.4936 113.116 -46.7639 112.319C-47.3118 110.727 -47.7648 109.105 -48.1447 107.468C-48.3492 106.57 -48.5392 105.664 -48.6999 104.758C-48.7803 104.327 -48.8533 103.896 -48.9191 103.458C-48.9629 103.195 -48.9994 102.924 -49.0433 102.654C-49.0725 102.471 -49.0944 102.296 -49.1236 102.113C-49.0433 102.712 -49.0287 102.851 -49.0652 102.522C-49.3282 100.287 -49.5254 98.0514 -49.6277 95.8012C-49.7884 92.0607 -49.7738 88.3056 -49.3866 84.5797C-49.3501 84.2364 -49.3136 83.893 -49.2697 83.5496C-49.2478 83.3451 -49.2186 83.1332 -49.1894 82.9287C-49.3501 84.3167 -49.2697 83.5058 -49.2259 83.199C-49.1163 82.4319 -48.9921 81.6648 -48.8533 80.8977C-48.5611 79.2685 -48.2031 77.6467 -47.7867 76.0394C-47.3703 74.4322 -46.9173 72.9272 -46.3913 71.393C-46.1283 70.6186 -45.8507 69.8515 -45.5512 69.0918C-45.4197 68.7411 -45.2809 68.3977 -45.142 68.0543C-45.0544 67.8498 -44.9667 67.6379 -44.8863 67.4334C-45.3904 68.7046 -44.9813 67.6671 -44.8571 67.3895C-43.4837 64.2846 -41.8472 61.2893 -39.9404 58.4839C-39.5094 57.8557 -39.071 57.2347 -38.6181 56.6283C-38.4501 56.4091 -37.9094 55.7808 -38.7131 56.7379C-38.567 56.5625 -38.4281 56.3799 -38.2893 56.1973C-38.0044 55.8393 -37.7122 55.4886 -37.4127 55.1379C-36.2949 53.8229 -35.1114 52.5664 -33.8548 51.3828C-33.263 50.8276 -32.6567 50.287 -32.0357 49.761C-31.6777 49.4614 -31.3124 49.1692 -30.9545 48.877C-30.4285 48.4533 -31.1882 49.0669 -31.2394 49.0962C-30.9764 48.9281 -30.7353 48.7163 -30.4869 48.5336C-29.0769 47.5035 -27.6012 46.5611 -26.0816 45.721C-25.2999 45.2899 -24.5109 44.8808 -23.7072 44.5009C-23.2616 44.289 -22.8087 44.0918 -22.363 43.8872C-22.0781 43.763 -21.7639 43.7776 -22.6698 44.0114C-22.4361 43.953 -22.2023 43.8215 -21.9758 43.7338C-20.2225 43.0471 -18.4326 42.4772 -16.6062 42.017C-15.0135 41.6079 -13.8519 40.154 -13.6401 38.576C-13.4428 37.093 -14.1295 35.1131 -15.6199 34.4483L-15.7879 34.3753C-17.7604 33.4986 -20.332 33.7324 -21.4571 35.8583C-22.4068 37.6628 -22.0854 40.5851 -19.9741 41.5275L-19.806 41.6006L-18.8198 34.0319C-26.688 36.0337 -33.9279 40.0298 -39.8235 45.6114C-45.0836 50.5865 -49.2405 56.789 -52.1336 63.4079C-55.0631 70.1145 -56.8968 77.0914 -57.6786 84.3679C-58.1023 88.2691 -58.1096 92.1995 -57.9269 96.1154C-57.7151 100.659 -57.1891 105.226 -56.1663 109.66C-52.36 126.171 -39.9477 139.021 -25.4022 146.97C-19.207 150.353 -12.4858 152.99 -5.47233 153.962C-1.53458 154.51 2.41778 154.743 6.39206 154.626C15.305 154.371 24.3055 152.756 32.6851 149.702C41.8829 146.349 50.5694 141.337 57.3636 134.214C64.7643 126.463 69.5714 116.527 71.1786 105.934C73.3922 91.3594 70.638 76.5508 65.8236 62.7504C65.6702 62.3048 65.5386 61.8299 65.3487 61.4062C64.9469 60.5295 65.3852 62.3559 65.2318 61.3039C65.188 60.9825 65.1588 60.6537 65.1222 60.3323C64.9469 58.8492 64.7423 57.3735 64.4793 55.905C64.114 53.8887 63.6319 51.8869 62.9817 49.9436C61.7835 46.3565 60.1032 42.9448 57.9992 39.8034C55.8952 36.6619 53.3382 33.4548 50.3867 30.8174C46.5732 27.4203 42.3432 24.5565 37.6164 22.6059C32.8897 20.6552 28.1337 19.932 23.29 19.4352C20.6162 19.1576 17.9058 18.9969 15.2173 19.143C6.62584 19.6105 -1.85603 21.7 -9.35894 26.003C-13.5743 28.4212 -17.439 31.5188 -20.8069 35.0182C-22.3119 36.5816 -22.4799 39.3431 -20.8069 40.8773C-19.1339 42.4115 -16.555 42.543 -14.9478 40.8773L-14.9185 40.9138Z" fill="#231815"/>
    <path d="M21.9898 67.2489C22.9396 67.4243 24.8171 67.8261 25.7815 67.943C26.5924 68.0379 28.3311 68.279 29.1494 68.3521C31.3995 68.5566 31.7502 68.5566 33.9273 68.5566C35.1984 68.5566 36.4331 68.4251 37.6605 67.9868C37.9746 67.8772 38.2741 67.7384 38.4276 67.4462C38.7344 66.8544 38.9097 66.2115 38.8805 65.5905C38.7709 63.1431 37.0541 61.7112 34.7382 61.4482C34.3145 61.4044 33.8761 61.3752 33.4597 61.2948C34.5555 61.5067 33.372 61.2802 33.1309 61.2437C32.3419 61.1268 31.5529 60.9953 30.7712 60.8565C29.3101 60.5935 27.8636 60.2793 26.4244 59.9287C23.5167 59.2127 20.6456 58.3287 17.8402 57.2767C17.1023 56.9991 16.3718 56.7142 15.6412 56.4146C15.5901 56.3927 15.5097 56.3635 15.422 56.327C15.0494 56.1809 14.6842 56.0055 14.3189 55.8448C12.9819 55.2457 11.6523 54.6174 10.3446 53.9526C7.69265 52.6011 5.12106 51.1107 2.62253 49.5108C1.12487 48.5538 -0.854966 48.5903 -2.23574 49.7007C-3.05397 50.3582 -3.39003 51.0961 -3.58728 51.8486C-3.3608 52.528 -2.97361 53.1417 -2.55719 53.7189C-1.33714 55.3918 0.204351 56.8018 1.76776 58.1534C2.41796 58.7159 4.93111 60.4401 5.52287 60.7469C10.7829 63.4792 16.2914 65.6636 21.9825 67.2416C21.9825 67.2416 21.9825 67.2416 21.9898 67.2416V67.2489Z" fill="#FF8300"/>
  </g>
  <defs>
    <clipPath id="clip0_227_5080">
      <rect width="167" height="154.69" fill="white" transform="translate(-58)"/>
    </clipPath>
  </defs>
</svg>