<svg width="344" height="458" viewBox="0 0 344 458" fill="none" xmlns="http://www.w3.org/2000/svg">
<g clip-path="url(#clip0_237_4548)">
<g clip-path="url(#clip1_237_4548)">
<path d="M42.8687 238.854C46.3249 205.032 63.8767 182.515 82.4493 166.851C84.68 164.974 101.51 151.894 119.912 145.874C134.743 141.009 154.983 141.943 166.132 144.921C182.849 149.393 196.423 155.017 213.793 173.411C370.635 271.805 267.324 393.994 211.195 420.44C194.829 428.157 173.178 432.686 151.453 432.742C139.695 432.778 120.319 431.849 98.8436 421.728C84.62 415.032 69.0102 402.832 51.2058 379.528C24.758 344.944 7.14597 284.963 43.2847 238.756L42.8914 238.857L42.8687 238.854Z" fill="#FF9E00"/>
<path d="M106.119 144.507C104.43 129.463 102.343 114.461 99.8662 99.5371C99.8662 99.5371 122.036 96.3075 122.573 97.0784C122.749 97.3312 122.823 97.6634 122.877 97.97C125.105 108.987 130.474 134.701 130.474 134.701" fill="#725F24"/>
<path d="M115.22 143.293C113.531 128.249 111.444 113.247 108.967 98.3233C106.332 101.765 103.711 105.196 101.066 108.624C104.58 108.108 108.1 107.626 111.628 107.18C114.148 106.862 116.69 106.546 119.211 106.309C120.145 106.218 121.089 106.141 122.03 106.086C123.576 105.991 121.822 106.186 120.81 106.071C120.913 106.072 121.017 106.074 121.13 106.088C120.348 105.979 117.953 105.217 117.104 104.441L114.115 100.595C113.187 98.6102 113.78 99.0305 113.95 99.8823C114.035 100.308 114.13 100.747 114.215 101.173C114.378 101.989 114.554 102.795 114.717 103.612C115.112 105.518 115.495 107.435 115.89 109.341C116.72 113.39 117.553 117.416 118.396 121.454C119.395 126.274 120.404 131.106 121.403 135.926C122.402 140.745 126.575 144.717 131.704 143.826C136.304 143.019 140.649 138.535 139.605 133.525C137.763 124.667 135.911 115.796 134.091 106.94C133.519 104.147 132.944 101.376 132.381 98.5946C131.953 96.4879 131.565 94.4323 130.474 92.5539C128.88 89.8166 126.375 88.3607 123.317 87.9082C121.302 87.6093 118.87 87.9619 116.828 88.1556C114.504 88.3833 112.161 88.6663 109.842 88.9522C106.127 89.4206 102.406 89.9345 98.6828 90.4711C93.9003 91.1749 89.9723 95.8265 90.7824 100.772C93.2695 115.709 95.3463 130.698 97.0356 145.742C97.5676 150.515 102.524 154.493 107.337 153.643C112.149 152.793 115.797 148.441 115.237 143.342L115.22 143.293Z" fill="#231815"/>
<path d="M228.424 34.8351C233.59 52.5067 230.281 71.1688 221.537 87.3733C213.621 102.032 197.306 117.991 183.071 126.656C168.836 135.321 153.551 136.357 138.031 142.393C134.33 131.433 136.438 119.402 139.464 108.236C143.535 93.2451 149.541 78.1852 160.802 67.4865C171.527 57.2858 185.956 52.0362 200.156 47.8881C206.788 45.9515 213.501 44.1981 219.862 41.4893C223.262 40.0356 226.752 38.1433 228.424 34.8351Z" fill="#98CC41"/>
<path d="M173.458 90.2858C157.956 101.883 145.581 116.686 138.511 134.808C137.714 136.841 138.282 139.208 140.358 140.218C141.88 140.962 144.026 140.586 145.169 139.287C147.296 141.18 151.312 140.888 151.856 137.288C153.036 129.443 157.643 122.501 161.718 115.849C165.578 109.528 170.137 103.895 175.58 98.8446C175.58 98.8446 175.593 98.8347 175.605 98.8248C176.385 98.2189 177.498 96.5131 177.933 95.6218C179.263 92.9281 177.632 87.1644 173.458 90.2858Z" fill="#87BF00"/>
<path d="M219.934 38.338C220.527 40.4191 219.475 36.2966 219.961 38.399C220.094 38.9924 220.25 39.5886 220.374 40.1693C220.63 41.3433 220.848 42.5471 221.034 43.7352C221.405 46.1116 221.624 48.5035 221.727 50.9039C221.734 51.3084 221.939 52.3376 221.767 52.6967L221.76 51.554C221.757 51.9458 221.752 52.3603 221.749 52.7521C221.727 53.7528 221.673 54.7379 221.606 55.7329C221.432 58.2255 221.108 60.7109 220.652 63.1565C220.447 64.238 220.229 65.3295 219.992 66.3955L219.85 66.9774C219.614 67.9397 219.659 67.7609 219.996 66.4537C220.027 66.942 219.639 67.7353 219.512 68.2037C218.839 70.53 218.043 72.8293 217.15 75.0817C216.324 77.1581 215.421 79.2132 214.432 81.2114C214.031 82.0147 212.789 83.5544 212.759 84.4387L213.355 83.3601C213.164 83.6936 212.959 84.0371 212.767 84.3706C212.358 85.0574 211.939 85.7316 211.51 86.3929C208.9 90.4715 205.916 94.3073 202.725 97.9556C201.862 98.9546 200.978 99.928 200.085 100.889C199.643 101.375 199.169 101.846 198.728 102.333C197.57 103.561 198.906 102.194 199.058 101.994C197.289 104.148 194.906 106.041 192.818 107.89C189.185 111.102 185.381 114.12 181.382 116.859C180.409 117.533 179.429 118.172 178.44 118.797C177.927 119.114 177.406 119.498 176.854 119.763C178.844 118.79 177.341 119.467 176.834 119.738C174.323 121.095 171.707 122.267 169.051 123.306C166.395 124.346 163.568 125.272 160.779 126.087C159.281 126.534 157.764 126.955 156.259 127.366C155.817 127.483 155.398 127.604 154.957 127.721C153.977 127.991 154.097 127.96 155.302 127.638C154.86 127.755 154.432 127.863 154 127.994C147.449 129.744 140.887 131.482 134.538 133.916L146.521 138.89C146.344 138.371 145.473 136.486 146.402 138.736C146.206 138.274 146.141 137.689 146.042 137.192C145.792 136.053 145.614 134.901 145.471 133.741C145.349 132.688 145.263 131.627 145.21 130.582C145.196 130.327 145.089 129.61 145.162 129.308C145.151 130.587 145.157 130.726 145.166 129.735C145.175 129.298 145.181 128.883 145.199 128.459C145.387 123.926 146.145 119.443 147.137 115.023C147.372 113.979 147.577 112.898 147.889 111.876C147.149 114.194 147.838 112.1 147.963 111.655C148.115 111.085 148.265 110.539 148.427 109.983C149.116 107.52 149.864 105.053 150.686 102.63C152.285 97.8829 154.138 93.2249 156.395 88.7444C156.655 88.2349 156.928 87.7155 157.188 87.206C157.448 86.6965 158.093 85.2318 157.193 87.1606C157.668 86.1359 158.367 85.1623 158.972 84.2002C160.334 82.0757 161.804 80.0109 163.421 78.0569C164.224 77.0848 165.101 76.1568 165.923 75.2103C166.879 74.1191 164.225 76.7967 165.898 75.2302C166.433 74.7321 166.959 74.2213 167.504 73.7361C169.544 71.9043 171.717 70.2159 173.983 68.7007C174.991 68.0197 176.036 67.228 177.141 66.6976C175.249 67.6139 176.804 66.8976 177.275 66.6337C177.821 66.333 178.376 66.0451 178.921 65.7443C181.376 64.472 183.884 63.3217 186.44 62.258C191.451 60.1874 196.615 58.4704 201.813 56.9307C207.685 55.1756 213.632 53.649 219.397 51.546C222.444 50.4286 225.338 49.1422 228.15 47.5109C232.07 45.2227 234.693 42.2413 236.907 38.286C237.947 36.4326 237.633 33.233 236.876 31.3618C235.998 29.2564 233.993 27.125 231.807 26.3435C229.621 25.5619 227.063 25.3566 224.883 26.375C222.493 27.494 221.143 29.1586 219.864 31.4435L220.312 30.5423C219.646 31.3469 219.781 31.2831 220.697 30.3253C220.376 30.8617 219.556 31.2319 219.103 31.6249C218.794 31.886 217.59 32.8423 219.454 31.4959C218.898 31.8874 218.183 32.1555 217.57 32.4477C215.071 33.6107 212.449 34.5622 209.836 35.4456C204.512 37.2463 199.065 38.651 193.706 40.2744C182.579 43.6543 171.704 47.9655 162.083 54.6023C143.254 67.6162 134.545 89.4304 129.322 110.851C126.494 122.457 125.734 134.403 129.483 145.9C131.061 150.7 137.128 152.544 141.466 150.874C144.084 149.864 146.746 148.964 149.432 148.147C150.739 147.746 152.067 147.37 153.394 146.995C154.051 146.812 154.709 146.629 155.366 146.446C155.82 146.318 158.794 145.503 156.345 146.177C162.294 144.546 168.29 143.084 174.091 140.974C184.615 137.161 194.081 130.931 202.535 123.664C210.99 116.396 219.224 107.844 225.498 98.3771C231.771 88.91 235.873 78.917 238.28 68.0886C241.003 55.8466 240.302 43.3137 236.858 31.3135C235.536 26.6841 229.018 24.3906 224.876 26.3395C219.939 28.6386 218.47 33.3678 219.902 38.3223L219.934 38.338Z" fill="#231815"/>
<path d="M51.977 239.998C52.2618 237.358 52.6021 234.736 53.0686 232.119C53.3105 230.742 53.575 229.368 53.8849 228C53.9873 227.552 54.0897 227.103 54.192 226.654C54.2944 226.206 54.8903 223.201 54.4266 225.611C55.3283 220.995 57.2492 216.346 59.0819 212.031C59.9812 209.918 60.9558 207.849 61.9956 205.811C62.2711 205.269 62.5595 204.717 62.845 204.187C62.9516 203.981 63.7045 202.207 63.1462 203.625C62.5878 205.043 63.3251 203.302 63.4572 203.076C63.8564 202.376 64.2654 201.69 64.6844 201.015C66.9328 197.341 69.404 193.822 72.0881 190.444C73.3776 188.807 74.7324 187.2 76.1042 185.642C76.7233 184.936 77.3524 184.242 77.9915 183.561C78.3664 183.146 78.7512 182.745 79.136 182.343C79.4001 182.076 79.6415 181.807 79.9057 181.54C78.8236 182.627 78.6362 182.834 79.349 182.116C82.1663 179.332 85.056 176.615 88.0946 174.089C92.5886 170.351 97.541 167.096 102.523 164.065C103.048 163.738 103.571 163.435 104.093 163.131C105.539 162.274 103.714 163.303 103.596 163.415C104.366 162.612 106.017 162.046 107.005 161.524C109.206 160.347 111.434 159.23 113.685 158.198C115.937 157.165 118.383 156.146 120.777 155.269C122.034 154.804 123.312 154.365 124.607 153.973C124.99 153.86 125.439 153.778 125.815 153.629C123.468 154.592 125.967 153.613 126.596 153.473C131.317 152.427 136.151 151.868 140.987 151.656C142.297 151.601 143.646 151.516 144.967 151.555C142.473 151.484 145.943 151.596 146.529 151.612C149.023 151.683 151.505 151.844 153.987 152.109C156.059 152.323 158.123 152.605 160.165 152.964C161 153.115 161.844 153.279 162.686 153.465C163.157 153.57 163.636 153.711 164.11 153.793C161.326 153.271 163.059 153.523 163.717 153.71C167.376 154.699 171.008 155.812 174.559 157.11C178.11 158.409 181.29 159.811 184.518 161.485C184.962 161.713 185.41 162 185.857 162.206C183.577 161.171 184.749 161.571 185.361 161.936C186.198 162.433 187.025 162.918 187.837 163.435C189.719 164.617 191.544 165.883 193.328 167.203C196.892 169.864 200.886 172.787 203.793 176.185C202.161 174.296 203.681 176.067 204.017 176.421C204.354 176.774 204.693 177.105 205.019 177.446C206.41 178.866 207.685 180.375 209.374 181.44C211.403 182.733 213.42 184.035 215.421 185.37C222.639 190.174 229.645 195.285 236.34 200.761C239.509 203.361 242.62 206.047 245.663 208.827C247.048 210.108 248.42 211.399 249.767 212.71C250.198 213.133 251.002 213.983 249.088 212.048C249.447 212.404 249.796 212.748 250.155 213.104C250.863 213.804 251.559 214.514 252.231 215.222C257.09 220.26 261.681 225.587 265.857 231.197C267.841 233.857 269.724 236.596 271.507 239.391C272.259 240.57 272.998 241.758 273.702 242.953C274.075 243.565 274.868 245.06 273.295 242.245C273.492 242.604 273.702 242.953 273.899 243.313C274.306 244.021 274.691 244.727 275.072 245.455C277.841 250.6 280.241 255.93 282.204 261.435C283.115 264.006 283.84 266.6 284.645 269.192C283.6 265.843 284.462 268.535 284.67 269.357C284.816 269.941 284.95 270.534 285.086 271.105C285.407 272.494 285.694 273.891 285.954 275.308C286.913 280.445 287.469 285.671 287.633 290.893C287.653 291.472 287.663 292.039 287.673 292.605C287.675 292.951 287.668 293.285 287.684 293.621C287.597 290.45 287.677 291.925 287.68 292.641C287.662 293.884 287.645 295.127 287.592 296.378C287.487 298.96 287.279 301.541 286.98 304.11C286.402 309.089 285.45 314.01 284.265 318.867C284.002 319.953 284.967 316.21 284.343 318.519C284.206 319.056 284.047 319.59 283.901 320.113C283.544 321.395 283.155 322.661 282.742 323.924C281.996 326.287 281.159 328.639 280.27 330.95C278.519 335.528 276.518 339.995 274.298 344.364C273.759 345.439 273.198 346.51 272.627 347.569C272.313 348.141 271.999 348.713 271.672 349.295C271.346 349.877 270.8 350.731 272.354 348.088C272.134 348.464 271.924 348.853 271.704 349.229C270.509 351.306 269.272 353.354 267.98 355.383C265.379 359.474 262.595 363.462 259.644 367.313C256.693 371.165 253.728 374.761 250.551 378.295C249.008 380.028 247.421 381.732 245.805 383.398C245.621 383.583 245.449 383.757 245.274 383.954C244.266 385.004 247.164 382.035 246.146 383.072C245.79 383.431 245.433 383.79 245.077 384.149C244.221 384.999 243.364 385.849 242.488 386.673C236.354 392.547 229.821 398.014 222.854 402.896C221.299 403.981 219.747 405.044 218.143 406.066C217.377 406.558 216.602 407.037 215.827 407.517C214.901 408.093 211.55 409.979 215.26 407.896C211.487 410.029 207.687 411.998 203.682 413.676C199.276 415.522 194.731 417.086 190.137 418.402L189.48 418.585C188.5 418.854 188.607 418.833 189.812 418.511C189.704 418.636 188.739 418.792 188.488 418.864C187.153 419.204 185.809 419.532 184.457 419.823C181.823 420.416 179.186 420.927 176.523 421.378C171.197 422.279 165.814 422.895 160.417 423.257C157.743 423.429 155.064 423.543 152.394 423.589C151.931 423.6 151.395 423.648 150.928 423.601C153.324 423.809 152.012 423.599 151.413 423.593C150.63 423.587 149.823 423.578 149.04 423.572C141.456 423.44 133.897 422.735 126.455 421.282C125.273 421.054 124.094 420.802 122.917 420.527C122.29 420.38 118.994 419.805 121.549 420.217C119.029 419.798 116.425 418.768 114.025 417.948C109.466 416.407 104.99 414.577 100.679 412.434C99.9088 412.049 99.1282 411.651 98.3604 411.243C98.1021 411.096 97.841 410.971 97.5827 410.823C96.0372 409.995 99.6263 412.002 98.0993 411.118C96.4871 410.178 94.9005 409.218 93.3451 408.193C90.2216 406.152 87.2245 403.93 84.3353 401.584C82.7558 400.291 81.1921 398.964 79.6794 397.598C78.9529 396.953 78.2391 396.299 77.5282 395.621C77.094 395.221 76.6626 394.798 76.2185 394.385C75.9191 394.105 75.6424 393.828 75.343 393.548C76.2979 394.487 76.5122 394.71 76.0014 394.184C72.5022 390.631 69.1181 386.989 65.8803 383.192C60.5141 376.868 55.4348 370.28 51.047 363.236C50.6441 362.586 50.2412 361.935 49.8511 361.275C49.6113 360.888 49.3744 360.477 49.1474 360.08C50.7533 362.726 49.7915 361.199 49.451 360.602C48.5999 359.111 47.7743 357.601 46.9743 356.07C45.2707 352.823 43.692 349.5 42.2355 346.122C40.7789 342.745 39.5253 339.497 38.3597 336.098C37.767 334.386 37.2098 332.667 36.7009 330.93C36.4542 330.138 36.2302 329.349 36.0062 328.56C35.8815 328.083 35.7468 327.593 35.6093 327.126C36.4556 330.035 35.761 327.664 35.6008 327.009C33.7823 319.711 32.5728 312.247 32.0944 304.748C31.9942 303.063 31.9168 301.381 31.8848 299.704C31.8807 299.092 31.9723 297.258 31.8676 300.025C31.8848 299.52 31.8793 299.011 31.8739 298.503C31.8856 297.49 31.92 296.479 31.9673 295.459C32.1347 291.639 32.4967 287.832 33.0858 284.053C33.3661 282.278 33.6918 280.508 34.0629 278.743C34.2819 277.733 34.5236 276.725 34.7525 275.727C35.0965 274.271 34.6018 276.377 34.5521 276.498C34.7837 275.847 34.9174 275.148 35.1036 274.491C36.1696 270.772 37.4697 267.118 38.9856 263.582C39.767 261.766 40.591 259.977 41.4802 258.22C41.9717 257.244 42.4959 256.283 42.9973 255.32C43.3269 254.715 43.8962 254.314 42.6294 255.954C42.9589 255.534 43.1891 254.986 43.466 254.525C45.5994 250.94 47.9556 247.51 50.5247 244.222C52.7543 241.341 52.8098 237.219 51.0352 234.171C49.3641 231.309 45.4714 228.779 41.9607 229.642L41.5674 229.743C36.9253 230.891 32.7449 234.796 33.667 240.044C34.4589 244.491 38.9938 249.166 43.9681 247.944L44.3614 247.844L35.7974 233.264C24.7556 247.462 17.5242 264.294 14.7993 282.072C12.3619 297.925 13.5226 314.426 17.4601 329.937C21.453 345.65 27.7302 360.347 36.2548 374.138C40.8171 381.538 46.1475 388.423 51.7903 395.024C58.3384 402.685 65.4658 409.957 73.2834 416.323C102.387 440.029 141.568 445.634 177.817 439.763C193.252 437.258 208.594 432.734 222.183 424.899C229.815 420.505 237.047 415.54 243.839 409.933C259.082 397.369 272.631 382.309 283.137 365.576C294.667 347.207 303.049 326.632 305.25 304.936C307.657 281.316 302.559 257.402 290.969 236.687C275.028 208.184 250.079 186.025 222.896 168.43C222.022 167.859 221.147 167.207 220.238 166.724C218.344 165.737 221.593 168.336 219.895 166.704C219.381 166.202 218.883 165.666 218.382 165.154C216.059 162.798 213.695 160.495 211.239 158.284C207.859 155.253 204.294 152.407 200.515 149.892C193.543 145.246 185.966 141.563 178.015 138.928C170.064 136.293 161.231 134.159 152.483 133.559C141.194 132.801 129.902 133.542 118.982 136.556C108.062 139.569 98.7601 144.77 89.6122 150.485C84.5577 153.635 79.5982 157.038 75.0942 160.949C60.7016 173.446 48.7056 188.632 41.4313 206.358C37.3452 216.319 34.7961 226.991 33.6622 237.69C33.1551 242.471 36.6154 247.53 41.6274 247.939C46.6395 248.348 51.3292 245.073 51.8762 239.974L51.977 239.998Z" fill="#231815"/>
<path d="M139.707 393.496C136.202 393.022 132.756 392.36 129.317 391.548C129.272 391.542 129.272 391.542 129.239 391.527C129.083 391.484 128.937 391.454 128.793 391.401C128.413 391.308 128.035 391.191 127.645 391.084C126.786 390.85 125.943 390.583 125.087 390.325C122.683 389.632 120.375 389.458 118.173 390.923C116.374 392.116 115.783 394.072 115.575 396.099C115.469 397.124 115.492 398.234 115.935 399.201C116.134 399.641 116.406 400.044 116.694 400.415C116.968 400.899 117.303 401.356 117.737 401.757C122.372 405.821 128.497 408.296 134.618 408.787C137.668 409.019 140.78 408.856 143.755 408.121C145.851 407.6 147.804 406.922 149.264 405.213C151.048 403.13 150.944 400.28 149.491 398.068C147.403 394.853 143.214 393.948 139.674 393.481L139.707 393.496Z" fill="#FF8300"/>
<path d="M107.019 387.358C106.995 387.275 106.958 387.201 106.911 387.114C106.808 386.928 106.672 386.727 106.568 386.541C106.51 386.36 106.452 386.18 106.361 385.984C106.008 385.213 105.477 384.478 104.766 383.985C103.937 383.42 103.469 383.292 102.481 383.076C101.987 382.968 101.438 383.026 100.93 383.031C100.156 383.038 99.4761 383.218 98.7223 383.435C98.6257 383.469 98.542 383.493 98.4454 383.527C98.4071 383.557 98.3588 383.574 98.2978 383.601C97.9769 383.768 97.6049 383.975 97.3139 384.181C97.0867 384.337 96.9248 384.524 96.7274 384.719C96.5045 384.933 96.3099 385.105 96.1622 385.363C95.9889 385.641 95.756 386.027 95.6253 386.334C95.6097 386.366 95.594 386.399 95.5756 386.454C95.5045 386.653 95.4505 386.9 95.4178 387.069C95.3694 387.27 95.3083 387.482 95.26 387.683C95.2387 387.761 95.2401 387.842 95.2414 387.923C95.2328 388.361 95.2241 388.798 95.2381 389.238C95.276 390.315 95.7142 391.512 96.4052 392.348C96.435 392.387 96.4648 392.425 96.4946 392.463C96.7585 392.75 97.0551 393.053 97.3474 393.297C97.4198 393.364 97.495 393.408 97.5801 393.464C98.3422 393.918 98.7439 394.118 99.4493 394.287C99.5146 394.318 99.5671 394.359 99.6323 394.391C100.291 394.658 100.962 394.73 101.676 394.647C101.734 394.643 101.815 394.641 101.874 394.637C101.815 394.641 101.77 394.636 101.712 394.64C101.909 394.63 102.104 394.643 102.301 394.633C102.776 394.612 103.305 394.447 103.726 394.304C104.206 394.157 104.706 393.85 105.143 393.49C105.169 393.47 105.181 393.46 105.207 393.44C105.284 393.381 105.36 393.321 105.437 393.261C105.698 393.017 106.001 392.721 106.242 392.451C106.281 392.421 106.309 392.379 106.337 392.336C106.363 392.316 106.391 392.274 106.407 392.241C106.593 391.953 106.826 391.567 106.969 391.251C107.144 390.869 107.208 390.45 107.292 390.057C107.313 389.979 107.325 389.888 107.323 389.807C107.331 389.474 107.349 389.049 107.321 388.723C107.327 388.677 107.31 388.629 107.315 388.584C107.283 388.383 107.218 388.168 107.159 387.987C107.114 387.797 107.062 387.571 106.994 387.378L107.019 387.358ZM96.0681 386.666C96.0681 386.666 96.0212 386.764 96.0055 386.797C96.0396 386.709 96.0553 386.676 96.0681 386.666ZM101.702 394.627L100.87 394.638C101.158 394.64 101.424 394.638 101.702 394.627Z" fill="#FF8300"/>
<path d="M152.34 235.891C154.24 234.907 158.07 233.057 159.916 231.951C161.463 231.015 164.833 229.073 166.363 228.088C170.577 225.387 171.191 224.91 174.999 221.95C177.222 220.222 179.203 218.314 180.754 215.879C181.155 215.26 181.49 214.61 181.361 213.89C181.093 212.438 180.526 211.075 179.631 210.029C176.112 205.897 171.162 205.726 166.754 208.414C165.953 208.913 165.147 209.458 164.309 209.884C166.514 208.765 164.136 209.977 163.664 210.241C162.125 211.109 160.566 211.952 159.01 212.772C156.097 214.298 153.14 215.715 150.145 217.058C144.086 219.759 137.862 222.116 131.525 224.089C129.857 224.607 128.192 225.101 126.506 225.571C126.387 225.602 126.207 225.66 126.004 225.715C125.154 225.966 124.276 226.156 123.419 226.372C120.266 227.141 117.086 227.85 113.895 228.465C107.419 229.706 100.894 230.595 94.3488 231.193C90.4281 231.555 87.0146 234.31 86.109 238.129C85.5716 240.392 85.9868 242.139 86.6648 243.724C87.9846 244.604 89.4961 245.151 91.0091 245.595C95.4176 246.863 100.031 247.234 104.603 247.472C106.505 247.572 113.245 247.172 114.697 246.904C127.612 244.533 140.217 240.865 152.317 235.888C152.317 235.888 152.317 235.888 152.33 235.879L152.34 235.891Z" fill="#FF8300"/>
</g>
</g>
<defs>
<clipPath id="clip0_237_4548">
<rect width="344" height="458" fill="white"/>
</clipPath>
<clipPath id="clip1_237_4548">
<rect width="369.964" height="342.693" fill="white" transform="translate(-79 227) rotate(-37.8538)"/>
</clipPath>
</defs>
</svg>
