<svg width="80" height="32" viewBox="0 0 80 32" fill="none" xmlns="http://www.w3.org/2000/svg">
<g clip-path="url(#clip0_238_16047)">
<path d="M50.7538 0.0865735C50.7103 0.0503416 50.6596 0.0213561 50.6016 0.00686337C50.3697 -0.0366149 50.1379 0.130052 49.79 0.405414L49.5219 0.608313C48.5654 1.11556 47.8335 3.49962 47.6741 4.47788C47.6451 4.49237 47.6234 4.50686 47.5726 4.53585C46.9857 3.52136 45.9132 2.58657 44.79 2.44165C45.2321 4.1373 46.7248 9.25324 48.7103 8.81121C49.7176 8.58657 51.8263 4.3402 51.848 1.99962V1.91266C51.8335 0.67353 51.2611 0.231501 50.7538 0.0793271V0.0865735Z" fill="#F08300"/>
<path d="M64.1524 26.1525C61.6597 26.2539 60.8336 26.1235 58.3916 26.9278C58.0582 27.0293 57.7611 27.2612 57.4858 27.5728C57.522 28.0873 57.2177 28.8988 57.6959 29.0945C57.7177 29.0945 57.7177 29.1742 57.7394 29.2177C57.8771 29.3626 58.022 29.3844 58.1669 29.5583C58.2611 29.6887 58.3336 29.5438 58.435 29.5945C58.4785 29.6452 58.5075 29.7249 58.551 29.7322C58.7901 29.8481 59.0075 29.7974 59.2466 29.9133C59.3698 30.0148 59.4858 29.993 59.609 30.0075C59.6814 29.9786 59.7756 30.1525 59.7974 30.1887C60.2539 30.3771 60.6669 30.2104 61.1307 30.2032C62.5075 30.1815 62.2539 30.0438 63.6307 30.022C64.7901 30.0075 65.9278 30.1815 67.0872 30.167C67.7177 30.1452 68.4061 30.167 69.0292 30.1235C70.1452 30.0583 71.2611 30.2322 72.3698 30.2394C72.9278 30.2249 73.5727 30.4423 74.1379 30.4858C74.7394 30.4858 75.3119 30.3336 75.9278 30.4568C76.1234 30.4713 76.3191 30.4423 76.5147 30.5365C76.6959 30.6307 76.8916 30.7177 77.0655 30.7322C77.6017 30.7684 78.0727 30.5728 78.5945 30.3771C78.9061 30.2829 79.2176 30.2322 79.493 30.051C79.6379 29.9858 79.7611 29.7612 79.8191 29.5365C79.964 29.1235 80.08 28.667 79.9278 28.1887C79.8988 28.1887 79.8263 28.2177 79.8046 28.1815C79.7539 28.1017 79.7611 27.9061 79.6887 27.8988C79.464 27.8119 79.2394 27.7902 79.022 27.7322C78.7249 27.6742 78.4205 27.5365 78.1307 27.4786C76.7539 27.1452 68.8626 25.9568 64.1452 26.1525H64.1524Z" fill="#009F73"/>
<path d="M40.0436 27.0648C40.2973 27.1228 40.5799 27.1155 40.7175 27.2822C40.8552 27.4126 40.5871 27.6228 40.6016 27.7967C40.6016 28.2097 40.7465 28.5793 40.7465 28.9851C40.7465 29.0575 40.7175 29.1228 40.6451 29.1952C40.5726 29.2967 40.4567 29.4054 40.348 29.4778C40.0002 29.6952 39.5436 29.6155 39.1451 29.7315C38.6306 29.8909 38.0654 29.9488 37.5364 29.9996C36.5654 30.101 35.6523 29.8981 34.6668 29.8691C34.2973 29.8474 33.8915 29.8981 33.5799 30.0141C33.1378 30.13 32.6886 30.1155 32.2393 30.101C29.906 30.0141 27.6161 29.9633 25.2973 29.9851C24.8915 29.9996 24.4422 30.0503 24.0364 30.0648C22.1668 30.1735 20.3045 30.1373 18.4349 30.188C17.7828 30.2025 17.1378 30.2242 16.4784 30.2097C16.1161 30.217 15.7465 30.2242 15.4204 30.2315C14.0436 30.3039 12.6233 30.3691 11.2393 30.3112C10.7103 30.3184 10.1451 30.3184 9.6161 30.3257C8.07262 30.4054 6.50016 30.659 4.94943 30.572C3.8045 30.5141 2.73204 30.2459 1.68856 29.7097C0.978417 29.3402 0.420446 28.8329 0.0146484 28.217C0.282764 27.8691 0.681315 27.7315 1.12334 27.6228C2.16682 27.3402 3.13059 27.1662 4.18131 26.9851C5.06537 26.8402 5.87697 26.7604 6.73204 26.688C17.906 25.688 30.4277 26.0575 35.3117 26.3909C36.9567 26.4996 38.4784 26.717 40.0581 27.0648H40.0436Z" fill="#0073BD"/>
<path d="M60.203 16.6229V16.7534C60.3045 17.007 60.5001 17.0722 60.703 17.2606H61.348C61.348 17.1374 61.5001 17.2606 61.5001 17.1374C61.6451 17.1374 61.8697 17.0722 61.9711 16.8838H62.0798C62.1885 16.6881 62.348 16.5577 62.5653 16.5577C62.8335 16.2389 63.0943 15.92 63.3625 15.6012C63.3625 15.4708 63.4132 15.3403 63.5219 15.2824C63.6813 14.7099 63.79 14.065 64.0509 13.4925C64.0509 13.3041 64.1595 13.0432 64.1016 12.8548C64.1595 12.8548 64.2103 12.8548 64.2103 12.7896C64.1596 12.536 64.319 12.4055 64.4277 12.2824C64.5364 12.2824 64.6378 12.2824 64.6958 12.1519V12.0215C64.9639 12.0215 65.261 12.2171 65.4711 12.4708H65.819C65.819 12.6012 65.8842 12.6012 65.9566 12.6664C66.2393 12.6664 66.8552 12.6012 67.1306 12.7316C67.1306 12.92 67.4132 12.8548 67.4784 13.0505C67.5436 13.2461 67.5436 13.4345 67.6885 13.6302C67.6885 13.6954 67.6885 13.7534 67.6161 13.8186C67.7538 14.0142 67.8987 14.3331 67.6885 14.5215C67.7538 14.7751 67.6885 15.0939 67.8262 15.3476C67.6885 15.478 67.7538 15.6664 67.7538 15.7968C67.8987 16.0505 67.8987 16.3766 67.9639 16.6954C68.2465 17.0142 68.174 17.3983 68.3842 17.7171V18.1012C68.5219 18.1012 68.3842 18.2896 68.5219 18.2896C68.5943 18.6737 68.3842 19.1229 68.3842 19.507C68.3117 19.5722 68.2465 19.6374 68.174 19.6954V19.8258C68.1016 19.8258 68.0364 19.8258 68.0364 19.7606C67.8987 19.949 67.6885 20.0795 67.5436 20.2751C67.4059 20.2099 67.3335 20.3331 67.2682 20.3331C67.1233 20.3331 67.2682 20.5287 67.1233 20.5287C66.9784 20.5287 66.8407 20.5939 66.7755 20.6592C66.6378 20.7244 66.1595 20.5939 66.0146 20.7244L65.9422 20.6592C65.8697 20.7244 65.8045 20.7896 65.6596 20.7896C65.6596 20.7244 65.6596 20.6592 65.5871 20.6592C65.5146 20.8476 65.2103 20.978 65.0291 20.9128C64.9639 20.7896 64.9929 20.6881 64.8335 20.6302C64.7827 20.2316 64.7827 19.8838 64.5653 19.536C64.6161 19.536 64.6161 19.478 64.6161 19.4273C64.5653 19.2534 64.4566 19.0795 64.4566 18.9055C64.2972 18.6809 64.2393 18.3331 64.0291 18.1592C64.0798 18.1012 63.9204 18.0432 63.9784 17.9853C63.8697 17.8693 63.819 17.8113 63.7103 17.6954C63.6016 17.6954 63.6016 17.7534 63.5509 17.8113C63.5001 18.1012 63.232 18.3331 63.1813 18.6229L63.1306 18.565C63.0726 18.7389 62.9132 18.8548 62.9132 19.0287C62.8045 19.0867 62.7538 19.2606 62.6451 19.3186V19.4345C62.2755 19.7824 62.0726 20.3331 61.6233 20.5795C61.5146 20.8186 61.232 20.8693 61.1161 21.1374C60.9494 21.1374 60.6885 21.2026 60.4784 21.2751C60.3407 21.2099 60.1306 21.0722 59.9929 21.2099C59.9929 21.1447 59.9204 21.1447 59.8552 21.1447L59.79 21.2099C59.6523 21.0722 59.4422 21.2099 59.232 21.1447C58.8117 20.8113 58.3262 20.6737 57.8407 20.4055C57.703 20.4055 57.8407 20.2026 57.703 20.2026C57.6306 20.2026 57.5653 20.2026 57.5001 20.1374C57.5001 19.9345 57.5653 19.7968 57.3552 19.6664L57.4277 19.6012C57.4277 19.536 57.3552 19.536 57.29 19.536C57.2175 19.1302 57.0146 18.7968 56.9422 18.3983C56.8939 18.3548 56.848 18.3089 56.8045 18.2606C56.8045 18.0577 56.732 17.8548 56.6668 17.7244C56.6016 17.4563 56.8407 17.2316 56.703 16.9708C56.703 16.9128 56.703 16.8476 56.7682 16.7824C56.703 16.4635 56.7682 16.2679 56.8335 15.949C56.7682 15.949 56.7682 15.8838 56.7682 15.8186C56.9059 15.565 56.9059 15.3041 56.9059 15.0505C56.9711 14.8548 57.1088 14.6664 57.174 14.4708L57.1088 14.4055C57.2393 14.2751 57.174 14.0795 57.3769 13.9563C57.3769 13.8983 57.3769 13.8331 57.3117 13.8331C57.3117 13.7026 57.4422 13.6447 57.5146 13.5795C57.5798 13.449 57.8407 12.949 57.9929 12.8476L57.9422 12.7751C58.0581 12.6084 58.3552 12.536 58.5871 12.5215C58.7682 12.507 59.1016 12.6809 59.203 12.7389C59.2827 12.891 59.203 13.007 59.3045 13.2026H59.4059V13.3331C59.4059 13.3983 59.4567 13.3983 59.5001 13.3983C59.5509 13.5867 59.6523 13.7824 59.6016 13.9708C59.6016 14.036 59.6523 14.036 59.703 14.036C59.6523 14.1592 59.8045 14.2896 59.8045 14.42C59.703 14.5505 59.8045 14.7389 59.7538 14.9273C59.9059 15.2461 59.8552 15.6302 60.0001 15.949C60.0001 16.2026 60.1016 16.4635 60.203 16.6519V16.6229Z" fill="#231815"/>
<path d="M34.4928 18.992C34.4928 18.992 34.7536 19.1587 34.8261 19.2819C34.8986 19.4051 35.0362 19.5645 35.1304 19.6007C35.2681 19.6514 35.3985 19.7311 35.3985 19.7311L35.4855 19.9123L35.7029 20.1152C35.9348 20.1804 35.9783 20.05 36.1522 20.2891C36.2319 20.2891 36.3043 20.2891 36.3043 20.3543L36.3841 20.2891C36.4565 20.4268 36.6159 20.492 36.6884 20.5572C36.9203 20.5572 37.1159 20.6442 37.2754 20.7819C37.3478 20.7819 37.3623 20.934 37.3623 20.8688C37.5942 20.9268 37.7536 21.0935 37.913 20.9485C37.9855 20.9485 38.0652 20.9485 38.0652 21.0138L38.1377 20.9485C38.2899 20.8833 38.3261 21.0645 38.4783 20.992C38.558 20.992 38.558 21.0572 38.558 21.1297H38.7101C38.8623 21.2674 39.5145 21.0862 39.6739 21.2239C40.5362 21.3326 41.9493 21.1369 41.9493 21.1369C41.9565 21.0065 42.1739 21.1442 42.1739 21.0138L42.2464 21.0862C42.5362 21.1659 42.8478 20.8326 43.1304 20.9703C43.1836 20.9316 43.2343 20.8906 43.2826 20.8471C43.4348 20.7891 43.6449 21.0645 43.7971 20.8688C43.7971 20.934 43.8696 20.934 43.942 20.9413C43.942 20.8978 43.9444 20.8543 43.9493 20.8109C44.1739 20.6877 44.4493 20.7239 44.6159 20.5427C44.6884 20.5427 44.8333 20.5645 44.9058 20.5717C44.9589 20.5331 45.0121 20.4944 45.0652 20.4558C45.4493 20.3616 45.7754 20.0645 46.2101 19.963C46.2754 19.8906 46.4203 19.8761 46.4855 19.7456C46.558 19.7384 46.6304 19.7311 46.7029 19.7239C46.7681 19.6587 46.8406 19.579 46.8986 19.5138C47.1232 19.5572 47.3188 19.2456 47.5362 19.2167C47.529 19.1514 47.5145 19.0862 47.587 19.079L47.6667 19.1297C47.7536 19.0717 47.814 18.9968 47.8478 18.9051C48.0725 18.934 48.2029 18.6587 48.3188 18.5065C48.3672 18.4968 48.4155 18.4896 48.4638 18.4848C48.5121 18.4799 48.5531 18.4292 48.587 18.3326C48.6353 18.3229 48.6836 18.3157 48.7319 18.3109C48.9275 18.1442 49.0362 17.934 49.3116 17.8181C49.3044 17.7529 49.2899 17.6877 49.3623 17.6804C49.5145 17.7239 49.4855 17.5282 49.5435 17.4558C49.6015 17.4123 49.7971 17.2746 49.8478 17.3326C49.8406 17.4413 50.0362 17.0572 50.029 17.1587C50.0797 17.2239 50.3333 16.5717 50.3913 16.5282L49.7826 14.934C49.558 15.2529 48.7536 16.2964 48.3261 16.3906C48.3261 16.7239 47.9638 16.7456 47.7101 16.934C47.7246 16.9993 47.7464 17.0572 47.6667 17.079C47.4493 17.1225 47.3623 17.3616 47.2174 17.3978C47.2029 17.3326 47.1304 17.3543 47.058 17.3688C47 17.4485 46.8623 17.4775 46.8188 17.6225C46.6014 17.6732 46.5435 17.8833 46.4203 18.0355L46.3333 17.9775C46.0725 18.2167 45.7029 18.1949 45.529 18.4848C45.1159 18.6804 44.7609 18.7529 44.3333 18.9051C44.2609 18.9051 44.1884 18.9123 44.1884 18.8471C44.1232 18.9848 43.8188 18.8688 43.7536 19.0065C43.3188 19.0355 42.942 18.992 42.5072 19.0935C42.5072 18.963 42.2899 19.108 42.2826 18.9775C41.9203 19.1297 41.558 18.9268 41.1884 18.9268C41.1159 18.8616 40.971 18.8616 40.8913 18.7311C40.529 18.7964 40.3043 18.7311 40.087 18.5355C39.8696 18.5355 39.7174 18.3398 39.5 18.2746V18.1442C39.4517 18.1007 39.4034 18.0572 39.3551 18.0138C39.3551 17.8181 39.5725 17.8181 39.7246 17.7529C39.8696 17.5572 40.2681 17.608 40.413 17.4051C40.413 17.3398 40.6087 17.2094 40.6087 17.1442C40.6812 17.0138 40.7319 16.8906 40.8043 16.8906C41.029 16.7601 40.8841 16.608 41.1739 16.5427C41.1739 16.4775 41.4058 16.3181 41.3333 16.2529C41.6304 16.0572 41.6232 15.9485 41.6957 15.5572C41.8478 15.3616 42.058 15.1442 42.058 14.8906C42.1304 14.8254 42.0435 14.5427 42.1884 14.4775C42.2609 14.021 42.0725 13.7819 42.0725 13.3254C42.0242 13.2819 41.9758 13.2384 41.9275 13.1949C41.9275 12.9993 41.7826 12.8688 41.8551 12.6732C41.6377 12.4775 41.6884 12.4123 41.471 12.2239L41.3406 12.0862H41.1957C41.1232 11.9558 40.8986 11.8906 40.8986 11.7601C40.6087 11.6949 40.3116 11.4993 40.0217 11.3688L39.9493 11.434L39.8768 11.3688C39.8285 11.4123 39.7802 11.4558 39.7319 11.4993C39.7319 11.3036 39.5145 11.4993 39.442 11.3688C39.2899 11.3688 39.1449 11.3036 39 11.434C38.558 11.3036 38.087 11.5282 37.6449 11.3398C37.6449 11.4703 37.3478 11.2746 37.3478 11.4703C37.2029 11.5355 36.9928 11.5282 36.913 11.5935H36.6957C36.471 11.7891 36.2899 12.0138 35.8551 12.0138C35.7101 12.0138 35.8551 12.2094 35.7101 12.2094H35.5652C35.2029 12.5355 34.9058 12.9268 34.4638 13.1877C34.4638 13.2529 34.3188 13.3181 34.3913 13.4485C34.3913 13.5138 34.3188 13.5138 34.2391 13.5138C34.2391 13.6442 34.1667 13.7094 34.0942 13.7746C34.0942 13.8398 34.0942 13.9051 34.1667 13.9051C34.1667 13.9703 34.058 14.1369 33.9783 14.1369C33.9058 14.3978 33.9058 14.6587 33.6884 14.7891C33.6884 15.3036 33.5362 15.5572 33.5 16.1297C33.5507 16.434 33.5725 16.8906 33.5725 17.1659C33.8043 17.3036 33.5145 17.2964 33.6667 17.4993C33.7391 17.4993 33.7029 17.6225 33.7029 17.6877C33.7754 17.8254 34.0217 17.9196 33.942 18.0572C33.942 18.1225 34.0725 18.1877 34.1449 18.1877C34.2174 18.3254 34.029 18.4775 34.1884 18.5427C34.1884 18.6152 34.4348 18.5572 34.3551 18.6949L34.4855 18.992H34.4928ZM39.2754 14.7529C39.1232 14.8181 39.2754 14.9558 39.1232 15.0282L39.1957 15.0935C39.1449 15.6514 38.7899 16.4123 38.0145 16.9558C37.942 16.9558 37.8623 16.9558 37.8623 16.8906C37.8623 16.7529 37.7174 16.5427 37.7899 16.4051C37.7899 16.3398 37.7174 16.3398 37.6377 16.3398C37.7899 16.2022 37.5362 16.0645 37.6159 15.8616C37.5435 15.8616 37.5435 15.7964 37.5435 15.7239C37.7681 15.5862 37.587 15.2311 37.8043 15.0935L37.7319 15.0282C37.8043 14.8906 37.9203 14.6732 38.0652 14.5427V14.4051C38.3551 14.1297 38.7464 14.0065 39.1159 13.8761C39.1884 13.8761 39.2681 13.8761 39.2681 13.9413C39.4855 14.2167 39.3406 14.492 39.2681 14.7674L39.2754 14.7529Z" fill="#231815"/>
<path d="M52.0218 14.1234C52.029 14.2176 52.0363 14.3045 52.0507 14.3915C52.5507 14.877 52.4565 15.7103 52.7899 16.2973C52.6305 16.5002 52.7464 16.7611 52.6739 16.9495C52.7416 17.0026 52.8068 17.0558 52.8696 17.1089C52.7391 17.5799 53.058 17.993 53.0145 18.4567C52.9614 18.5244 52.9058 18.592 52.8478 18.6596C52.8551 18.7466 52.8696 18.8408 52.9565 18.8263L52.8768 18.9277L52.971 19.0074L52.8913 19.1089C52.9783 19.0944 52.9855 19.1886 52.9928 19.2756C52.8334 19.4785 53.1305 19.7103 52.8768 19.9277C52.9783 20.0074 52.9855 20.0944 52.9928 20.1886C52.7464 20.406 52.8986 20.7901 52.7247 21.0654L52.8116 21.1524L52.7247 21.2466L52.6305 21.1596C52.5435 21.1596 52.5435 21.2538 52.5435 21.3408C52.6377 21.5147 52.8189 21.6886 52.6449 21.877L52.7391 21.964C52.471 22.1596 52.3913 22.3843 52.3116 22.6524C52.2585 22.7152 52.2029 22.7756 52.1449 22.8335C52.2319 22.9205 52.2319 23.0002 52.2319 23.0872C52.0725 23.2683 51.9855 23.4495 51.8261 23.6306C51.8261 23.7176 51.9131 23.8843 51.7464 23.9785L51.8334 24.0582C51.7536 24.2393 51.6739 24.5002 51.6015 24.6741C51.6812 24.6741 51.6812 24.7538 51.6884 24.8408C51.442 25.0219 51.1522 25.2248 51.2464 25.5654C51.087 25.8335 50.8841 25.9277 50.7174 26.1959C50.8044 26.3625 50.4203 26.4422 50.4276 26.6161C50.4276 26.7901 50.1812 26.7176 50.2681 26.8843L50.3551 26.964C50.2971 26.964 50.2416 26.9688 50.1884 26.9785C50.1353 27.0944 50.0532 27.1838 49.942 27.2466C49.942 27.3335 49.942 27.4205 49.8623 27.4205C49.7102 27.5364 49.6377 27.6669 49.4783 27.848C49.5652 27.9277 49.2102 28.1089 49.2971 28.1161C49.2029 28.1959 49.116 28.2828 49.0942 28.4495C49.0145 28.4495 48.9276 28.4422 48.9203 28.5292V28.6451C48.8623 28.7031 48.8478 28.7031 48.7247 28.7321C48.0725 29.4785 47.116 29.7756 46.4565 30.5147C46.2826 30.5944 46.1087 30.6669 45.9348 30.7466C45.7609 30.8263 45.8189 31.0872 45.6594 30.993C45.6667 30.906 45.4348 31.0654 45.3478 31.0654C45.1667 31.2248 44.8913 31.1089 44.7247 31.1016C44.7247 31.0147 44.6305 31.0364 44.558 30.9422L44.4638 31.0219C44.3913 30.935 44.2029 30.7611 44.116 30.7538C44.0435 30.6669 44.2029 30.5727 44.1232 30.5727L44.2102 30.4857C44.2174 30.3987 44.0797 30.377 43.9928 30.3698C43.8406 30.1886 44.1667 30.3263 44.0942 30.1524L43.7681 30.1234C43.6884 29.9567 43.529 29.9495 43.4565 29.7756C43.471 29.6016 43.8406 29.6089 43.8551 29.435C44.0218 29.4422 43.971 29.4132 44.1522 29.3335L44.087 29.2103C44.2681 29.1306 44.2392 28.9785 44.3189 28.9857C44.3116 29.0727 44.3841 28.9712 44.4638 28.9785C44.5507 28.9785 44.6305 28.9857 44.6377 28.8988C44.6449 28.819 44.6522 28.7248 44.7464 28.6451C44.8044 28.6451 44.8623 28.6475 44.9203 28.6524C45.2826 28.3263 45.0507 28.5437 45.4276 28.1306C45.4324 28.0727 45.4372 28.0147 45.442 27.9567C45.5363 27.877 45.5507 27.7031 45.7247 27.6234C45.7174 27.7103 45.7029 27.7973 45.7899 27.7973C46.058 27.6379 45.8986 27.5437 45.8334 27.3698C45.8962 27.3118 45.9565 27.2562 46.0145 27.2031C46.0073 27.2901 46.1522 27.2248 46.0725 27.2176C46.0725 27.3045 46.1594 27.0147 46.2464 27.0219C46.4565 26.7031 46.3044 27.0799 46.6087 26.493C46.6739 26.4277 46.8334 26.3625 46.8478 26.3263C46.8261 26.319 47.0435 26.2393 46.9638 26.1524C46.9565 26.0799 46.9855 26.0582 46.8116 26.1306C46.9131 25.964 47.2029 25.7103 47.2174 25.5364C47.4565 25.6306 47.2681 25.2466 47.4348 25.2538C47.3406 25.3335 47.2609 25.1669 47.2681 25.2538H47.5435C47.7247 25.0799 47.2826 25.0872 47.4493 24.906C47.4493 24.819 47.4203 24.7683 47.3334 24.7756C47.3334 24.6886 47.3116 24.6161 47.3986 24.6089L47.4855 24.6886C47.5652 24.6016 47.4058 24.3118 47.5725 24.2103C47.5725 24.1234 47.5725 24.0364 47.5725 23.9495C47.8189 23.7611 47.7102 23.7901 47.7826 23.5292L47.7029 23.4495C47.7029 23.5364 47.8841 23.3698 47.7971 23.3698C47.7971 23.3118 47.7971 23.2538 47.7971 23.1958C47.9638 23.1016 48.0797 22.5219 48.0725 22.3553C48.0725 22.5292 47.8768 21.964 48.0435 22.0364C48.2826 21.6741 48.116 21.1958 48.1594 20.7538C47.9855 20.6886 48.2971 20.5654 48.1957 20.406C48.1087 20.406 48.029 20.4277 48.0218 20.3408C48.0701 20.278 48.1184 20.2128 48.1667 20.1451C48.1594 20.0582 48.1522 19.9712 48.0725 19.9857C48.0652 19.8987 48.058 19.8118 48.1377 19.8045C48.1305 19.7176 48.1232 19.6306 48.0363 19.6451C48.0846 19.5775 48.1353 19.5123 48.1884 19.4495C48.1812 19.3698 48.0942 19.377 48.0145 19.3843C48.0652 19.0292 47.7102 18.7683 47.8406 18.406C47.7536 18.4132 47.7464 18.3335 47.7391 18.2466C47.9638 17.9567 47.6594 17.6089 47.7971 17.3335C47.6232 17.2683 47.6884 17.0872 47.6667 16.9132C47.7391 16.819 47.529 16.7321 47.5218 16.6451C47.3116 16.2321 47.3696 15.906 47.2392 15.4712C47.0725 15.6161 46.9565 14.2683 46.8116 13.7393C46.5942 13.3987 46.7392 13.0219 46.616 12.6741C46.7029 12.6596 46.7971 12.6451 46.7826 12.5582C46.6667 12.2973 46.9276 12.1741 46.9855 11.8987C47.1667 11.877 47.3334 11.7611 47.5363 11.9205C47.7029 11.8118 47.5942 11.6379 47.587 11.5509C47.942 11.5074 48.2102 11.4712 48.5725 11.4277C48.587 11.5147 48.587 11.6089 48.6812 11.5944C48.9493 11.5654 49.058 11.7321 49.3261 11.6958C49.3334 11.7901 49.3478 11.877 49.4348 11.8625C49.6087 11.8408 49.7102 11.9205 49.8116 12.0002C49.8986 11.9857 49.9928 11.9785 49.9855 11.8843L50.087 11.964L50.1667 11.8625C50.2609 11.9422 50.3551 11.9277 50.442 11.9205C50.5435 12.0002 50.5725 12.2683 50.7391 12.1596C51.1667 12.8335 51.6812 13.406 52.0218 14.0944V14.1234Z" fill="#231815"/>
<path d="M12.5075 15.7321C12.4785 15.5872 12.2684 15.5437 12.1814 15.5437C12.0945 15.5437 11.935 15.7249 11.8481 15.5872C11.8481 15.5872 11.7032 15.8191 11.5365 15.9423C11.4205 16.022 11.2394 16.0147 11.2394 16.0147C11.1959 16.2321 11.1742 16.2611 11.3698 16.7756C11.4568 16.7901 11.551 17.2828 11.6452 17.3046C11.6017 17.1162 11.8988 17.7176 11.993 17.7973C12.0317 17.807 12.0727 17.8167 12.1162 17.8263C12.1742 17.8408 12.1524 17.8988 12.1162 17.9495L12.3843 18.1379C12.4133 18.2104 12.4713 18.2321 12.4061 18.3336C12.6162 18.3481 12.7394 18.4713 12.9133 18.5437C12.9713 18.5727 12.935 18.6162 12.8988 18.6669C12.9568 18.6886 13.0147 18.7176 13.0437 18.6669C13.1959 18.6669 13.0872 18.8191 13.109 18.8915L13.1959 18.8698C13.2176 18.9423 13.3336 18.993 13.3336 18.993C13.5147 19.2684 14.3916 19.5944 14.609 19.8408L14.6959 19.7973C14.7611 19.935 15.1452 19.964 15.1452 20.1524L15.2249 20.1017C15.2611 20.1669 15.8408 20.2756 16.0003 20.3626C16.08 20.3118 15.964 20.2249 16.0582 20.1814C16.1524 20.2684 16.3481 20.4495 16.4423 20.5292C16.4423 20.5292 16.6887 20.551 16.8698 20.5872C17.0945 20.8263 17.5582 20.6741 17.8263 20.7973C17.8626 20.8698 17.9205 20.8843 17.9785 20.8915L18.0655 20.8481L18.1017 20.9205C18.2684 20.8336 18.3626 20.9205 18.4785 20.8191L18.5147 20.8915L18.5945 20.8481C18.6186 20.8915 18.6404 20.9374 18.6597 20.9857C18.8988 21.0365 19.1162 21.1524 19.3698 21.022C19.4061 21.0944 19.464 21.1089 19.522 21.1162C19.58 21.0872 19.6379 21.0582 19.6959 21.0292C19.8771 21.0655 19.9061 21.1379 20.1162 21.1234L20.1524 21.1959C20.4061 21.0655 20.5872 21.1017 20.8263 21.1597C20.8771 21.0437 21.0075 21.2031 21.0582 21.0872L21.0872 21.1597C21.2901 21.0147 21.5945 21.0944 21.7974 21.0799L21.8263 21.1524C21.9133 21.1089 21.8771 21.1524 21.8771 21.1524C22.051 21.0727 22.464 21.0655 22.58 20.9713C22.8118 21.0292 22.8119 21.0799 23.1307 21.0365C23.1959 21.051 23.3263 21.0799 23.3916 21.1017C23.6524 20.9278 23.8843 20.9278 24.1162 21.0655C24.3771 21.0147 24.7974 20.8118 25.022 20.6886C25.0872 20.7104 25.1524 20.7321 25.2249 20.7466C25.3191 20.7104 25.3843 20.7321 25.4495 20.6234C25.7394 20.522 25.9568 20.4205 26.2249 20.2394C26.2539 20.3118 26.4205 20.1741 26.4495 20.2394C26.4689 20.2056 26.4906 20.1693 26.5147 20.1307C26.6452 20.1669 26.7394 20.0075 26.8698 20.051C26.894 20.0123 26.9157 19.9761 26.935 19.9423C27.1307 19.877 27.051 19.8263 27.2539 19.7611C27.4205 19.6452 27.6597 19.2539 28.0437 19.0799C28.0365 18.9568 28.2901 18.8843 28.3481 18.7756C28.3771 18.7176 28.4423 18.7321 28.5075 18.7539L28.464 18.6814C28.5582 18.6379 28.5365 18.4495 28.6234 18.5365C28.6452 18.4785 28.7611 18.3336 28.7032 18.3191C28.8916 18.1741 28.8916 17.6959 29.1669 17.6307C29.1814 17.592 29.1983 17.5558 29.2176 17.522C29.3263 17.3698 29.2829 17.0944 29.3481 17.0655C29.3698 17.0075 29.3408 16.9713 29.3988 16.9857C29.4713 16.7611 29.522 16.4278 29.5872 16.1307C29.5292 16.1162 29.5582 16.0582 29.5872 16.0002C29.6452 16.0147 29.6669 15.9568 29.6887 15.906C29.6307 15.8915 29.6597 15.8336 29.6814 15.7756L29.7611 15.7321C29.6452 15.7104 29.7756 15.551 29.6597 15.5292L29.7321 15.4785C29.6379 15.2104 29.7756 14.935 29.6814 14.6669L29.7539 14.6234C29.6234 14.464 29.6452 14.3118 29.7539 14.1452C29.7176 14.0727 29.7321 14.0147 29.7539 13.9568C29.6017 13.8626 29.7901 13.7611 29.6887 13.6741C29.7466 13.5002 29.5582 13.3336 29.6669 13.1741C29.5945 13.0365 29.58 12.9712 29.493 12.8408C29.5075 12.7828 29.5292 12.7249 29.5437 12.6597C29.4858 12.6452 29.4278 12.6379 29.4423 12.5799C29.5365 12.4785 29.4423 12.3915 29.464 12.2756C29.3481 12.2539 29.4133 12.1524 29.3698 12.0872C29.3336 11.7684 29.2539 11.5292 29.0655 11.2684C29.1452 11.1524 28.9858 10.6886 28.993 10.551L28.8771 10.493C28.8263 10.3481 28.7756 10.2684 28.6669 10.1886C28.6669 10.1403 28.6693 10.092 28.6742 10.0437C28.6162 10.0437 28.5582 10.0437 28.5655 9.964C28.5655 9.91569 28.5703 9.86739 28.58 9.81908L28.5147 9.89154C28.4061 9.81908 28.3553 9.6669 28.3698 9.52198C28.1597 9.22487 28.08 9.00748 27.7756 8.5727C27.6597 8.63792 27.7756 8.34806 27.6307 8.41328C27.464 8.05096 27.3626 7.95676 27.1162 7.73212C27.1162 7.68381 27.121 7.6355 27.1307 7.58719C27.1404 7.53888 27.0969 7.53888 27.0003 7.58719C26.935 7.58719 26.9423 7.51473 26.9495 7.44227C26.5727 7.21038 25.2321 7.02198 25.022 6.65241C24.9061 6.65241 24.7901 6.5727 24.7249 6.71763C24.6911 6.66932 24.6548 6.61859 24.6162 6.56545C24.3046 6.7756 24.0365 6.40603 23.7466 6.31908L23.6814 6.39154C23.58 6.17415 23.3843 6.37705 23.2684 6.37705C23.2176 6.30458 23.1524 6.30458 23.1017 6.29734C22.7901 6.43502 22.5147 6.2756 22.2466 6.63067L22.1959 6.55821L22.8626 7.80458C22.8481 7.8698 23.0365 8.64516 23.2104 9.03647C23.2684 9.05096 23.3481 9.18864 23.3916 9.26835C23.3819 9.31666 23.3722 9.36255 23.3626 9.40603C23.4495 9.5727 23.5437 9.73212 23.6307 9.89154C23.5727 9.87705 23.5582 9.94226 23.5437 10.0147C23.6162 10.2466 23.609 10.493 23.6814 10.7176C23.7756 10.8046 23.6669 10.8481 23.7684 10.9568C23.7756 10.9713 23.7104 11.1017 23.7176 11.1089C23.6742 11.2176 23.7466 11.3553 23.7466 11.3553C23.7829 11.6017 23.7684 11.406 23.9423 11.5872C23.7829 11.7756 24.051 12.0872 23.8916 12.2756C23.9785 12.3626 23.9858 12.2394 24.0075 12.3118C23.9882 12.3456 23.9689 12.3795 23.9495 12.4133C23.9205 12.464 23.9785 12.4857 24.0292 12.5075C24.0872 12.6452 23.9858 12.7321 24.0582 12.8698C24.1162 12.8843 24.0582 13.0582 24.1234 13.0655C24.1379 13.1886 24.2974 13.2321 24.1452 13.3191C24.0872 13.3046 24.1162 13.5582 24.0582 13.7249C24.0945 13.7901 24.0582 14.0799 24.0437 14.1379C24.1017 14.1524 24.1379 14.0799 24.1162 14.1379C24.1017 14.1766 24.0896 14.2128 24.08 14.2466C24.1379 14.2611 24.1307 14.3626 24.109 14.4205C24.109 14.6017 23.993 14.6886 23.9278 14.8553C23.8626 15.2176 24.051 15.5147 23.8046 15.6452C23.8916 15.7249 23.7901 15.8191 23.7611 15.877C23.6742 15.9205 23.7032 16.0944 23.6234 16.1379C23.5292 16.3626 23.4858 16.3481 23.3988 16.5727C23.2466 16.6597 23.2249 16.7539 23.08 16.8408C23.0655 16.8795 23.0486 16.9157 23.0292 16.9495C23.0075 17.0075 22.9568 16.993 22.9061 16.9857C22.8119 17.0872 22.4713 17.2394 22.4278 17.3481L22.4568 17.4205C22.2539 17.493 22.1959 17.5147 21.9713 17.6452C21.7466 17.7756 21.58 17.7756 21.3553 17.8988C21.1524 17.8481 20.9785 17.993 20.7756 17.935C20.6959 17.9785 20.6234 18.022 20.5437 18.0582C20.4423 18.0292 20.2901 18.1089 20.2104 18.0292C20.109 18.0002 20.1307 18.1886 20.0292 18.1597C19.9954 18.15 19.9616 18.1403 19.9278 18.1307L19.9061 18.0582C19.7539 18.1379 19.6307 18.0437 19.4713 18.1234L19.4495 18.0582C19.2974 18.1379 19.1669 18.051 19.0727 18.1524C18.9423 18.0655 18.6597 18.0582 18.4278 18.0799C18.4495 18.022 18.3988 18.0147 18.3481 18.0075L18.2756 18.0582C18.2974 18.0002 17.8336 18.0365 17.7901 18.0292L17.6814 18.0075L17.6524 17.9423L17.5727 17.9857C17.493 17.906 16.9423 17.8553 16.8119 17.7104C16.7104 17.8118 16.609 17.7684 16.4858 17.7394C15.993 17.7104 15.3988 17.493 15.3408 17.4785L15.3046 17.406C15.1307 17.493 14.8553 17.406 14.7756 17.2611C14.7176 17.2539 14.6379 17.2394 14.58 17.2249C14.5147 17.0799 14.1307 17.1089 14.08 16.964C14.08 16.964 13.8843 16.8336 13.8046 16.7321C13.6814 16.8118 13.3626 16.4278 13.3046 16.406L13.0945 16.3915L13.0147 16.1597L12.7321 15.9495C12.6162 15.7321 12.5003 15.8988 12.464 15.7176L12.5075 15.7321Z" fill="#231815"/>
<path d="M17.0002 7.42788C17.0799 7.42788 17.1596 7.42788 17.2393 7.44237C17.6161 7.83367 18.3625 7.71773 18.8625 7.96411C19.0581 7.82643 19.2755 7.90614 19.4494 7.84817C19.4881 7.90131 19.5267 7.95203 19.5654 8.00034C20.0002 7.8699 20.232 8.0873 20.6451 8.06556C20.7127 8.02208 20.7803 7.9786 20.848 7.93512C20.9204 7.93512 21.0002 7.94962 20.9784 8.02208L21.0799 7.95686L21.1378 8.03657L21.2393 7.97135C21.2175 8.04382 21.2973 8.05106 21.3697 8.05831C21.5726 7.93512 21.6958 8.10179 21.9277 7.91338C21.9784 8.00034 22.0581 8.00759 22.1306 8.02208C22.3625 7.83367 22.4422 8.02933 22.7248 7.94237L22.7755 8.02933L22.877 7.9786L22.8262 7.89164C22.8552 7.81918 22.9277 7.83367 23.0074 7.85541C23.1306 7.95686 23.2175 8.11628 23.4349 8.02208L23.4784 8.10904C23.6089 8.01483 22.5871 7.97135 24.1886 7.91338C24.2562 7.8844 24.3238 7.853 24.3915 7.81918C24.4349 7.90614 24.5074 7.92788 24.5799 7.94237C24.7828 7.85541 24.9567 7.82643 25.1596 7.73222C25.232 7.74672 25.348 7.85541 25.4784 7.74672L25.5219 7.83367C25.6958 7.80469 25.9422 7.80469 26.1161 7.7757C26.0871 7.84092 26.0002 7.68875 26.0654 7.71773C26.3118 7.59454 26.5799 7.44962 26.8118 7.63077C27.0799 7.60179 27.2031 7.46411 27.4784 7.44237C27.5654 7.5728 27.79 7.31918 27.9204 7.39164C28.0509 7.45686 28.0581 7.2757 28.1378 7.40614L28.1596 7.50034C28.1886 7.46169 28.2175 7.42304 28.2465 7.3844C28.3576 7.39406 28.4615 7.37232 28.5581 7.31918C28.6233 7.35541 28.6886 7.39164 28.7248 7.33367C28.877 7.2757 29.0074 7.2757 29.2175 7.23222C29.2393 7.32643 29.3915 7.1815 29.348 7.24672C29.4494 7.22498 29.5581 7.20324 29.6813 7.2757C29.7175 7.21773 29.761 7.15976 29.8262 7.19599L29.8987 7.25396C29.9712 7.23947 29.9784 7.23222 30.0581 7.15976C30.9132 7.0873 31.3915 6.66701 32.2393 6.66701C32.3842 6.60179 32.5364 6.52933 32.6813 6.46411C32.8335 6.39164 32.9639 6.58005 32.9929 6.42063C32.9349 6.37715 33.1668 6.31918 33.2103 6.26846C33.4204 6.24672 33.5509 5.8844 33.6306 5.76846C33.5726 5.73222 33.6306 5.67425 33.6161 5.5728L33.7175 5.55831C33.6958 5.45686 33.6813 5.05106 33.7175 4.98585C33.6958 4.89164 33.5509 4.94962 33.5944 4.89889L33.5581 4.83367C33.5002 4.79019 33.5799 4.68875 33.6161 4.63077C33.5726 4.43512 33.3987 4.65976 33.3118 4.51483L33.4639 4.28295C33.3915 4.14527 33.0799 4.05831 32.9567 3.9786C32.8697 4.09454 32.877 4.05106 32.7393 4.12353L32.6886 4.01483C32.5436 4.09454 32.4567 3.99309 32.4132 4.05106C32.4712 4.0873 32.3697 4.0873 32.3262 4.13802C32.2828 4.19599 32.2465 4.25396 32.1813 4.21773C32.1233 4.17425 32.0581 4.13802 31.9567 4.15251C31.9277 4.19116 31.9011 4.22981 31.877 4.26846C31.4639 4.34092 30.5291 4.36266 30.4349 4.23222C30.3625 4.24672 30.2948 4.26362 30.232 4.28295C30.2973 4.31918 30.1813 4.39164 30.2175 4.33367C30.2828 4.3699 30.0291 4.29744 29.9929 4.36266C29.6596 4.36266 28.9349 4.43512 29.0799 4.34817C28.9132 4.34092 28.5871 4.42788 28.4567 4.36266C28.4132 4.5728 28.1741 4.23947 28.1089 4.36266C28.2103 4.33367 27.9784 4.31918 28.0509 4.34817V4.43512C27.8552 4.49309 27.8335 4.30469 27.6306 4.37715C27.5654 4.34817 27.5291 4.31918 27.5654 4.25396C27.4929 4.22498 27.4494 4.18875 27.4132 4.25396L27.4494 4.34092C27.3407 4.37715 27.1741 4.16701 27.0364 4.26121C26.9712 4.23222 26.8987 4.21048 26.8335 4.1815C26.5944 4.31193 26.3407 4.30469 26.0944 4.32643L26.0509 4.23947C26.1233 4.25396 25.9349 4.3699 25.9567 4.30469C25.9084 4.29503 25.8601 4.28536 25.8117 4.2757C25.6886 4.39164 25.1741 4.39164 25.0291 4.35541C25.1741 4.3844 24.732 4.10179 24.761 4.24672C24.3987 4.39164 23.9712 4.17425 23.5871 4.17425C23.5654 4.02208 23.3987 4.26846 23.2755 4.17425C23.2973 4.10904 23.3262 4.03657 23.2538 4.02933C23.1523 4.08005 23.0799 4.05831 22.9857 4.11628C22.9132 4.11628 22.8335 4.09454 22.8625 4.02933C22.7828 4.02208 22.7103 4.01483 22.6886 4.08005C22.6161 4.06556 22.5364 4.05831 22.5654 3.99309C22.4639 4.05106 22.3697 4.12353 22.2755 4.18875C22.2031 4.18875 22.2175 4.10904 22.2393 4.04382C21.9204 4.0873 21.7393 3.79744 21.3987 3.91338C21.4132 3.84817 21.348 3.84092 21.2683 3.83367C20.9857 4.02208 20.5871 3.81918 20.3262 3.94961C20.2828 3.81193 20.1161 3.87715 19.9639 3.87715C19.8697 3.94237 19.8118 3.7757 19.7393 3.7757C19.3915 3.63077 19.0944 3.70324 18.7175 3.62353C18.8625 3.4786 17.6741 3.47135 17.2175 3.39164C16.9349 3.23947 16.5799 3.3844 16.2828 3.30469C16.2683 3.37715 16.2465 3.45686 16.1668 3.44962C15.9494 3.36991 15.819 3.59454 15.5654 3.66701C15.5291 3.81193 15.3697 3.8844 15.4132 4.01483C15.3045 4.15976 15.29 4.18875 15.2103 4.1815C15.1451 4.4786 15.0944 4.44962 15.0146 4.74672C15.0944 4.74672 15.1741 4.74672 15.1523 4.82643C15.0944 5.05106 15.232 5.13077 15.1741 5.34817C15.2538 5.34817 15.3335 5.35541 15.3117 5.42788C15.2755 5.58005 15.3335 5.65251 15.3915 5.73222C15.3697 5.80469 15.3552 5.87715 15.2755 5.87715L15.3335 5.95686L15.232 6.02208C15.29 6.10179 15.2755 6.17425 15.2538 6.24672C15.319 6.31918 15.5509 6.33367 15.4349 6.4786C15.9857 6.80469 16.4422 7.19599 17.0146 7.44962L17.0002 7.42788Z" fill="#231815"/>
</g>
<defs>
<clipPath id="clip0_238_16047">
<rect width="80" height="31.1594" fill="white"/>
</clipPath>
</defs>
</svg>
